<svg width="145" height="410" viewBox="0 0 145 410" fill="none" xmlns="http://www.w3.org/2000/svg">
<g opacity="0.39" clip-path="url(#clip0_1656_4795)">
<path d="M156.931 -68.27L-1.67578 23.3069L-1.67578 43.583L156.931 -47.983L156.931 -68.27Z" fill="white"/>
<path d="M156.931 -27.9614L-1.67578 63.6156L-1.67578 83.8916L156.931 -7.67443L156.931 -27.9614Z" fill="white"/>
<path d="M156.929 12.6147L-1.67773 104.181L-1.67773 124.468L156.929 32.8908L156.929 12.6147Z" fill="white"/>
<path d="M156.931 53.1759L-1.67578 144.753L-1.67578 165.029L156.931 73.4629L156.931 53.1759Z" fill="white"/>
<path d="M-108.443 306.137L-108.443 326.358L127.184 462.396L144.693 452.285L-108.443 306.137Z" fill="white"/>
<path d="M109.773 472.559L-108.443 346.578L-108.443 366.799L92.2634 482.67L109.773 472.559Z" fill="white"/>
<path d="M74.754 492.781L-108.443 387.021L-108.443 407.231L57.2443 502.892L74.754 492.781Z" fill="white"/>
<path d="M-9.61878 342.265L148.988 250.688L148.988 230.412L-9.61878 321.978L-9.61878 342.265Z" fill="white"/>
<path d="M261.311 498.556L261.311 478.335L25.6833 342.298L8.17383 352.409L261.311 498.556Z" fill="white"/>
<path d="M43.0942 332.133L261.311 458.115L261.311 437.894L60.6037 322.022L43.0942 332.133Z" fill="white"/>
<path d="M78.1132 311.911L261.311 417.672L261.311 397.462L95.6228 301.801L78.1132 311.911Z" fill="white"/>
<path d="M113.132 291.69L261.311 377.24L261.311 357.019L130.642 281.579L113.132 291.69Z" fill="white"/>
<path d="M-9.62073 301.958L148.986 210.381L148.986 190.104L-9.62073 281.671L-9.62073 301.958Z" fill="white"/>
<path d="M-9.62073 261.381L148.986 169.815L148.986 149.528L-9.62073 241.105L-9.62073 261.381Z" fill="white"/>
<path d="M-9.62073 220.819L148.986 129.242L148.986 108.966L-9.62073 200.532L-9.62073 220.819Z" fill="white"/>
</g>
<defs>
<clipPath id="clip0_1656_4795">
<rect width="522" height="145" fill="white" transform="translate(145 0.643555) rotate(90)"/>
</clipPath>
</defs>
</svg>
