<svg width="216" height="100" viewBox="0 0 216 100" fill="none" xmlns="http://www.w3.org/2000/svg">
<path d="M106.412 129.873L168.827 24.4297H182.646L120.239 129.873H106.412Z" fill="#8B80FF" fill-opacity="0.03"/>
<path d="M-0.000854492 -50H13.7697L106.41 105.885L99.5249 117.468L-0.000854492 -50Z" fill="#8B80FF" fill-opacity="0.03"/>
<path d="M113.744 94.2089L26.9999 -50H40.9229L120.705 82.6376L113.744 94.2089Z" fill="#8B80FF" fill-opacity="0.03"/>
<path d="M126.619 70.9494L55.5872 -50H69.1611L133.41 59.3893L126.619 70.9494Z" fill="#8B80FF" fill-opacity="0.03"/>
<path d="M140.823 47.6899L82.5879 -50H96.3527L147.705 36.1462L140.823 47.6899Z" fill="#8B80FF" fill-opacity="0.03"/>
<path d="M133.412 129.873L195.827 24.4297H209.646L147.239 129.873H133.412Z" fill="#8B80FF" fill-opacity="0.03"/>
<path d="M170.9 105.75L218.985 24.4297H229.639L181.548 105.75H170.9Z" fill="#8B80FF" fill-opacity="0.03"/>
<path d="M192.201 105.75L240.292 24.4297H250.939L202.854 105.75H192.201Z" fill="#8B80FF" fill-opacity="0.03"/>
</svg>
