<svg width="167" height="100" viewBox="0 0 167 100" fill="none" xmlns="http://www.w3.org/2000/svg">
<path d="M63.1071 147.935L2.16907 42.4922H-11.3232L49.6076 147.935H63.1071Z" fill="white" fill-opacity="0.06"/>
<path d="M167 -31.9375H153.555L63.1074 123.947L69.8298 135.531L167 -31.9375Z" fill="white" fill-opacity="0.06"/>
<path d="M55.9491 112.271L140.64 -31.9375H127.046L49.1523 100.7L55.9491 112.271Z" fill="white" fill-opacity="0.06"/>
<path d="M43.377 89.0119L112.728 -31.9375H99.4755L36.7471 77.4518L43.377 89.0119Z" fill="white" fill-opacity="0.06"/>
<path d="M29.5105 65.7524L86.367 -31.9375H72.928L22.791 54.2087L29.5105 65.7524Z" fill="white" fill-opacity="0.06"/>
<path d="M36.7468 147.935L-24.1913 42.4922H-37.6836L23.2472 147.935H36.7468Z" fill="white" fill-opacity="0.06"/>
<path d="M0.145421 123.813L-46.8017 42.4922H-57.2031L-10.2504 123.813H0.145421Z" fill="white" fill-opacity="0.06"/>
</svg>
