<svg width="92" height="64" viewBox="0 0 92 64" fill="none" xmlns="http://www.w3.org/2000/svg">
<path d="M54.8276 63.9993L33.3068 26.5312H28.543L50.0597 63.9993H54.8276Z" fill="#2FBC7A"/>
<path d="M91.557 0H86.8054L54.8359 55.6594L57.2117 59.7965L91.557 0Z" fill="#2FBC7A"/>
<path d="M52.4461 51.5467L82.052 0H77.3004L50.0703 47.4096L52.4461 51.5467Z" fill="#2FBC7A"/>
<path d="M47.6961 43.2724L72.5504 0H67.7988L45.3203 39.1393L47.6961 43.2724Z" fill="#2FBC7A"/>
<path d="M42.9442 35.0021L63.0468 0H58.2952L40.5684 30.865L42.9442 35.0021Z" fill="#2FBC7A"/>
<path d="M45.353 63.9993L23.8322 26.5312H19.0684L40.5892 63.9993H45.353Z" fill="#2FBC7A"/>
<path d="M35.82 63.9993L14.2992 26.5312H9.53125L31.0521 63.9993H35.82Z" fill="#2FBC7A"/>
<path d="M26.2846 63.9993L4.76791 26.5312H0L21.5208 63.9993H26.2846Z" fill="#2FBC7A"/>
</svg>
