<svg width="92" height="64" viewBox="0 0 92 64" fill="none" xmlns="http://www.w3.org/2000/svg">
<path d="M54.8266 63.9993L33.3058 26.5312H28.542L50.0587 63.9993H54.8266Z" fill="#0A3D5E"/>
<path d="M91.556 0H86.8044L54.835 55.6594L57.2108 59.7965L91.556 0Z" fill="#0A3D5E"/>
<path d="M52.4471 51.5467L82.053 0H77.3014L50.0713 47.4096L52.4471 51.5467Z" fill="#0A3D5E"/>
<path d="M47.6951 43.2724L72.5494 0H67.7978L45.3193 39.1393L47.6951 43.2724Z" fill="#0A3D5E"/>
<path d="M42.9442 35.0021L63.0468 0H58.2952L40.5684 30.865L42.9442 35.0021Z" fill="#2FBC7A"/>
<path d="M45.352 63.9993L23.8312 26.5312H19.0674L40.5882 63.9993H45.352Z" fill="#0A3D5E"/>
<path d="M35.82 63.9993L14.2992 26.5312H9.53125L31.0521 63.9993H35.82Z" fill="#0A3D5E"/>
<path d="M26.2846 63.9993L4.76791 26.5312H0L21.5208 63.9993H26.2846Z" fill="#2FBC7A"/>
</svg>
