<svg width="223" height="48" viewBox="0 0 223 48" fill="none" xmlns="http://www.w3.org/2000/svg">
<path d="M120.841 23.4178V20.382C120.841 20.1267 120.969 19.999 121.221 19.999H131.676C131.929 19.999 132.057 20.1267 132.057 20.382V23.4178C132.057 23.6731 131.929 23.8008 131.676 23.8008H121.221C120.969 23.8008 120.841 23.6731 120.841 23.4178Z" fill="#0A3D5E"/>
<path d="M72.2893 9.21123C72.2893 8.95873 72.417 8.83105 72.6695 8.83105H76.3947C76.6472 8.83105 76.7748 8.95873 76.7748 9.21123V19.3654C76.7748 19.5186 76.8515 19.5924 77.0018 19.5924H86.8496C87.0028 19.5924 87.0765 19.5158 87.0765 19.3654V9.21123C87.0765 8.95873 87.2042 8.83105 87.4567 8.83105H91.1819C91.4344 8.83105 91.5621 8.95873 91.5621 9.21123V34.3059C91.5621 34.5584 91.4344 34.686 91.1819 34.686H87.4567C87.2042 34.686 87.0765 34.5584 87.0765 34.3059V23.8878C87.0765 23.7346 86.9999 23.6609 86.8496 23.6609H77.0018C76.8486 23.6609 76.7748 23.7375 76.7748 23.8878V34.3059C76.7748 34.5584 76.6472 34.686 76.3947 34.686H72.6695C72.417 34.686 72.2893 34.5584 72.2893 34.3059V9.21123Z" fill="#0A3D5E"/>
<path d="M112.818 34.6829C112.54 34.6829 112.35 34.5552 112.248 34.3027L107.305 24.228H102.857C102.704 24.228 102.63 24.3046 102.63 24.4549V34.3027C102.63 34.5552 102.502 34.6829 102.25 34.6829H98.5245C98.272 34.6829 98.1443 34.5552 98.1443 34.3027V9.17119C98.1443 8.91869 98.272 8.79102 98.5245 8.79102H108.523C109.714 8.79102 110.809 8.9811 111.811 9.36128C112.812 9.74146 113.681 10.2692 114.415 10.9416C115.15 11.614 115.726 12.4254 116.146 13.3787C116.563 14.3291 116.773 15.3789 116.773 16.5194C116.773 18.2189 116.33 19.6914 115.442 20.9369C114.554 22.1795 113.363 23.0818 111.868 23.6407L117.304 34.1864C117.38 34.3141 117.386 34.4275 117.323 34.5297C117.261 34.6318 117.165 34.6829 117.04 34.6829H112.818ZM108.369 20.1595C109.561 20.1595 110.517 19.8332 111.241 19.175C111.964 18.5196 112.324 17.6373 112.324 16.5279C112.324 15.4186 111.964 14.4994 111.241 13.844C110.517 13.1886 109.561 12.8595 108.369 12.8595H102.857C102.704 12.8595 102.63 12.9361 102.63 13.0865V19.9325C102.63 20.0829 102.706 20.1595 102.857 20.1595H108.369Z" fill="#0A3D5E"/>
<path d="M140.687 34.683C140.435 34.683 140.307 34.5553 140.307 34.3028V13.0866C140.307 12.9334 140.231 12.8596 140.08 12.8596H133.314C133.061 12.8596 132.933 12.7319 132.933 12.4766V9.17696C132.933 8.92162 133.061 8.79395 133.314 8.79395H151.792C152.044 8.79395 152.172 8.92162 152.172 9.17696V12.4766C152.172 12.7319 152.044 12.8596 151.792 12.8596H145.025C144.872 12.8596 144.798 12.9362 144.798 13.0866V34.3028C144.798 34.5553 144.671 34.683 144.418 34.683H140.693H140.687Z" fill="#2FBC7A"/>
<path d="M157.035 34.6826C156.782 34.6826 156.655 34.5549 156.655 34.3024V16.7376C156.655 16.4851 156.782 16.3574 157.035 16.3574H160.533C160.786 16.3574 160.913 16.4851 160.913 16.7376V18.2952H160.95C161.381 17.5859 161.989 17.0156 162.775 16.5844C163.56 16.1531 164.536 15.9375 165.702 15.9375C166.437 15.9375 167.141 16.0708 167.813 16.3375C168.486 16.6042 169.062 16.9787 169.544 17.4582C169.72 17.637 169.745 17.8129 169.621 17.9916L167.606 20.5394C167.453 20.7436 167.277 20.7663 167.073 20.616C166.642 20.3379 166.21 20.1223 165.779 19.9691C165.348 19.8159 164.88 19.7421 164.372 19.7421C163.155 19.7421 162.275 20.1478 161.73 20.9593C161.186 21.7707 160.913 22.9112 160.913 24.3809V34.3052C160.913 34.5577 160.786 34.6854 160.533 34.6854H157.035V34.6826Z" fill="#0A3D5E"/>
<path d="M184.867 34.6825C184.615 34.6825 184.487 34.5548 184.487 34.3023V32.9717H184.45C183.942 33.6044 183.315 34.1179 182.569 34.5123C181.82 34.9038 180.864 35.1024 179.698 35.1024C178.711 35.1024 177.828 34.9322 177.057 34.5889C176.282 34.2456 175.624 33.7718 175.079 33.1618C174.534 32.5546 174.114 31.8368 173.825 31.0141C173.533 30.1913 173.388 29.2834 173.388 28.2961V16.7375C173.388 16.485 173.516 16.3573 173.768 16.3573H177.267C177.519 16.3573 177.647 16.485 177.647 16.7375V27.3059C177.647 28.4975 177.925 29.4593 178.484 30.1941C179.04 30.929 179.902 31.2978 181.068 31.2978C182.158 31.2978 183 30.9318 183.596 30.1941C184.192 29.4593 184.49 28.5089 184.49 27.3428V16.7347C184.49 16.4822 184.618 16.3545 184.87 16.3545H188.368C188.621 16.3545 188.749 16.4822 188.749 16.7347V34.2995C188.749 34.552 188.621 34.6797 188.368 34.6797H184.87L184.867 34.6825Z" fill="#0A3D5E"/>
<path d="M201.936 35.1026C200.06 35.1026 198.469 34.799 197.164 34.189C195.859 33.5819 194.826 32.9208 194.065 32.2115C193.887 32.0356 193.887 31.8569 194.065 31.6781L196.233 29.3971C196.409 29.2211 196.588 29.2211 196.766 29.3971C197.425 30.0042 198.242 30.5064 199.218 30.8979C200.194 31.2923 201.164 31.488 202.126 31.488C203.266 31.488 204.115 31.2866 204.674 30.8809C205.23 30.4752 205.511 29.956 205.511 29.3233C205.511 28.7672 205.301 28.3218 204.884 27.9927C204.466 27.6635 203.661 27.4366 202.469 27.3089L200.492 27.1188C198.616 26.9174 197.209 26.3585 196.27 25.4449C195.331 24.5313 194.863 23.2915 194.863 21.7197C194.863 19.9465 195.47 18.5393 196.687 17.498C197.904 16.4596 199.666 15.9404 201.973 15.9404C203.417 15.9404 204.722 16.1504 205.888 16.5674C207.054 16.9845 208.041 17.5236 208.853 18.1846C209.054 18.3378 209.08 18.5137 208.929 18.718L207.065 20.9622C206.912 21.1409 206.736 21.1665 206.532 21.0388C205.947 20.6331 205.232 20.2784 204.384 19.9749C203.536 19.6713 202.654 19.5181 201.743 19.5181C200.832 19.5181 200.14 19.6968 199.672 20.0515C199.204 20.4061 198.968 20.8629 198.968 21.419C198.968 21.9751 199.169 22.3751 199.575 22.6929C199.981 23.0106 200.778 23.2319 201.97 23.3596L203.947 23.5497C205.874 23.754 207.298 24.3157 208.226 25.2406C209.151 26.1655 209.613 27.3883 209.613 28.9091C209.613 30.7333 208.966 32.2229 207.675 33.3776C206.382 34.5323 204.469 35.1082 201.933 35.1082L201.936 35.1026Z" fill="#0A3D5E"/>
<path d="M220.338 34.9115C218.488 34.9115 217.174 34.4689 216.402 33.5809C215.628 32.6929 215.242 31.3509 215.242 29.5493V19.8916C215.242 19.7384 215.165 19.6647 215.015 19.6647H213.798C213.545 19.6647 213.418 19.537 213.418 19.2845V16.7367C213.418 16.4842 213.545 16.3565 213.798 16.3565H215.015C215.168 16.3565 215.242 16.2799 215.242 16.1296V11.1106C215.242 10.8581 215.37 10.7305 215.622 10.7305H219.12C219.373 10.7305 219.501 10.8581 219.501 11.1106V16.1296C219.501 16.2828 219.577 16.3565 219.728 16.3565H222.162C222.414 16.3565 222.542 16.4842 222.542 16.7367V19.2845C222.542 19.537 222.414 19.6647 222.162 19.6647H219.728C219.574 19.6647 219.501 19.7413 219.501 19.8916V29.3961C219.501 30.0543 219.64 30.5054 219.918 30.7466C220.196 30.9877 220.627 31.1069 221.211 31.1069H222.162C222.414 31.1069 222.542 31.2346 222.542 31.4871V34.5285C222.542 34.781 222.414 34.9087 222.162 34.9087H220.338V34.9115Z" fill="#0A3D5E"/>
<path d="M74.8709 47.8654C74.789 47.8654 74.7494 47.8257 74.7494 47.7439V44.4795L72.3012 39.7177C72.2695 39.6279 72.3011 39.583 72.3989 39.583H73.2625C73.3364 39.583 73.3972 39.6226 73.4447 39.7045L75.2961 43.2488H75.3199L77.1581 39.7045C77.1898 39.6226 77.2479 39.583 77.3297 39.583H78.1696C78.2673 39.583 78.299 39.6279 78.2673 39.7177L75.819 44.4795V47.7439C75.819 47.8257 75.7794 47.8654 75.6976 47.8654H74.8683H74.8709Z" fill="#5D5A88"/>
<path d="M81.0693 48.0005C80.5015 48.0005 80.0155 47.8632 79.6141 47.5859C79.2127 47.3112 78.9301 46.9256 78.769 46.4291C78.7029 46.2258 78.6554 46.0118 78.6237 45.79C78.592 45.5681 78.5762 45.2855 78.5762 44.9448C78.5762 44.6041 78.592 44.3242 78.6237 44.105C78.6554 43.8858 78.7056 43.6745 78.769 43.4711C78.9301 42.9667 79.2127 42.5811 79.6141 42.3091C80.0155 42.037 80.5015 41.9023 81.0693 41.9023C81.6372 41.9023 82.1231 42.0397 82.5246 42.3091C82.926 42.5811 83.2086 42.9693 83.3697 43.4711C83.4357 43.6745 83.4833 43.8858 83.515 44.105C83.5467 44.3242 83.5625 44.6041 83.5625 44.9448C83.5625 45.2855 83.5467 45.5681 83.515 45.79C83.4833 46.0145 83.4331 46.2258 83.3697 46.4291C83.206 46.9256 82.926 47.3086 82.5246 47.5859C82.1231 47.8632 81.6372 48.0005 81.0693 48.0005ZM81.0693 47.0498C81.3942 47.0498 81.6689 46.9705 81.8986 46.8121C82.1258 46.6536 82.2895 46.4291 82.3846 46.136C82.4321 45.9722 82.4665 45.8058 82.4876 45.6315C82.5087 45.4572 82.5193 45.2274 82.5193 44.9448C82.5193 44.6623 82.5087 44.4325 82.4876 44.2635C82.4665 44.0918 82.4321 43.9254 82.3846 43.7643C82.2869 43.4711 82.1258 43.2466 81.8986 43.0882C81.6715 42.9297 81.3942 42.8505 81.0693 42.8505C80.7445 42.8505 80.4698 42.9297 80.24 43.0882C80.0129 43.2466 79.8492 43.4711 79.7541 43.7643C79.7066 43.928 79.6696 44.0944 79.6511 44.2635C79.63 44.4351 79.6194 44.6623 79.6194 44.9448C79.6194 45.2274 79.63 45.4572 79.6511 45.6315C79.6722 45.8058 79.7066 45.9749 79.7541 46.136C79.8518 46.4291 80.0129 46.6536 80.24 46.8121C80.4672 46.9705 80.7445 47.0498 81.0693 47.0498Z" fill="#5D5A88"/>
<path d="M88.3272 47.8653C88.2453 47.8653 88.2057 47.8257 88.2057 47.7439V47.1945H88.1925C88.0393 47.4375 87.828 47.6329 87.5665 47.7782C87.3024 47.9234 86.9802 47.9974 86.5973 47.9974C85.9555 47.9974 85.459 47.7967 85.1051 47.3952C84.7512 46.9938 84.5742 46.4603 84.5742 45.7948V42.1527C84.5742 42.0709 84.6138 42.0312 84.6957 42.0312H85.4748C85.5567 42.0312 85.5963 42.0709 85.5963 42.1527V45.5491C85.5963 46.0272 85.7019 46.3969 85.9132 46.6584C86.1245 46.9172 86.4494 47.0493 86.8878 47.0493C87.2866 47.0493 87.6035 46.9198 87.8438 46.6584C88.0842 46.3996 88.203 46.0483 88.203 45.6099V42.1527C88.203 42.0709 88.2426 42.0312 88.3245 42.0312H89.1036C89.1855 42.0312 89.2251 42.0709 89.2251 42.1527V47.7412C89.2251 47.8231 89.1855 47.8627 89.1036 47.8627H88.3245L88.3272 47.8653Z" fill="#5D5A88"/>
<path d="M90.7992 47.8646C90.7173 47.8646 90.6777 47.825 90.6777 47.7431V42.1546C90.6777 42.0727 90.7173 42.0331 90.7992 42.0331H91.5783C91.6602 42.0331 91.6998 42.0727 91.6998 42.1546V42.7515H91.7104C91.8398 42.5006 92.0326 42.2946 92.2888 42.1361C92.545 41.9777 92.8672 41.8984 93.258 41.8984C93.4931 41.8984 93.715 41.9381 93.921 42.0146C94.127 42.0912 94.3039 42.1995 94.4518 42.3369C94.5073 42.3923 94.5152 42.4504 94.4756 42.5085L94.024 43.1054C93.9764 43.1714 93.9183 43.1794 93.8549 43.1292C93.7176 43.0394 93.575 42.9707 93.4297 42.9232C93.2845 42.8756 93.126 42.8492 92.9543 42.8492C92.508 42.8492 92.1884 43.005 91.993 43.3193C91.7975 43.6336 91.6998 44.043 91.6998 44.5553V47.7457C91.6998 47.8276 91.6602 47.8672 91.5783 47.8672H90.7992V47.8646Z" fill="#5D5A88"/>
<path d="M97.5205 39.7074C97.5205 39.6256 97.5628 39.5859 97.6446 39.5859H98.4951C98.5769 39.5859 98.6192 39.6256 98.6192 39.7074V43.1038C98.6192 43.1514 98.643 43.1778 98.6931 43.1778H102.272C102.319 43.1778 102.346 43.154 102.346 43.1038V39.7074C102.346 39.6256 102.385 39.5859 102.47 39.5859H103.32C103.402 39.5859 103.444 39.6256 103.444 39.7074V47.7442C103.444 47.826 103.402 47.8657 103.32 47.8657H102.47C102.388 47.8657 102.346 47.826 102.346 47.7442V44.2606C102.346 44.2131 102.322 44.1867 102.272 44.1867H98.6931C98.6456 44.1867 98.6192 44.2104 98.6192 44.2606V47.7442C98.6192 47.826 98.5769 47.8657 98.4951 47.8657H97.6446C97.5628 47.8657 97.5205 47.826 97.5205 47.7442V39.7074Z" fill="#5D5A88"/>
<path d="M109.712 47.8657C109.638 47.8657 109.585 47.826 109.551 47.7442L107.9 44.3583H106.08C106.033 44.3583 106.006 44.3821 106.006 44.4323V47.7442C106.006 47.826 105.964 47.8657 105.882 47.8657H105.032C104.95 47.8657 104.908 47.826 104.908 47.7442V39.7074C104.908 39.6256 104.947 39.5859 105.029 39.5859H108.032C108.423 39.5859 108.777 39.644 109.094 39.7576C109.411 39.8712 109.683 40.0323 109.913 40.2383C110.14 40.4443 110.317 40.6978 110.443 40.9936C110.57 41.2894 110.634 41.6169 110.634 41.9735C110.634 42.5334 110.488 43.0088 110.195 43.397C109.902 43.7879 109.506 44.0625 109.001 44.2263L110.768 47.7204C110.792 47.76 110.797 47.797 110.781 47.8234C110.766 47.8498 110.737 47.8657 110.697 47.8657H109.712ZM108.011 43.3468C108.497 43.3468 108.872 43.228 109.139 42.9876C109.405 42.7473 109.54 42.4092 109.54 41.9708C109.54 41.5324 109.405 41.1943 109.139 40.954C108.872 40.7137 108.497 40.5948 108.011 40.5948H106.083C106.035 40.5948 106.009 40.6186 106.009 40.6688V43.2755C106.009 43.323 106.033 43.3494 106.083 43.3494H108.011V43.3468Z" fill="#5D5A88"/>
<path d="M115.958 47.8657C115.876 47.8657 115.834 47.826 115.834 47.7442V40.6688C115.834 40.6212 115.81 40.5948 115.76 40.5948H113.494C113.412 40.5948 113.372 40.5552 113.372 40.4733V39.7074C113.372 39.6256 113.412 39.5859 113.494 39.5859H119.264C119.346 39.5859 119.386 39.6256 119.386 39.7074V40.4733C119.386 40.5552 119.346 40.5948 119.264 40.5948H116.998C116.951 40.5948 116.924 40.6186 116.924 40.6688V47.7442C116.924 47.826 116.882 47.8657 116.8 47.8657H115.95H115.958Z" fill="#5D5A88"/>
<path d="M120.207 47.8646C120.125 47.8646 120.086 47.825 120.086 47.7431V42.1546C120.086 42.0727 120.125 42.0331 120.207 42.0331H120.986C121.068 42.0331 121.108 42.0727 121.108 42.1546V42.7515H121.121C121.25 42.5006 121.443 42.2946 121.699 42.1361C121.956 41.9777 122.278 41.8984 122.669 41.8984C122.904 41.8984 123.126 41.9381 123.332 42.0146C123.538 42.0912 123.715 42.1995 123.862 42.3369C123.918 42.3923 123.928 42.4504 123.886 42.5085L123.435 43.1054C123.387 43.1714 123.329 43.1794 123.263 43.1292C123.126 43.0394 122.983 42.9707 122.838 42.9232C122.692 42.8756 122.534 42.8492 122.362 42.8492C121.916 42.8492 121.594 43.005 121.401 43.3193C121.205 43.631 121.108 44.043 121.108 44.5553V47.7457C121.108 47.8276 121.068 47.8672 120.986 47.8672H120.207V47.8646Z" fill="#5D5A88"/>
<path d="M128.194 47.8653C128.112 47.8653 128.072 47.8257 128.072 47.7439V47.1945H128.059C127.906 47.4375 127.695 47.6329 127.431 47.7782C127.166 47.9234 126.844 47.9974 126.461 47.9974C125.82 47.9974 125.323 47.7967 124.969 47.3952C124.615 46.9938 124.438 46.4603 124.438 45.7948V42.1527C124.438 42.0709 124.478 42.0312 124.56 42.0312H125.339C125.421 42.0312 125.46 42.0709 125.46 42.1527V45.5491C125.46 46.0272 125.566 46.3969 125.777 46.6584C125.989 46.9172 126.313 47.0493 126.752 47.0493C127.151 47.0493 127.468 46.9198 127.708 46.6584C127.948 46.3996 128.067 46.0483 128.067 45.6099V42.1527C128.067 42.0709 128.107 42.0312 128.189 42.0312H128.968C129.05 42.0312 129.089 42.0709 129.089 42.1527V47.7412C129.089 47.8231 129.05 47.8627 128.968 47.8627H128.189L128.194 47.8653Z" fill="#5D5A88"/>
<path d="M132.554 47.9997C132.269 47.9997 132.005 47.9733 131.762 47.9205C131.519 47.8676 131.297 47.799 131.099 47.7144C130.901 47.6299 130.721 47.5349 130.563 47.4345C130.404 47.3341 130.264 47.2285 130.143 47.1229C130.087 47.0674 130.087 47.0093 130.143 46.9512L130.642 46.415C130.698 46.3596 130.756 46.3596 130.814 46.415C131.033 46.6026 131.3 46.761 131.611 46.8904C131.923 47.0198 132.258 47.0859 132.615 47.0859C133.045 47.0859 133.365 47.004 133.576 46.835C133.788 46.6686 133.893 46.4547 133.893 46.1958C133.893 45.9687 133.819 45.7891 133.669 45.6544C133.518 45.5197 133.217 45.4299 132.763 45.3798L132.142 45.319C131.566 45.253 131.131 45.084 130.84 44.8066C130.547 44.532 130.402 44.1543 130.402 43.6736C130.402 43.1137 130.589 42.6779 130.967 42.3637C131.345 42.052 131.878 41.8936 132.567 41.8936C132.998 41.8936 133.389 41.9543 133.743 42.0758C134.097 42.1973 134.395 42.3531 134.638 42.538C134.704 42.5776 134.712 42.6357 134.662 42.7096L134.247 43.2326C134.2 43.288 134.141 43.2986 134.075 43.2563C133.888 43.1349 133.656 43.0239 133.376 42.9262C133.096 42.8285 132.805 42.781 132.504 42.781C132.14 42.781 131.862 42.8549 131.675 43.0054C131.487 43.156 131.395 43.3488 131.395 43.5838C131.395 43.8189 131.477 44.0011 131.638 44.1252C131.802 44.252 132.103 44.3339 132.541 44.3761L133.151 44.4369C133.745 44.4924 134.186 44.664 134.477 44.9493C134.767 45.2345 134.91 45.6122 134.91 46.0823C134.91 46.658 134.707 47.1202 134.303 47.4715C133.896 47.8201 133.312 47.9944 132.549 47.9944L132.554 47.9997Z" fill="#5D5A88"/>
<path d="M137.657 47.9286C137.089 47.9286 136.685 47.7966 136.444 47.5325C136.204 47.2684 136.085 46.8484 136.085 46.2727V42.937C136.085 42.8895 136.061 42.8631 136.011 42.8631H135.525C135.443 42.8631 135.404 42.8235 135.404 42.7416V42.1579C135.404 42.076 135.443 42.0364 135.525 42.0364H136.011C136.059 42.0364 136.085 42.0126 136.085 41.9625V40.3197C136.085 40.2379 136.125 40.1982 136.207 40.1982H136.986C137.068 40.1982 137.107 40.2379 137.107 40.3197V41.9625C137.107 42.01 137.131 42.0364 137.181 42.0364H138.106C138.187 42.0364 138.227 42.076 138.227 42.1579V42.7416C138.227 42.8235 138.187 42.8631 138.106 42.8631H137.181C137.134 42.8631 137.107 42.8868 137.107 42.937V46.2383C137.107 46.5315 137.165 46.7269 137.284 46.8299C137.403 46.9303 137.591 46.9831 137.849 46.9831H138.106C138.187 46.9831 138.227 47.0227 138.227 47.1046V47.8098C138.227 47.8916 138.187 47.9313 138.106 47.9313H137.654L137.657 47.9286Z" fill="#5D5A88"/>
<path d="M141.441 47.9993C140.85 47.9993 140.351 47.8646 139.949 47.5926C139.548 47.3205 139.265 46.9297 139.104 46.4173C139.038 46.2298 138.99 46.0238 138.959 45.7966C138.927 45.5695 138.911 45.2843 138.911 44.9436C138.911 44.6029 138.924 44.315 138.953 44.0852C138.982 43.8528 139.027 43.6495 139.093 43.4699C139.254 42.9575 139.537 42.5693 139.939 42.2999C140.34 42.0305 140.821 41.8984 141.381 41.8984C141.94 41.8984 142.421 42.0358 142.823 42.3052C143.224 42.5772 143.507 42.9654 143.668 43.4672C143.699 43.5649 143.726 43.6653 143.747 43.7657C143.768 43.866 143.787 43.9822 143.802 44.1116C143.818 44.2411 143.831 44.389 143.839 44.5553C143.847 44.7217 143.853 44.9145 143.853 45.1337C143.853 45.2156 143.808 45.2552 143.718 45.2552H140.028C139.981 45.2552 139.954 45.279 139.954 45.3292C139.954 45.4929 139.962 45.625 139.978 45.7306C139.994 45.8363 140.018 45.9366 140.052 46.0343C140.166 46.375 140.348 46.6286 140.601 46.795C140.852 46.9613 141.161 47.0459 141.526 47.0459C141.89 47.0459 142.17 46.9851 142.416 46.8636C142.659 46.7421 142.862 46.589 143.026 46.4014C143.092 46.3354 143.153 46.3275 143.208 46.3777L143.707 46.8293C143.763 46.8768 143.768 46.9349 143.721 47.001C143.485 47.2941 143.174 47.5318 142.788 47.7193C142.403 47.9068 141.954 47.9993 141.444 47.9993H141.441ZM142.733 44.4312C142.78 44.4312 142.807 44.4074 142.807 44.3599C142.807 44.0932 142.778 43.8766 142.722 43.7076C142.624 43.417 142.461 43.1952 142.228 43.0367C141.996 42.8783 141.716 42.8017 141.383 42.8017C141.05 42.8017 140.768 42.8809 140.535 43.0367C140.303 43.1926 140.139 43.417 140.041 43.7076C139.986 43.8766 139.957 44.0932 139.957 44.3599C139.957 44.4074 139.981 44.4312 140.031 44.4312H142.735H142.733Z" fill="#5D5A88"/>
<path d="M148.604 47.8657C148.522 47.8657 148.483 47.826 148.483 47.7442V47.1843H148.469C148.332 47.4193 148.131 47.6148 147.867 47.7679C147.603 47.9211 147.252 48.0003 146.814 48.0003C146.301 48.0003 145.876 47.8815 145.535 47.6464C145.195 47.4114 144.952 47.0628 144.804 46.6006C144.722 46.3655 144.669 46.1226 144.64 45.869C144.611 45.6181 144.598 45.3091 144.598 44.9446C144.598 44.5802 144.611 44.2738 144.64 44.0256C144.669 43.7773 144.722 43.537 144.804 43.3019C144.949 42.8397 145.195 42.4911 145.535 42.2534C145.876 42.0184 146.301 41.8995 146.814 41.8995C147.252 41.8995 147.603 41.9735 147.867 42.124C148.131 42.2745 148.332 42.4673 148.469 42.7024H148.483V39.7074C148.483 39.6256 148.522 39.5859 148.604 39.5859H149.383C149.465 39.5859 149.505 39.6256 149.505 39.7074V47.7442C149.505 47.826 149.465 47.8657 149.383 47.8657H148.604ZM147.056 47.0496C147.722 47.0496 148.153 46.7538 148.348 46.1595C148.396 46.0222 148.432 45.8585 148.451 45.6657C148.472 45.4755 148.483 45.2325 148.483 44.942C148.483 44.6515 148.472 44.4112 148.451 44.2236C148.43 44.0361 148.396 43.8697 148.348 43.7245C148.153 43.1408 147.722 42.8476 147.056 42.8476C146.391 42.8476 145.982 43.1408 145.778 43.7245C145.731 43.8882 145.694 44.0652 145.675 44.2606C145.654 44.4561 145.644 44.6832 145.644 44.942C145.644 45.2008 145.654 45.4412 145.675 45.6366C145.696 45.832 145.731 46.0063 145.778 46.1595C145.982 46.7511 146.407 47.0496 147.056 47.0496Z" fill="#5D5A88"/>
<path d="M153.474 47.8657C153.392 47.8657 153.35 47.826 153.35 47.7442V39.7074C153.35 39.6256 153.39 39.5859 153.472 39.5859H156.419C156.818 39.5859 157.177 39.644 157.502 39.7629C157.827 39.8817 158.101 40.0481 158.331 40.2621C158.558 40.476 158.735 40.7374 158.859 41.0412C158.986 41.3449 159.047 41.6856 159.047 42.058C159.047 42.4304 158.983 42.7711 158.859 43.0748C158.733 43.3785 158.558 43.64 158.331 43.8539C158.104 44.0678 157.829 44.2368 157.504 44.353C157.18 44.4719 156.82 44.53 156.424 44.53H154.517C154.47 44.53 154.444 44.5538 154.444 44.6039V47.7468C154.444 47.8287 154.401 47.8683 154.319 47.8683H153.469L153.474 47.8657ZM156.364 43.5185C156.873 43.5185 157.269 43.3891 157.552 43.1276C157.835 42.8688 157.977 42.5096 157.977 42.0553C157.977 41.6011 157.835 41.2445 157.552 40.9831C157.269 40.7242 156.873 40.5922 156.364 40.5922H154.52C154.473 40.5922 154.446 40.616 154.446 40.6661V43.4419C154.446 43.4894 154.47 43.5158 154.52 43.5158H156.364V43.5185Z" fill="#5D5A88"/>
<path d="M163.299 47.8653C163.22 47.8653 163.177 47.8257 163.177 47.7438V47.2314H163.164C163.027 47.4506 162.816 47.6329 162.53 47.7808C162.245 47.926 161.881 48 161.434 48C161.157 48 160.901 47.963 160.66 47.889C160.42 47.8151 160.214 47.7068 160.04 47.5589C159.865 47.4137 159.728 47.2288 159.625 47.0096C159.525 46.7904 159.472 46.5342 159.472 46.2384C159.472 45.6204 159.673 45.1635 160.074 44.8703C160.476 44.5772 161.033 44.4293 161.749 44.4293H163.077C163.125 44.4293 163.151 44.4055 163.151 44.358V43.9354C163.151 43.5313 163.053 43.2434 162.858 43.0665C162.662 42.8895 162.293 42.7997 161.749 42.7997C161.416 42.7997 161.141 42.8393 160.922 42.9159C160.703 42.9925 160.507 43.0929 160.338 43.2144C160.264 43.2725 160.209 43.2672 160.167 43.2012L159.836 42.6413C159.805 42.5752 159.813 42.5198 159.86 42.4696C160.079 42.2979 160.357 42.1606 160.689 42.0549C161.022 41.9493 161.408 41.8965 161.846 41.8965C162.676 41.8965 163.262 42.0497 163.605 42.3534C163.951 42.6571 164.123 43.1668 164.123 43.8826V47.7438C164.123 47.8257 164.083 47.8653 164.001 47.8653H163.291H163.299ZM161.675 47.1231C162.139 47.1231 162.501 47.0228 162.763 46.8247C163.024 46.6266 163.154 46.344 163.154 45.9796V45.3351C163.154 45.2876 163.13 45.2612 163.08 45.2612H161.904C161.389 45.2612 161.02 45.3378 160.79 45.4857C160.563 45.6362 160.446 45.8766 160.446 46.2093C160.446 46.5104 160.552 46.7375 160.763 46.8907C160.975 47.0439 161.278 47.1231 161.669 47.1231H161.675Z" fill="#5D5A88"/>
<path d="M165.663 47.8646C165.581 47.8646 165.541 47.825 165.541 47.7431V42.1546C165.541 42.0727 165.581 42.0331 165.663 42.0331H166.442C166.524 42.0331 166.563 42.0727 166.563 42.1546V42.7515H166.577C166.706 42.5006 166.899 42.2946 167.155 42.1361C167.411 41.9777 167.733 41.8984 168.124 41.8984C168.359 41.8984 168.581 41.9381 168.787 42.0146C168.993 42.0912 169.17 42.1995 169.318 42.3369C169.373 42.3923 169.384 42.4504 169.342 42.5085L168.89 43.1054C168.843 43.1714 168.784 43.1794 168.718 43.1292C168.581 43.0394 168.439 42.9707 168.293 42.9232C168.148 42.8756 167.99 42.8492 167.818 42.8492C167.372 42.8492 167.049 43.005 166.857 43.3193C166.661 43.631 166.563 44.043 166.563 44.5553V47.7457C166.563 47.8276 166.524 47.8672 166.442 47.8672H165.663V47.8646Z" fill="#5D5A88"/>
<path d="M171.666 47.9286C171.098 47.9286 170.694 47.7966 170.454 47.5325C170.213 47.2684 170.094 46.8484 170.094 46.2727V42.937C170.094 42.8895 170.071 42.8631 170.021 42.8631H169.535C169.453 42.8631 169.413 42.8235 169.413 42.7416V42.1579C169.413 42.076 169.453 42.0364 169.535 42.0364H170.021C170.068 42.0364 170.094 42.0126 170.094 41.9625V40.3197C170.094 40.2379 170.134 40.1982 170.216 40.1982H170.995C171.077 40.1982 171.117 40.2379 171.117 40.3197V41.9625C171.117 42.01 171.14 42.0364 171.191 42.0364H172.115C172.197 42.0364 172.236 42.076 172.236 42.1579V42.7416C172.236 42.8235 172.197 42.8631 172.115 42.8631H171.191C171.143 42.8631 171.117 42.8868 171.117 42.937V46.2383C171.117 46.5315 171.175 46.7269 171.294 46.8299C171.412 46.9303 171.6 46.9831 171.859 46.9831H172.115C172.197 46.9831 172.236 47.0227 172.236 47.1046V47.8098C172.236 47.8916 172.197 47.9313 172.115 47.9313H171.663L171.666 47.9286Z" fill="#5D5A88"/>
<path d="M177.061 47.8646C176.979 47.8646 176.94 47.825 176.94 47.7431V44.3335C176.94 43.8634 176.831 43.4963 176.618 43.2375C176.401 42.9786 176.076 42.8466 175.638 42.8466C175.239 42.8466 174.917 42.9733 174.668 43.2295C174.42 43.4857 174.296 43.8317 174.296 44.2701V47.7405C174.296 47.8223 174.256 47.8619 174.175 47.8619H173.395C173.314 47.8619 173.274 47.8223 173.274 47.7405V42.152C173.274 42.0701 173.314 42.0305 173.395 42.0305H174.175C174.256 42.0305 174.296 42.0701 174.296 42.152V42.6881H174.309C174.447 42.461 174.655 42.2708 174.93 42.1229C175.205 41.9724 175.543 41.8984 175.941 41.8984C176.575 41.8984 177.069 42.0965 177.428 42.4953C177.785 42.8941 177.964 43.425 177.964 44.0905V47.7431C177.964 47.825 177.925 47.8646 177.843 47.8646H177.064H177.061Z" fill="#5D5A88"/>
<path d="M181.53 47.9993C180.939 47.9993 180.439 47.8646 180.038 47.5926C179.636 47.3205 179.354 46.9297 179.193 46.4173C179.127 46.2298 179.079 46.0238 179.048 45.7966C179.016 45.5695 179 45.2843 179 44.9436C179 44.6029 179.013 44.315 179.042 44.0852C179.071 43.8528 179.116 43.6495 179.182 43.4699C179.343 42.9575 179.626 42.5693 180.027 42.2999C180.429 42.0305 180.909 41.8984 181.469 41.8984C182.029 41.8984 182.51 42.0358 182.911 42.3052C183.313 42.5772 183.595 42.9654 183.757 43.4672C183.788 43.5649 183.815 43.6653 183.836 43.7657C183.857 43.866 183.875 43.9822 183.891 44.1116C183.907 44.2411 183.92 44.389 183.928 44.5553C183.936 44.7217 183.941 44.9145 183.941 45.1337C183.941 45.2156 183.897 45.2552 183.807 45.2552H180.117C180.07 45.2552 180.043 45.279 180.043 45.3292C180.043 45.4929 180.051 45.625 180.067 45.7306C180.083 45.8363 180.107 45.9366 180.141 46.0343C180.255 46.375 180.437 46.6286 180.69 46.795C180.941 46.9613 181.25 47.0459 181.615 47.0459C181.979 47.0459 182.259 46.9851 182.505 46.8636C182.748 46.7421 182.951 46.589 183.115 46.4014C183.181 46.3354 183.242 46.3275 183.297 46.3777L183.796 46.8293C183.852 46.8768 183.857 46.9349 183.809 47.001C183.574 47.2941 183.263 47.5318 182.877 47.7193C182.491 47.9068 182.043 47.9993 181.533 47.9993H181.53ZM182.822 44.4312C182.869 44.4312 182.896 44.4074 182.896 44.3599C182.896 44.0932 182.867 43.8766 182.811 43.7076C182.713 43.417 182.55 43.1952 182.317 43.0367C182.085 42.8783 181.805 42.8017 181.472 42.8017C181.139 42.8017 180.857 42.8809 180.624 43.0367C180.392 43.1926 180.228 43.417 180.13 43.7076C180.075 43.8766 180.046 44.0932 180.046 44.3599C180.046 44.4074 180.07 44.4312 180.12 44.4312H182.824H182.822Z" fill="#5D5A88"/>
<path d="M185.159 47.8646C185.077 47.8646 185.038 47.825 185.038 47.7431V42.1546C185.038 42.0727 185.077 42.0331 185.159 42.0331H185.938C186.02 42.0331 186.06 42.0727 186.06 42.1546V42.7515H186.073C186.202 42.5006 186.395 42.2946 186.651 42.1361C186.907 41.9777 187.23 41.8984 187.621 41.8984C187.856 41.8984 188.077 41.9381 188.283 42.0146C188.489 42.0912 188.666 42.1995 188.814 42.3369C188.87 42.3923 188.88 42.4504 188.838 42.5085L188.386 43.1054C188.339 43.1714 188.281 43.1794 188.215 43.1292C188.077 43.0394 187.935 42.9707 187.79 42.9232C187.644 42.8756 187.486 42.8492 187.314 42.8492C186.868 42.8492 186.546 43.005 186.353 43.3193C186.157 43.631 186.06 44.043 186.06 44.5553V47.7457C186.06 47.8276 186.02 47.8672 185.938 47.8672H185.159V47.8646Z" fill="#5D5A88"/>
<path d="M37.8463 43.9511L22.9906 18.2217H19.7014L34.5553 43.9511H37.8463Z" fill="#0A3D5E"/>
<path d="M63.1999 0H59.9196L37.8516 38.2238L39.4917 41.0642L63.1999 0Z" fill="#0A3D5E"/>
<path d="M36.2026 35.3993L56.6395 0H53.3592L34.5625 32.5589L36.2026 35.3993Z" fill="#0A3D5E"/>
<path d="M32.9221 29.7185L50.0787 0H46.8001L31.282 26.8781L32.9221 29.7185Z" fill="#2FBC7A"/>
<path d="M29.6418 24.0377L43.5199 0H40.2396L28.0017 21.1972L29.6418 24.0377Z" fill="#2FBC7A"/>
<path d="M31.307 43.9511L16.4513 18.2217H13.1621L28.016 43.9511H31.307Z" fill="#0A3D5E"/>
<path d="M24.725 43.9511L9.87105 18.2217H6.58008L21.4358 43.9511H24.725Z" fill="#2FBC7A"/>
<path d="M18.1449 43.9511L3.2892 18.2217H0L14.8539 43.9511H18.1449Z" fill="#2FBC7A"/>
</svg>
