<svg width="146" height="518" viewBox="0 0 146 518" fill="none" xmlns="http://www.w3.org/2000/svg">
<g style="mix-blend-mode:color-dodge" opacity="0.4" clip-path="url(#clip0_1709_13223)">
<path d="M10.55 448.53L0 454.62V442.43L10.55 448.52V448.53Z" fill="#0A3D5E"/>
<path d="M0 474.841L28.06 458.641L45.57 468.751L0 495.051V474.831V474.841Z" fill="#0A3D5E"/>
<path d="M90.1199 0L80.0199 5.83L69.9199 0H90.1199Z" fill="#0A3D5E"/>
<path d="M145.38 509.73L10.9702 432.13L28.4802 422.02L145.38 489.51V509.73Z" fill="#0A3D5E"/>
<path d="M145.38 469.3L45.8901 411.86L63.4001 401.75L145.38 449.08V469.3Z" fill="#0A3D5E"/>
<path d="M145.38 428.861L80.9102 391.641L98.4202 381.531L145.38 408.641V428.861Z" fill="#0A3D5E"/>
<path d="M145.38 388.419L115.93 371.419L133.44 361.309L145.38 368.209V388.429V388.419Z" fill="#0A3D5E"/>
<path d="M145.38 43.5714L132.49 36.1314L145.38 28.6914V43.5714Z" fill="#0A3D5E"/>
<path d="M99.07 77.3699L81.56 87.4799L0 40.3899V20.1699L99.07 77.3699Z" fill="#0A3D5E"/>
<path d="M64.06 97.5896L46.55 107.7L0 80.8196V60.5996L64.06 97.5796V97.5896Z" fill="#0A3D5E"/>
<path d="M29.04 117.811L11.53 127.921L0 121.271V101.051L29.04 117.811Z" fill="#0A3D5E"/>
<path d="M0 154.87V175.15L145.38 91.2197V70.9297L0 154.87Z" fill="#0A3D5E"/>
<path d="M0 195.18V215.46L145.38 131.53V111.24L0 195.18Z" fill="#0A3D5E"/>
<path d="M145.38 151.82V172.1L0 256.04V235.75L145.38 151.82Z" fill="#0A3D5E"/>
<path d="M145.38 232.949V253.239L0 337.169V316.889L145.38 232.949Z" fill="#0A3D5E"/>
<path d="M145.38 273.52V293.8L0 377.74V357.45L145.38 273.52Z" fill="#0A3D5E"/>
<path d="M145.38 313.83V334.11L0 418.05V397.76L145.38 313.83Z" fill="#0A3D5E"/>
<path d="M35.1098 0L133.99 57.09L116.48 67.2L0.0898438 0H35.1098Z" fill="#0A3D5E"/>
<path d="M65.6499 517.811L97.9999 499.131L115.51 509.241L100.67 517.811H65.6499Z" fill="#0A3D5E"/>
<path d="M145.38 212.671L0 296.601V276.321L145.38 192.381V212.671Z" fill="#0A3D5E"/>
<path d="M144.88 0.5V8.95L115.15 26.12L97.5898 15.98L124.4 0.5H144.89H144.88Z" fill="#0A3D5E"/>
<path d="M0.5 517.31V514.98L63.08 478.85L80.59 488.96L31.5 517.3H0.5V517.31Z" fill="#0A3D5E"/>
</g>
<defs>
<clipPath id="clip0_1709_13223">
<rect width="145.38" height="517.81" fill="white"/>
</clipPath>
</defs>
</svg>
