<svg width="190" height="38" viewBox="0 0 190 38" fill="none" xmlns="http://www.w3.org/2000/svg">
<path d="M103.171 19.9933V17.4015C103.171 17.1835 103.28 17.0745 103.495 17.0745H112.422C112.637 17.0745 112.746 17.1835 112.746 17.4015V19.9933C112.746 20.2113 112.637 20.3203 112.422 20.3203H103.495C103.28 20.3203 103.171 20.2113 103.171 19.9933Z" fill="white"/>
<path d="M61.7185 7.86389C61.7185 7.64831 61.8275 7.53931 62.0431 7.53931H65.2235C65.4391 7.53931 65.5481 7.64831 65.5481 7.86389V16.5332C65.5481 16.664 65.6135 16.727 65.7419 16.727H74.1497C74.2805 16.727 74.3434 16.6616 74.3434 16.5332V7.86389C74.3434 7.64831 74.4524 7.53931 74.668 7.53931H77.8485C78.0641 7.53931 78.1731 7.64831 78.1731 7.86389V29.289C78.1731 29.5046 78.0641 29.6136 77.8485 29.6136H74.668C74.4524 29.6136 74.3434 29.5046 74.3434 29.289V20.3944C74.3434 20.2636 74.278 20.2006 74.1497 20.2006H65.7419C65.6111 20.2006 65.5481 20.266 65.5481 20.3944V29.289C65.5481 29.5046 65.4391 29.6136 65.2235 29.6136H62.0431C61.8275 29.6136 61.7185 29.5046 61.7185 29.289V7.86389Z" fill="white"/>
<path d="M96.3208 29.6114C96.0834 29.6114 95.9211 29.5024 95.8339 29.2868L91.6143 20.6853H87.8161C87.6853 20.6853 87.6223 20.7507 87.6223 20.879V29.2868C87.6223 29.5024 87.5133 29.6114 87.2978 29.6114H84.1173C83.9017 29.6114 83.7927 29.5024 83.7927 29.2868V7.8302C83.7927 7.61462 83.9017 7.50562 84.1173 7.50562H92.6534C93.6708 7.50562 94.6058 7.66791 95.4608 7.99249C96.3159 8.31708 97.0571 8.76762 97.6845 9.34171C98.3119 9.91579 98.8036 10.6086 99.1621 11.4224C99.5182 12.2339 99.6974 13.1302 99.6974 14.1039C99.6974 15.5549 99.3195 16.812 98.5614 17.8754C97.8032 18.9364 96.7858 19.7067 95.5093 20.1838L100.15 29.1875C100.216 29.2965 100.221 29.3934 100.167 29.4806C100.114 29.5678 100.032 29.6114 99.9251 29.6114H96.3208ZM92.5226 17.2117C93.54 17.2117 94.3563 16.9331 94.974 16.3712C95.5917 15.8116 95.8993 15.0583 95.8993 14.1112C95.8993 13.1641 95.5917 12.3792 94.974 11.8197C94.3563 11.2602 93.54 10.9792 92.5226 10.9792H87.8161C87.6853 10.9792 87.6223 11.0446 87.6223 11.173V17.0179C87.6223 17.1463 87.6877 17.2117 87.8161 17.2117H92.5226Z" fill="white"/>
<path d="M120.115 29.6118C119.899 29.6118 119.79 29.5028 119.79 29.2872V11.1733C119.79 11.0425 119.725 10.9796 119.596 10.9796H113.819C113.604 10.9796 113.495 10.8706 113.495 10.6525V7.83543C113.495 7.61743 113.604 7.50842 113.819 7.50842H129.596C129.811 7.50842 129.92 7.61743 129.92 7.83543V10.6525C129.92 10.8706 129.811 10.9796 129.596 10.9796H123.819C123.688 10.9796 123.625 11.045 123.625 11.1733V29.2872C123.625 29.5028 123.516 29.6118 123.3 29.6118H120.12H120.115Z" fill="#2FBC7A"/>
<path d="M134.072 29.6116C133.856 29.6116 133.747 29.5026 133.747 29.287V14.2906C133.747 14.075 133.856 13.966 134.072 13.966H137.059C137.274 13.966 137.383 14.075 137.383 14.2906V15.6205H137.415C137.783 15.0149 138.301 14.528 138.972 14.1598C139.643 13.7916 140.477 13.6075 141.472 13.6075C142.099 13.6075 142.7 13.7214 143.274 13.9491C143.848 14.1768 144.34 14.4965 144.752 14.9059C144.902 15.0585 144.924 15.2087 144.817 15.3613L143.097 17.5365C142.967 17.7109 142.816 17.7303 142.642 17.6019C142.274 17.3645 141.906 17.1804 141.537 17.0496C141.169 16.9188 140.77 16.8558 140.336 16.8558C139.297 16.8558 138.546 17.2022 138.081 17.895C137.616 18.5878 137.383 19.5615 137.383 20.8163V29.2894C137.383 29.505 137.274 29.614 137.059 29.614H134.072V29.6116Z" fill="white"/>
<path d="M157.835 29.6114C157.619 29.6114 157.51 29.5024 157.51 29.2869V28.1508H157.479C157.045 28.691 156.51 29.1294 155.873 29.4661C155.233 29.8004 154.417 29.9699 153.421 29.9699C152.578 29.9699 151.825 29.8246 151.166 29.5315C150.505 29.2384 149.943 28.8339 149.478 28.3131C149.013 27.7947 148.654 27.1819 148.407 26.4794C148.158 25.777 148.034 25.0018 148.034 24.1589V14.2905C148.034 14.0749 148.143 13.9659 148.359 13.9659H151.345C151.561 13.9659 151.67 14.0749 151.67 14.2905V23.3135C151.67 24.3309 151.907 25.152 152.384 25.7794C152.859 26.4068 153.596 26.7217 154.591 26.7217C155.521 26.7217 156.241 26.4092 156.749 25.7794C157.258 25.152 157.512 24.3406 157.512 23.345V14.2881C157.512 14.0725 157.621 13.9635 157.837 13.9635H160.824C161.039 13.9635 161.148 14.0725 161.148 14.2881V29.2844C161.148 29.5 161.039 29.609 160.824 29.609H157.837L157.835 29.6114Z" fill="white"/>
<path d="M172.407 29.9701C170.806 29.9701 169.447 29.7109 168.333 29.1901C167.219 28.6717 166.337 28.1073 165.688 27.5018C165.535 27.3516 165.535 27.199 165.688 27.0464L167.538 25.0989C167.689 24.9487 167.841 24.9487 167.994 25.0989C168.556 25.6172 169.253 26.046 170.087 26.3803C170.92 26.717 171.748 26.8841 172.569 26.8841C173.543 26.8841 174.267 26.7121 174.745 26.3657C175.219 26.0193 175.459 25.5761 175.459 25.0359C175.459 24.5611 175.28 24.1808 174.924 23.8998C174.568 23.6189 173.88 23.4251 172.862 23.3161L171.174 23.1538C169.573 22.9818 168.372 22.5046 167.57 21.7246C166.768 20.9447 166.368 19.8861 166.368 18.5442C166.368 17.0302 166.887 15.8288 167.926 14.9398C168.965 14.0533 170.469 13.61 172.439 13.61C173.672 13.61 174.786 13.7892 175.781 14.1453C176.777 14.5014 177.62 14.9616 178.313 15.526C178.485 15.6568 178.506 15.807 178.378 15.9814L176.787 17.8974C176.656 18.05 176.506 18.0718 176.331 17.9628C175.832 17.6164 175.222 17.3137 174.498 17.0545C173.773 16.7953 173.02 16.6645 172.242 16.6645C171.465 16.6645 170.874 16.8171 170.474 17.1199C170.074 17.4227 169.873 17.8126 169.873 18.2874C169.873 18.7622 170.045 19.1037 170.392 19.375C170.738 19.6463 171.419 19.8353 172.436 19.9443L174.125 20.1065C175.769 20.281 176.985 20.7606 177.777 21.5502C178.567 22.3399 178.962 23.3839 178.962 24.6822C178.962 26.2398 178.41 27.5115 177.307 28.4973C176.203 29.4832 174.57 29.9749 172.405 29.9749L172.407 29.9701Z" fill="white"/>
<path d="M188.118 29.8077C186.539 29.8077 185.417 29.4298 184.758 28.6717C184.097 27.9135 183.767 26.7678 183.767 25.2296V16.9841C183.767 16.8533 183.702 16.7904 183.574 16.7904H182.535C182.319 16.7904 182.21 16.6814 182.21 16.4658V14.2906C182.21 14.075 182.319 13.966 182.535 13.966H183.574C183.705 13.966 183.767 13.9006 183.767 13.7722V9.48718C183.767 9.2716 183.876 9.1626 184.092 9.1626H187.079C187.294 9.1626 187.403 9.2716 187.403 9.48718V13.7722C187.403 13.903 187.469 13.966 187.597 13.966H189.675C189.891 13.966 190 14.075 190 14.2906V16.4658C190 16.6814 189.891 16.7904 189.675 16.7904H187.597C187.466 16.7904 187.403 16.8558 187.403 16.9841V25.0988C187.403 25.6608 187.522 26.0459 187.759 26.2518C187.997 26.4577 188.365 26.5594 188.864 26.5594H189.675C189.891 26.5594 190 26.6684 190 26.884V29.4807C190 29.6963 189.891 29.8053 189.675 29.8053H188.118V29.8077Z" fill="white"/>
<path d="M32.312 37.5241L19.6287 15.557H16.8204L29.5023 37.5241H32.312Z" fill="white"/>
<path d="M53.9584 0H51.1578L32.3167 32.6344L33.717 35.0595L53.9584 0Z" fill="white"/>
<path d="M30.9087 30.223L48.3571 0H45.5565L29.5084 27.7979L30.9087 30.223Z" fill="white"/>
<path d="M28.1081 25.3728L42.7558 0H39.9567L26.7078 22.9478L28.1081 25.3728Z" fill="#2FBC7A"/>
<path d="M25.3074 20.5227L37.1561 0H34.3555L23.9071 18.0976L25.3074 20.5227Z" fill="#2FBC7A"/>
<path d="M26.729 37.5241L14.0456 15.557H11.2374L23.9193 37.5241H26.729Z" fill="white"/>
<path d="M21.1096 37.5241L8.42778 15.557H5.61804L18.3014 37.5241H21.1096Z" fill="#2FBC7A"/>
<path d="M15.4916 37.5241L2.80823 15.557H0L12.6819 37.5241H15.4916Z" fill="#2FBC7A"/>
</svg>
