<svg width="752" height="376" viewBox="0 0 752 376" fill="none" xmlns="http://www.w3.org/2000/svg">
<path d="M446.6 23.2988H456.6V13.2988H446.6V23.2988Z" fill="#708187"/>
<path d="M461.7 23.2988H471.7V13.2988H461.7V23.2988Z" fill="#708187"/>
<path d="M622.2 123.699H632.2V113.699H622.2V123.699Z" fill="#708187"/>
<path d="M602.1 123.699H612.1V113.699H602.1V123.699Z" fill="#708187"/>
<path d="M721.1 104.299C723.1 103.399 724.9 101.899 726.1 100.099C727.4 98.0988 728.4 95.7988 728.8 93.3988C729.4 90.4988 729.6 87.4988 729.6 84.4988V25.7988H721.1V84.4988C721.1 86.4988 721 88.4988 720.7 90.4988C720.5 91.8988 720.1 93.1988 719.4 94.4988C718.8 95.4988 718 96.1988 717 96.6988C715.7 97.1988 714.4 97.3988 713 97.3988C712.3 97.3988 711.7 97.3988 711 97.2988C710.2 97.1988 709.4 96.9988 708.7 96.7988L706.5 104.899C708.7 105.499 711 105.799 713.4 105.799C716.1 105.899 718.7 105.399 721.1 104.299Z" fill="#708187"/>
<mask id="mask0_9040_11334" style="mask-type:luminance" maskUnits="userSpaceOnUse" x="673" y="0" width="20" height="18">
<path d="M692.114 0H673.614V17.4H692.114V0Z" fill="white"/>
</mask>
<g mask="url(#mask0_9040_11334)">
<path d="M692.114 10.9001H680.514V9.00008C680.414 8.10008 680.714 7.30008 681.214 6.50008C681.914 5.90008 682.914 5.60008 683.814 5.80008H689.614V8.11331e-05H683.614C680.914 -0.199919 678.214 0.700081 676.114 2.50008C674.214 4.70008 673.314 7.60009 673.514 10.6001V17.5001H692.014V10.9001H692.114Z" fill="#708187"/>
</g>
<path d="M668.5 105.799C666 105.799 663.4 105.499 661 104.899C658.1 104.199 655.2 103.299 652.4 102.199L655 94.099C657.3 95.199 659.7 95.999 662.1 96.599C664.4 97.099 666.8 97.399 669.1 97.299C672.9 97.499 676.6 96.499 679.8 94.499C682.5 92.199 683.9 88.599 683.6 85.099V76.799L680.8 82.699H678.5C674 82.699 669.5 82.199 665.1 81.099C661.1 80.099 657.3 78.399 654 76.099C650.8 73.799 648.2 70.899 646.4 67.399C644.4 63.399 643.5 59.099 643.6 54.699C643.6 50.699 644.4 46.799 646.1 43.199C647.8 39.699 650.2 36.599 653.3 34.099C656.6 31.399 660.3 29.399 664.3 28.099C668.9 26.599 673.7 25.799 678.6 25.899H692.1V84.399C692.4 90.199 690.4 95.799 686.5 100.099C681.5 104.299 675.1 106.399 668.5 105.799ZM674.8 34.299C672 34.299 669.2 34.799 666.5 35.799C663.8 36.699 661.3 38.099 659.2 39.899C657.1 41.699 655.3 43.899 654 46.399C652.7 48.999 652 51.799 652 54.699C651.9 57.599 652.6 60.499 653.8 63.099C655 65.499 656.7 67.599 658.8 69.299C661 70.999 663.5 72.299 666.1 73.099C669 73.999 672 74.399 675 74.399H683.6V36.699L688.4 34.299H674.8Z" fill="#708187"/>
<path d="M629.8 104.9H475.8C473.2 105 470.6 104.5 468.1 103.4C466.1 102.5 464.3 101 463.1 99.1996C463 98.9996 462.8 98.7996 462.7 98.4996L462.6 98.2996V104.6H445C434.4 104.8 424.1 100.5 416.7 92.8997C409.7 85.4996 405.8 75.5997 405.9 65.3997V65.1996C405.8 54.8996 409.7 45.0997 416.8 37.5997C424.2 29.8997 434.5 25.5996 445.2 25.7996H468V83.6996C468 85.6996 468.1 87.6996 468.4 89.6996C468.6 91.0996 469 92.3996 469.7 93.6996C470.3 94.6996 471.1 95.3997 472.1 95.8997C473.4 96.3997 474.7 96.5996 476.1 96.5996H621.4V25.7996H629.9L629.8 104.9ZM445 33.7996C428.4 33.7996 415 47.0996 414.9 63.6996C414.9 64.0996 414.9 64.5996 414.9 64.9996V65.1996C414.4 82.0996 427.7 96.1996 444.5 96.6996C444.7 96.6996 444.9 96.6996 445.1 96.6996H461.6C461 95.3996 460.6 93.9996 460.3 92.4996C459.7 89.5996 459.5 86.5997 459.5 83.5997V36.2996L464.7 33.6996L445 33.7996Z" fill="#708187"/>
<path d="M363.7 83.7992L367.4 93.4992L313.7 25.6992H305.3V104.499H314V45.0992L309 33.5992L365.2 104.399H372.3V25.6992H363.6V83.7992H363.7Z" fill="#708187"/>
<path d="M484 230.299L532.7 184.099V152.399H402.6V188.499H469.3L494.1 172.699L432.3 234.399L438.9 261.199H456.5C480.2 261.199 494.2 269.899 494.2 285.499V285.999C494.2 300.199 482.9 309.199 467 309.199C447.5 309.199 433.7 300.999 420.5 286.299L391.3 313.899C407.8 333.299 431.8 346.999 466.4 346.999C509.3 346.999 535.8 320.499 535.8 284.399V283.899C535.8 248.299 510.2 234.699 484 230.299Z" fill="#708187"/>
<path d="M250.1 105.799C239.1 105.999 228.5 101.599 220.9 93.6991C213.7 85.9991 209.7 75.7991 209.8 65.2991V65.0991C209.7 54.4991 213.7 44.2991 221 36.5991C228.7 28.6991 239.3 24.1991 250.3 24.3991C261.3 24.1991 271.9 28.5991 279.5 36.4991C286.7 44.1991 290.7 54.2991 290.6 64.8991V65.0991C290.7 75.6991 286.7 85.8991 279.4 93.5991C271.8 101.499 261.2 105.999 250.1 105.799ZM250.1 32.5991C233 32.4991 219.1 46.3991 219 63.4991C219 63.9991 219 64.3991 219 64.8991V65.0991C218.5 82.4991 232.2 97.0991 249.6 97.5991C249.8 97.5991 250 97.5991 250.3 97.5991C267.4 97.5991 281.3 83.7991 281.4 66.6991C281.4 66.1991 281.4 65.7991 281.4 65.2991V65.0991C281.9 47.6991 268.2 33.0991 250.8 32.5991C250.6 32.5991 250.4 32.5991 250.1 32.5991Z" fill="#708187"/>
<path d="M648.8 346.999C621.5 347.399 595.2 337.099 575.5 318.199C556.9 299.899 546.5 274.799 546.7 248.599V247.999C546.5 221.799 557 196.599 575.7 178.199C595.4 159.199 621.9 148.699 649.3 149.099C676.6 148.699 702.9 158.999 722.6 177.899C741.2 196.199 751.6 221.299 751.4 247.399V247.899C751.6 274.099 741.1 299.299 722.4 317.699C702.7 336.899 676.2 347.399 648.8 346.999ZM648.8 187.999C615.9 187.999 591 213.599 591 247.599V248.099C590.2 280.499 615.7 307.399 648.1 308.199C648.5 308.199 648.9 308.199 649.3 308.199C682.2 308.199 707.1 282.599 707.1 248.599V247.999C707.9 215.599 682.4 188.699 650 187.899C649.6 187.999 649.2 187.999 648.8 187.999Z" fill="#708187"/>
<path d="M185.4 104.499H194.4V25.6992H185.4V104.499Z" fill="#708187"/>
<path d="M41.6 321.799L49.8 315.499L91.9 283.199C126 256.999 142.5 241.099 142.5 209.199V208.699C142.5 172.899 116.1 149.699 76.2 149.699C41.8 149.699 23.4 163.599 4.4 189.299L34.1 213.099C48.4 195.599 58.6 187.399 73.5 187.399C88.6 187.399 99.4 196.099 99.4 212.299C99.4 228.099 90 238.499 66.1 258.199L2 310.399V343.699H144.4V307.399H70.9L41.6 321.799Z" fill="#708187"/>
<path d="M42.1 104.999L76.2 25.6992H66.6L39.6 90.2992L40.5 98.9992L38.3 93.5992L14.9 37.3992L10 25.6992H0L34.1 104.999H42.1Z" fill="#708187"/>
<path d="M88.4004 104.499H97.4004V25.6992H88.4004V104.499Z" fill="#708187"/>
<path d="M144.8 60.7998C127.3 57.0998 123.3 52.8998 123.3 45.4998V45.2998C123.3 38.1998 129.9 32.5998 140.2 32.5998C148.6 32.5998 156.7 35.5998 163.1 41.0998L168.3 34.2998C160.5 27.7998 150.6 24.2998 140.4 24.5998C125.3 24.5998 114.3 33.6998 114.3 46.0998V46.2998C114.3 59.1998 122.7 65.0998 140.9 68.9998C157.6 72.4998 161.5 76.6998 161.5 83.9998V84.1998C161.5 91.9998 154.5 97.5998 143.8 97.5998C133.6 97.6998 123.8 93.6998 116.6 86.4998L111.1 92.9998C119.9 101.2 131.5 105.7 143.5 105.6C159.3 105.6 170.6 96.7998 170.6 83.2998V83.0998C170.6 71.0998 162.5 64.5998 144.8 60.7998Z" fill="#708187"/>
<path d="M259.6 136.6L269.4 145.9L260 155.6L250.2 146.3L259.6 136.6Z" fill="#273777"/>
<path d="M281.9 146.3L291.7 155.6L301.1 145.9L291.3 136.6L281.9 146.3Z" fill="#A9AAAC"/>
<path d="M268.1 158.5L275.7 165.7L283 158.2L275.4 151L268.1 158.5Z" fill="#CCD433"/>
<path d="M296 162.6L303.6 169.9L310.9 162.4L303.3 155.1L296 162.6Z" fill="#71B545"/>
<path d="M255.7 170L263.3 177.3L270.6 169.8L263 162.5L255.7 170Z" fill="#CCD433"/>
<path d="M281.2 170.899L288.8 178.199L296.1 170.699L288.5 163.399L281.2 170.899Z" fill="#26B3BA"/>
<path d="M271.2 179.6L276.5 184.7L281.6 179.4L276.3 174.3L271.2 179.6Z" fill="#71B545"/>
<path d="M291.4 183.6L296.7 188.7L301.8 183.4L296.5 178.3L291.4 183.6Z" fill="#59B15A"/>
<path d="M335.4 143.199L338.4 159.699L355 156.699L352 140.199L335.4 143.199Z" fill="#2785C6"/>
<path d="M313.8 150.099L316.2 163.299L329.5 160.899L327.1 147.699L313.8 150.099Z" fill="#1D3A6C"/>
<path d="M339.5 168.5L341.9 181.7L355.2 179.3L352.8 166.1L339.5 168.5Z" fill="#26B3BA"/>
<path d="M321.2 170.4L323.1 180.7L333.5 178.8L331.6 168.5L321.2 170.4Z" fill="#CCD433"/>
<path d="M341.3 190L343.2 200.3L353.6 198.4L351.7 188.1L341.3 190Z" fill="#A9AAAC"/>
<path d="M305.6 174.599L307.5 184.899L317.9 182.999L316 172.699L305.6 174.599Z" fill="#26B3BA"/>
<path d="M324.4 188.099L326.3 198.399L336.7 196.499L334.8 186.199L324.4 188.099Z" fill="#71B545"/>
<path d="M311.2 189.3L312.5 196.5L319.8 195.2L318.5 188L311.2 189.3Z" fill="#A9AAAC"/>
<path d="M325.2 204.3L326.5 211.5L333.8 210.2L332.5 203L325.2 204.3Z" fill="#59B15A"/>
<path d="M384.7 197.1L377.5 212.2L392.7 219.4L399.9 204.3L384.7 197.1Z" fill="#273777"/>
<path d="M363.1 190.1L357.3 202.2L369.5 208L375.3 195.9L363.1 190.1Z" fill="#26B3BA"/>
<path d="M373.1 220L367.3 232.1L379.5 237.9L385.3 225.8L373.1 220Z" fill="#71B545"/>
<path d="M357.1 210.899L352.6 220.299L362.1 224.799L366.6 215.399L357.1 210.899Z" fill="#CCD433"/>
<path d="M361.9 238.399L357.4 247.799L366.9 252.299L371.4 242.899L361.9 238.399Z" fill="#CCD433"/>
<path d="M342 205.3L337.5 214.7L347 219.2L351.5 209.8L342 205.3Z" fill="#2785C6"/>
<path d="M349.4 227.1L344.9 236.5L354.4 241L358.9 231.6L349.4 227.1Z" fill="#A9AAAC"/>
<path d="M337.9 220.5L334.7 227.1L341.4 230.3L344.6 223.7L337.9 220.5Z" fill="#71B545"/>
<path d="M340.5 240.699L337.3 247.299L344 250.499L347.2 243.899L340.5 240.699Z" fill="#26B3BA"/>
<path d="M392.9 269.5L378.1 277.5L386.2 292.2L401 284.2L392.9 269.5Z" fill="#2785C6"/>
<path d="M379.5 251.3L367.6 257.8L374.1 269.6L385.9 263.1L379.5 251.3Z" fill="#26B3BA"/>
<path d="M370 281.3L358.1 287.8L364.6 299.6L376.4 293.1L370 281.3Z" fill="#26B3BA"/>
<path d="M362.4 264.6L353.2 269.6L358.3 278.8L367.5 273.8L362.4 264.6Z" fill="#273777"/>
<path d="M350.1 289.699L340.9 294.699L346 303.899L355.2 298.899L350.1 289.699Z" fill="#59B15A"/>
<path d="M353.5 251.3L344.3 256.3L349.4 265.5L358.6 260.5L353.5 251.3Z" fill="#1D3A6C"/>
<path d="M346.6 273.3L337.4 278.3L342.5 287.5L351.7 282.5L346.6 273.3Z" fill="#CCD433"/>
<path d="M341.2 261.199L334.7 264.699L338.3 271.199L344.8 267.699L341.2 261.199Z" fill="#A9AAAC"/>
<path d="M331.3 279.1L324.8 282.6L328.4 289L334.9 285.5L331.3 279.1Z" fill="#26B3BA"/>
<path d="M356.9 332.9L340.2 330.8L338.1 347.4L354.8 349.5L356.9 332.9Z" fill="#71B545"/>
<path d="M356.8 310.399L343.4 308.699L341.7 321.999L355.1 323.699L356.8 310.399Z" fill="#1D3A6C"/>
<path d="M331.4 329.2L318 327.5L316.3 340.8L329.7 342.5L331.4 329.2Z" fill="#26B3BA"/>
<path d="M335 311.199L324.6 309.899L323.3 320.299L333.7 321.599L335 311.199Z" fill="#71B545"/>
<path d="M310.2 324.499L299.8 323.199L298.5 333.599L308.9 334.799L310.2 324.499Z" fill="#A9AAAC"/>
<path d="M335.7 295.3L325.2 294L323.9 304.4L334.3 305.7L335.7 295.3Z" fill="#A9AAAC"/>
<path d="M317.1 309.1L306.6 307.8L305.3 318.2L315.7 319.5L317.1 309.1Z" fill="#71B545"/>
<path d="M319.9 296.2L312.6 295.3L311.7 302.6L319 303.5L319.9 296.2Z" fill="#A9AAAC"/>
<path d="M301.3 305L294 304.1L293.1 311.4L300.4 312.3L301.3 305Z" fill="#A9AAAC"/>
<path d="M290.3 363.4L277.9 352L266.4 364.3L278.8 375.7L290.3 363.4Z" fill="#CCD433"/>
<path d="M288.1 129.099L275.7 117.699L264.2 129.999L276.6 141.399L288.1 129.099Z" fill="#71B545"/>
<path d="M303.5 345.1L293.6 336L284.4 345.8L294.3 354.9L303.5 345.1Z" fill="#26B3BA"/>
<path d="M271.8 345.6L261.9 336.5L252.7 346.3L262.6 355.4L271.8 345.6Z" fill="#71B545"/>
<path d="M285.4 333.2L277.7 326.1L270.5 333.8L278.2 340.9L285.4 333.2Z" fill="#2785C6"/>
<path d="M257.5 329.499L249.8 322.399L242.6 330.099L250.3 337.199L257.5 329.499Z" fill="#CCD433"/>
<path d="M295.3 320.6L287.6 313.5L280.4 321.2L288.1 328.3L295.3 320.6Z" fill="#CCD433"/>
<path d="M272.1 320.999L264.4 313.899L257.2 321.599L264.9 328.699L272.1 320.999Z" fill="#A9AAAC"/>
<path d="M281.9 312.199L276.5 307.199L271.5 312.599L276.9 317.599L281.9 312.199Z" fill="#1D3A6C"/>
<path d="M261.7 308.5L256.3 303.5L251.3 308.9L256.7 313.9L261.7 308.5Z" fill="#A9AAAC"/>
<path d="M218.4 349.5L215.1 333.1L198.6 336.4L201.9 352.8L218.4 349.5Z" fill="#2785C6"/>
<path d="M239.9 342.3L237.2 329.1L223.9 331.7L226.6 344.9L239.9 342.3Z" fill="#26B3BA"/>
<path d="M213.9 324.3L211.2 311.1L197.9 313.7L200.6 326.9L213.9 324.3Z" fill="#71B545"/>
<path d="M232.2 322.099L230.1 311.899L219.8 313.899L221.9 324.099L232.2 322.099Z" fill="#CCD433"/>
<path d="M247.6 317.7L245.5 307.5L235.2 309.5L237.3 319.8L247.6 317.7Z" fill="#273777"/>
<path d="M228.6 304.5L226.5 294.3L216.2 296.4L218.3 306.6L228.6 304.5Z" fill="#2785C6"/>
<path d="M241.8 303L240.4 295.8L233.1 297.2L234.5 304.4L241.8 303Z" fill="#71B545"/>
<path d="M227.5 288.3L226.1 281.1L218.8 282.5L220.2 289.7L227.5 288.3Z" fill="#A9AAAC"/>
<path d="M168.2 296.4L175.2 281.2L159.9 274.3L152.9 289.5L168.2 296.4Z" fill="#26B3BA"/>
<path d="M189.9 303.1L195.5 290.9L183.2 285.3L177.6 297.5L189.9 303.1Z" fill="#CCD433"/>
<path d="M179.4 273.4L185 261.2L172.7 255.6L167.1 267.8L179.4 273.4Z" fill="#2785C6"/>
<path d="M195.6 282.199L200 272.699L190.4 268.399L186 277.899L195.6 282.199Z" fill="#26B3BA"/>
<path d="M208.4 305.999L212.8 296.499L203.2 292.199L198.8 301.699L208.4 305.999Z" fill="#A9AAAC"/>
<path d="M190.3 254.8L194.7 245.3L185.1 241L180.7 250.5L190.3 254.8Z" fill="#273777"/>
<path d="M210.7 287.6L215.1 278.1L205.5 273.8L201.1 283.3L210.7 287.6Z" fill="#59B15A"/>
<path d="M203 265.9L207.4 256.4L197.8 252.1L193.4 261.6L203 265.9Z" fill="#CCD433"/>
<path d="M214.6 272.3L217.7 265.6L211 262.5L207.9 269.2L214.6 272.3Z" fill="#1D3A6C"/>
<path d="M211.7 252.1L214.8 245.4L208.1 242.3L205 249L211.7 252.1Z" fill="#71B545"/>
<path d="M158.8 224.199L173.4 215.899L165 201.399L150.4 209.699L158.8 224.199Z" fill="#26B3BA"/>
<path d="M172.5 242.199L184.2 235.599L177.5 223.899L165.8 230.599L172.5 242.199Z" fill="#71B545"/>
<path d="M181.5 212.1L193.2 205.5L186.5 193.8L174.8 200.5L181.5 212.1Z" fill="#1D3A6C"/>
<path d="M189.4 228.6L198.5 223.4L193.3 214.3L184.2 219.5L189.4 228.6Z" fill="#2785C6"/>
<path d="M201.3 203.3L210.4 198.1L205.2 189L196.1 194.2L201.3 203.3Z" fill="#71B545"/>
<path d="M198.5 241.8L207.6 236.6L202.4 227.5L193.3 232.7L198.5 241.8Z" fill="#26B3BA"/>
<path d="M205.1 219.699L214.2 214.499L209 205.399L199.9 210.599L205.1 219.699Z" fill="#CCD433"/>
<path d="M210.6 231.6L217 228L213.3 221.6L206.9 225.2L210.6 231.6Z" fill="#A9AAAC"/>
<path d="M220.2 213.6L226.6 210L222.9 203.6L216.5 207.2L220.2 213.6Z" fill="#71B545"/>
<path d="M193.7 160.2L210.5 162L212.3 145.4L195.5 143.6L193.7 160.2Z" fill="#71B545"/>
<path d="M194.2 182.8L207.6 184.2L209 170.9L195.6 169.5L194.2 182.8Z" fill="#A9AAAC"/>
<path d="M219.3 163.499L232.7 164.899L234.1 151.599L220.7 150.199L219.3 163.499Z" fill="#26B3BA"/>
<path d="M215.9 181.5L226.4 182.6L227.5 172.2L217 171.1L215.9 181.5Z" fill="#CCD433"/>
<path d="M240.5 167.9L251 169L252.1 158.6L241.6 157.5L240.5 167.9Z" fill="#2785C6"/>
<path d="M215.6 197.5L226.1 198.6L227.2 188.2L216.7 187.1L215.6 197.5Z" fill="#26B3BA"/>
<path d="M233.9 183.4L244.4 184.5L245.5 174.1L235 173L233.9 183.4Z" fill="#71B545"/>
<path d="M231.4 196.3L238.8 197.1L239.6 189.8L232.2 189L231.4 196.3Z" fill="#1D3A6C"/>
<path d="M249.8 187.199L257.2 187.999L258 180.699L250.6 179.899L249.8 187.199Z" fill="#A9AAAC"/>
<path d="M329.3 256.999C327.2 255.799 324.9 254.799 322.6 254.099C316.7 252.199 310.4 251.799 304.2 252.799C301.5 253.199 298.8 253.899 296.2 254.799L295.4 255.099C294 255.599 292.6 256.299 291.2 256.999C290 257.599 288.8 258.299 287.6 258.999C284.8 260.699 282.1 262.499 279.6 264.499C277.5 250.399 277.3 236.099 278.8 221.999C278.8 221.999 278.8 221.899 278.9 221.899C285.3 225.899 283.5 236.999 282.1 240.199C282.1 240.299 282.2 240.299 282.2 240.299C287.6 234.099 288.5 225.299 284.6 218.099C284.6 217.999 284.6 217.999 284.7 217.999C285.8 218.899 286.7 219.799 287.6 220.899C289.7 223.599 291 226.899 291.2 230.299C291.3 231.699 291.3 233.099 291.2 234.599C291.2 234.899 291.1 235.199 291.1 235.499C291.1 235.599 291.1 235.599 291.2 235.599C293.9 230.399 293.9 224.199 291.2 218.999C290.2 217.199 289 215.599 287.6 214.099C287.2 213.599 286.7 213.199 286.2 212.699C286.2 212.699 286.2 212.699 286.2 212.599C286.2 212.499 286.2 212.599 286.3 212.599C286.8 212.699 287.2 212.799 287.7 212.999C289 213.399 290.2 214.099 291.3 214.899C293.6 216.599 295.3 218.899 296.3 221.599C297.1 223.599 297.5 225.599 297.5 227.699C297.5 227.699 297.5 227.799 297.6 227.799C297.7 227.799 297.7 227.799 297.7 227.699C299.1 223.499 298.6 218.999 296.4 215.199C295.1 213.199 293.4 211.599 291.4 210.399C290.3 209.699 289.1 209.199 287.8 208.799C287.2 208.599 286.7 208.499 286.1 208.399C286 208.399 286 208.299 286.1 208.299C286.7 208.199 287.3 208.199 287.8 208.199C289 208.199 290.2 208.299 291.4 208.499C293.2 208.799 294.9 209.499 296.4 210.499C297.8 211.399 298.9 212.599 299.8 214.099C299.8 214.199 299.9 214.099 299.9 214.099C299.7 211.499 298.4 209.099 296.4 207.399C294.9 206.199 293.2 205.299 291.4 204.799C290.2 204.499 289 204.299 287.8 204.299C286.3 204.299 284.7 204.499 283.3 205.099C283.2 205.099 283.2 205.099 283.2 204.999C284.3 203.399 285.9 202.299 287.8 201.799C289 201.399 290.2 201.299 291.4 201.399C292.4 201.399 293.4 201.699 294.3 202.099H294.4V201.999C293.5 200.999 292.5 200.199 291.4 199.599C290.3 198.999 289.1 198.599 287.8 198.399C284.3 197.999 281 199.699 279.2 202.699H279.1C278.7 201.999 278.3 201.099 277.9 200.299C277 198.199 276.3 195.999 275.9 193.799C275.9 193.799 275.9 193.699 275.8 193.699C275.8 193.699 275.7 193.699 275.7 193.799C275.3 195.999 274.6 198.199 273.7 200.299C273.3 201.099 273 201.899 272.5 202.699H272.4C269.7 198.399 263.9 197.099 259.6 199.799C258.7 200.399 257.8 201.199 257.2 201.999V202.099H257.3C261.2 200.499 265.8 201.699 268.4 204.999V205.099H268.3C263.3 203.299 257.7 204.699 254.1 208.599C252.8 210.199 251.9 212.099 251.7 214.099C251.7 214.199 251.8 214.199 251.8 214.099C252.4 213.099 253.1 212.199 254 211.399C257.2 208.799 261.4 207.699 265.5 208.299C265.6 208.299 265.6 208.399 265.5 208.399C260.4 209.299 256 212.699 254 217.499C252.9 220.799 252.8 224.399 253.9 227.699C253.9 227.699 253.9 227.799 254 227.799C254.1 227.799 254.1 227.799 254.1 227.699C254.1 227.599 254.1 227.499 254.1 227.399C254 220.499 258.6 214.299 265.3 212.499C265.3 212.499 265.4 212.499 265.4 212.599C265.4 212.599 265.4 212.599 265.4 212.699C258.5 218.099 256.3 227.699 260.3 235.499C260.3 235.499 260.3 235.499 260.4 235.499C260.4 235.499 260.4 235.499 260.4 235.399C259.2 228.799 261.7 222.099 266.8 217.799C266.9 217.799 266.9 217.799 266.9 217.899C263 225.099 264 233.899 269.3 240.099C269.3 240.199 269.4 240.099 269.4 239.999C268.1 236.799 266.3 225.699 272.6 221.699H272.7C274.2 235.899 273.9 250.099 271.9 264.199C267.1 260.399 261.8 257.199 256.1 254.899C255.4 254.699 254.8 254.399 254.2 254.199C249.4 252.599 244.3 251.899 239.3 252.099C233.9 252.299 228.7 253.599 223.9 255.999C223.3 256.299 222.8 256.599 222.4 256.799C222.3 256.899 222.3 256.899 222.4 256.999C222.4 256.999 222.5 257.099 222.6 257.099C223.1 256.999 223.5 256.799 224 256.699C229 255.299 234.2 254.799 239.4 255.199C244.6 255.699 249.6 256.999 254.3 259.199C260.7 262.199 266.7 266.099 272.1 270.699C266.5 276.099 260.5 281.099 254.3 285.799C254.1 285.899 253.9 285.999 253.7 286.099C252.3 284.199 249.7 283.799 247.9 285.199C247.1 285.799 246.5 286.599 246.3 287.599C246 288.899 246.3 290.199 247.1 291.199C249 293.099 251.9 293.499 254.3 292.199C259.5 289.999 266 283.199 274 275.899C274.7 275.299 275.3 274.699 276 274.099C276.7 274.699 277.3 275.299 278 275.899C281.6 279.199 284.9 282.399 287.9 285.099C289.1 286.199 290.3 287.299 291.5 288.199C293.1 289.499 294.7 290.699 296.5 291.699C298.9 293.499 302.2 293.399 304.5 291.499C304.6 291.399 304.7 291.299 304.9 291.199C305.7 290.199 305.9 288.899 305.7 287.599C305.5 286.799 305.1 286.099 304.5 285.599C304 285.099 303.3 284.699 302.6 284.499C301 284.099 299.3 284.799 298.3 286.099C297.7 285.799 297.1 285.399 296.6 284.999C294.9 283.799 293.2 282.399 291.6 280.999C290.5 279.999 289.3 278.899 288 277.799C285.5 275.599 282.8 273.099 280 270.599C282.6 268.499 285.3 266.399 288 264.599C289.2 263.799 290.4 263.099 291.6 262.299C293.2 261.299 294.9 260.499 296.6 259.599C299.2 258.399 301.8 257.399 304.6 256.599C310.6 254.899 316.8 254.499 323 255.499C325.2 255.899 327.4 256.399 329.6 256.999C329.7 256.999 329.8 256.999 329.8 256.899C329.4 257.099 329.4 256.999 329.3 256.999Z" fill="#6F777E"/>
</svg>
