<svg width="64" height="64" viewBox="0 0 64 64" fill="none" xmlns="http://www.w3.org/2000/svg">
<g clip-path="url(#clip0_1564_9297)">
<path d="M54.144 20.076L51.1391 16.4305C50.7265 15.93 50.4755 15.3245 50.414 14.6795L49.9609 9.97688C49.7255 7.53354 47.7812 5.58921 45.3379 5.35386L40.6352 4.90122C39.9902 4.83921 39.3848 4.58824 38.8843 4.17613L35.2388 1.17077C33.3447 -0.390257 30.5952 -0.390257 28.7012 1.17077L25.0557 4.17613C24.5557 4.58824 23.9502 4.83921 23.3047 4.90122L18.6021 5.35386C16.1588 5.58921 14.2149 7.53354 13.9791 9.97688L13.5265 14.6795C13.4645 15.3245 13.2135 15.93 12.8014 16.4305L9.79602 20.076C8.23499 21.97 8.23499 24.7195 9.79602 26.6135L12.8014 30.259C13.2135 30.7595 13.4645 31.365 13.5265 32.01L13.9791 36.7126C14.2145 39.156 16.1588 41.0998 18.6021 41.3356L21.4766 41.6125L14.6471 57.9322C14.462 58.3766 14.5455 58.8766 14.8653 59.2369C15.1852 59.5968 15.671 59.7394 16.1329 59.608L22.0582 57.9352C22.084 57.9278 22.1089 57.9391 22.1207 57.9601L25.0879 63.3556C25.3086 63.7574 25.7212 63.9996 26.1753 63.9996C26.1968 63.9996 26.2183 63.9991 26.2403 63.9981C26.7203 63.9737 27.1353 63.6837 27.3252 63.2364L34.5357 46.005C34.7803 45.8644 35.0156 45.7028 35.2393 45.5187L38.8848 42.5139C39.3462 42.133 39.8984 41.8923 40.4878 41.8083L47.0185 57.4132L42.3969 56.1085C41.518 55.861 40.5976 56.2462 40.1567 57.0455L37.8428 61.253L34.7769 53.9264C34.5742 53.4425 34.0186 53.215 33.5347 53.4171C33.0513 53.6193 32.8233 54.1754 33.0259 54.6588L36.6172 63.2413C36.8052 63.6837 37.2197 63.9737 37.7002 63.9981C37.7222 63.9991 37.7436 64.0001 37.7651 64.0001C38.2192 64.0001 38.6318 63.7574 38.8525 63.3556L41.8193 57.961C41.8315 57.9391 41.8569 57.9288 41.8818 57.9352L47.8061 59.608C48.269 59.7389 48.7553 59.5968 49.0746 59.2369C49.3945 58.8766 49.478 58.3771 49.2924 57.9313L42.4634 41.612L45.3379 41.3351C47.7812 41.0998 49.7255 39.156 49.9609 36.7126L50.414 32.0095C50.4755 31.3645 50.7265 30.7595 51.1391 30.259L54.144 26.6135C55.7055 24.7195 55.7055 21.97 54.144 20.076ZM26.0977 61.253L23.7833 57.0445C23.3428 56.2457 22.4214 55.8605 21.543 56.1085L16.922 57.4127L23.4522 41.8083C24.042 41.8923 24.5943 42.133 25.0557 42.5134L28.7012 45.5187C29.6485 46.2995 30.8091 46.6896 31.9702 46.6896C32.0449 46.6896 32.1192 46.6877 32.1939 46.6842L26.0977 61.253ZM52.6796 25.4065L49.6747 29.052C49.0205 29.845 48.623 30.8049 48.5244 31.8279L48.0717 36.5305C47.9233 38.0715 46.6972 39.2976 45.1562 39.446L41.0254 39.8439C41.0093 39.8449 40.9927 39.8464 40.9765 39.8488L40.4536 39.8991C39.4302 39.9977 38.4702 40.3952 37.6772 41.049L34.0317 44.0539C32.8374 45.0387 31.1031 45.0387 29.9087 44.0539L26.2632 41.049C25.4703 40.3952 24.5103 39.9973 23.4869 39.8991L22.9615 39.8483C22.9468 39.8464 22.9327 39.8454 22.918 39.8444L18.7843 39.446C17.2432 39.2976 16.0172 38.0715 15.8687 36.5305L15.4161 31.8284C15.3175 30.8049 14.92 29.845 14.2657 29.052L11.2609 25.4065C10.276 24.2117 10.276 22.4773 11.2609 21.283L14.2657 17.6375C14.92 16.8445 15.3175 15.8846 15.4161 14.8611L15.8687 10.1585C16.0172 8.61752 17.2432 7.39145 18.7843 7.24301L23.4869 6.79038C24.5103 6.69174 25.4703 6.29428 26.2632 5.64048L29.9087 2.63561C30.5059 2.14342 31.2383 1.89684 31.9702 1.89684C32.7022 1.89684 33.4346 2.14293 34.0317 2.63561L37.6772 5.64048C38.4702 6.29428 39.4302 6.69223 40.4536 6.79038L45.1562 7.24301C46.6972 7.39145 47.9233 8.61752 48.0717 10.1585L48.5244 14.8611C48.623 15.8846 49.0205 16.8445 49.6747 17.6375L52.6796 21.283C53.664 22.4778 53.664 24.2117 52.6796 25.4065Z" fill="#0A3D5E"/>
<path d="M31.9703 8.51953C31.3365 8.51953 30.6988 8.55957 30.0738 8.63965C29.5543 8.70605 29.1866 9.18164 29.253 9.70117C29.3194 10.2212 29.7955 10.5884 30.3145 10.5225C30.8594 10.4526 31.4166 10.4175 31.9703 10.4175C39.0987 10.4175 44.898 16.2168 44.898 23.3451C44.898 30.4735 39.0982 36.2723 31.9703 36.2723C24.8419 36.2723 19.0426 30.473 19.0426 23.3447C19.0426 18.2602 22.0406 13.6289 26.6803 11.5454C27.1583 11.331 27.3721 10.769 27.1573 10.291C26.9425 9.81249 26.3805 9.59912 25.9029 9.81396C20.5821 12.2031 17.1447 17.5141 17.1447 23.3447C17.1447 31.5199 23.7955 38.1703 31.9703 38.1703C40.145 38.1703 46.7959 31.5199 46.7959 23.3447C46.7959 15.1699 40.145 8.51953 31.9703 8.51953Z" fill="#2FBC7A"/>
<path d="M22.5449 22.2455C21.4136 23.3768 21.4136 25.2181 22.5449 26.3494L26.6899 30.4949C27.2383 31.0428 27.9668 31.3445 28.7422 31.3445C29.5171 31.3445 30.2461 31.0428 30.7944 30.4949L39.8427 21.4461C40.974 20.3143 40.974 18.4735 39.8427 17.3417C38.7114 16.2103 36.8701 16.2103 35.7382 17.3417L28.7422 24.3382L26.6489 22.2455C25.5176 21.1141 23.6763 21.1141 22.5449 22.2455ZM28.7422 26.6297C28.9936 26.6297 29.2348 26.5296 29.4131 26.3514L37.0805 18.684C37.4721 18.2924 38.1088 18.2928 38.5004 18.684C38.892 19.0756 38.892 19.7128 38.5004 20.1039L29.4521 29.1527C29.2627 29.3421 29.0102 29.4466 28.7422 29.4466C28.4736 29.4466 28.2217 29.3421 28.0322 29.1527L23.8867 25.0077C23.4956 24.6161 23.4956 23.9788 23.8867 23.5877C24.0825 23.3919 24.3398 23.2938 24.5972 23.2938C24.854 23.2938 25.1113 23.3919 25.3066 23.5872L28.0708 26.3514C28.249 26.5296 28.4902 26.6297 28.7422 26.6297Z" fill="#2FBC7A"/>
</g>
<defs>
<clipPath id="clip0_1564_9297">
<rect width="64" height="64" fill="white"/>
</clipPath>
</defs>
</svg>
