<svg width="64" height="64" viewBox="0 0 64 64" fill="none" xmlns="http://www.w3.org/2000/svg">
<g clip-path="url(#clip0_1564_9277)">
<path d="M62.2031 10.4281C62.2031 8.01175 61.7909 5.64038 60.9779 3.3795C60.6944 2.5915 59.8209 2.15938 59.0308 2.41738C57.9082 2.78375 56.4959 2.12262 55.0012 1.42262C53.5774 0.75575 51.9634 0 50.2642 0C48.5649 0 46.9508 0.75575 45.5269 1.4225C44.0323 2.12238 42.6206 2.7835 41.4973 2.41725C40.7069 2.15975 39.8334 2.5915 39.5503 3.37963C38.7374 5.64013 38.3252 8.01163 38.3252 10.4281C38.3252 10.7812 38.3371 11.1306 38.3548 11.4777C35.3276 10.2446 32.0194 9.5625 28.5544 9.5625C14.1836 9.5625 2.49194 21.2541 2.49194 35.625C2.49194 38.911 3.10594 42.0554 4.22094 44.9534L2.33432 46.84C1.61757 47.5569 1.61757 48.7234 2.33432 49.4404L16.3554 63.4614C16.7027 63.8088 17.1646 64 17.6557 64C18.1468 64 18.6086 63.8088 18.9559 63.4614L21.6581 60.7593C23.8556 61.3633 26.1677 61.6875 28.5543 61.6875C30.9409 61.6875 33.2531 61.3633 35.4506 60.7593L38.1527 63.4613C38.4999 63.8086 38.9618 63.9999 39.4529 63.9999C39.9441 63.9999 40.4058 63.8086 40.7532 63.4613L46.1227 58.0918C46.4888 57.7256 46.4888 57.132 46.1227 56.766C45.7564 56.3999 45.1629 56.3999 44.7968 56.766L39.4529 62.1099L34.5631 57.22L48.5331 43.2501L53.4228 48.14L47.8903 53.6724C47.5242 54.0385 47.5242 54.6321 47.8903 54.9981C48.2566 55.3642 48.8501 55.3642 49.2162 54.9981L54.7742 49.4401C55.1214 49.0928 55.3128 48.631 55.3128 48.1399C55.3128 47.6486 55.1216 47.1869 54.7742 46.8396L52.8877 44.9531C54.0027 42.0551 54.6167 38.9107 54.6167 35.6247C54.6167 32.4617 54.0473 29.4301 53.0104 26.623C58.9586 22.8325 62.2031 17.1566 62.2031 10.4281ZM17.6558 62.11L3.68582 48.1401L8.57557 43.2504L22.5456 57.2202L17.6558 62.11ZM27.3174 25.5959H29.1678L30.9143 27.3424C31.2576 27.6857 31.4408 28.1423 31.4301 28.6279C31.4194 29.113 31.2154 29.5616 30.8558 29.8909C30.1711 30.5175 29.0523 30.4656 28.3619 29.775L22.1647 23.5777C21.4776 22.8905 21.4776 21.7725 22.1646 21.0853C22.4232 20.8268 22.7428 20.667 23.0773 20.6035C23.0749 20.6476 23.0706 20.6912 23.0706 20.7359V21.349C23.0706 23.6908 24.9757 25.5959 27.3174 25.5959ZM24.9456 21.349V20.7359C24.9456 20.4382 25.1878 20.1961 25.4853 20.1961H30.3062C30.9356 20.1961 31.5032 20.5303 31.8157 21.0492L29.1438 23.7211H27.3174C26.0096 23.7209 24.9456 22.6569 24.9456 21.349ZM27.8033 31.868C28.1398 32.2045 28.3231 32.652 28.3194 33.128C28.3157 33.604 28.1253 34.0486 27.7836 34.3799C27.0966 35.0456 25.9872 35.037 25.3109 34.3605L18.3464 27.396C18.0136 27.0631 17.8301 26.6205 17.8301 26.1497C17.8301 25.679 18.0134 25.2364 18.3464 24.9035C18.6792 24.5706 19.1218 24.3874 19.5927 24.3874C20.0634 24.3874 20.5061 24.5706 20.8388 24.9035L27.8033 31.868ZM22.7384 34.4398C23.0751 34.7764 23.2583 35.2239 23.2546 35.6999C23.2509 36.1759 23.0606 36.6204 22.7187 36.9518C22.0317 37.6176 20.9224 37.6088 20.2461 36.9324L15.6967 32.383L14.5281 31.2144C14.1952 30.8815 14.0119 30.4389 14.0119 29.9681C14.0119 29.4974 14.1952 29.0547 14.5281 28.7219C14.8717 28.3783 15.3231 28.2065 15.7744 28.2065C16.2256 28.2065 16.6768 28.3781 17.0203 28.7215L22.7384 34.4398ZM14.3696 33.7075L17.4164 36.7544C17.7526 37.0909 17.9357 37.5381 17.9319 38.0136C17.9282 38.4896 17.7378 38.9342 17.3961 39.2655C16.7089 39.9312 15.5998 39.9226 14.9234 39.2461L11.8783 36.201C11.1912 35.5138 11.1912 34.3957 11.8782 33.7085C12.2218 33.3649 12.6732 33.1931 13.1246 33.1931C13.5753 33.1934 14.0261 33.3647 14.3696 33.7075ZM16.1702 41.631C17.0846 41.631 17.9996 41.2919 18.7011 40.612C19.2044 40.1241 19.5476 39.5169 19.7063 38.8522C20.2578 39.1612 20.8751 39.317 21.4928 39.317C22.4072 39.317 23.3221 38.9779 24.0236 38.298C24.5558 37.7822 24.9098 37.1332 25.0549 36.4239C25.5304 36.6376 26.0438 36.7453 26.5576 36.7453C27.4719 36.7453 28.3869 36.4061 29.0884 35.7262C29.7939 35.0425 30.1867 34.125 30.1943 33.1426C30.1968 32.8174 30.1562 32.4987 30.0766 32.1926C30.8176 32.1149 31.5358 31.8104 32.1218 31.2739C32.8624 30.5959 33.2824 29.6709 33.3046 28.6694C33.3266 27.6674 32.9484 26.7253 32.2399 26.0168L30.8698 24.6466L33.8624 21.654C34.5499 20.967 35.6679 20.9669 36.3549 21.654C37.0413 22.3404 37.0421 23.4568 36.3574 24.1441L36.3551 24.1465C35.9889 24.5126 35.9889 25.1063 36.3552 25.4722C36.7212 25.8384 37.3148 25.8382 37.6809 25.4722C38.3679 24.7851 39.4862 24.7851 40.1732 25.4722C40.8596 26.1586 40.8603 27.275 40.1756 27.9624L40.1733 27.9648C39.8072 28.3309 39.8071 28.9245 40.1732 29.2905C40.5393 29.6566 41.1329 29.6566 41.4989 29.2905C41.8319 28.9575 42.2744 28.7743 42.7453 28.7743C43.2161 28.7743 43.6587 28.9575 43.9914 29.2904C44.6787 29.9776 44.6787 31.0958 43.9914 31.7829C43.6253 32.149 43.6253 32.7426 43.9914 33.1086C44.3576 33.4747 44.9512 33.4747 45.3172 33.1086C45.6582 32.7677 46.1079 32.584 46.5933 32.5928C47.0749 32.6007 47.5221 32.7996 47.8522 33.1526C48.4934 33.838 48.4519 34.9589 47.7597 35.6511L41.0332 42.3776C40.6671 42.7437 40.6671 43.3374 41.0332 43.7034C41.3994 44.0695 41.9929 44.0695 42.3591 43.7034L43.9999 42.0631L45.5343 43.5975L35.5852 53.5466L30.2047 48.1661C30.9699 47.8981 31.7847 47.7695 32.6071 47.8001L34.3912 47.866C35.9628 47.9251 37.5137 47.542 38.8807 46.7609C39.3303 46.504 39.4866 45.9313 39.2296 45.4818C38.9727 45.0321 38.3998 44.876 37.9506 45.1328C36.8876 45.7401 35.6794 46.0376 34.4606 45.9921L32.6764 45.9263C30.3443 45.8387 28.0598 46.737 26.4096 48.3872L21.3871 53.4098L11.7467 43.7695L14.3622 41.154C14.9191 41.4714 15.5443 41.631 16.1702 41.631ZM28.5544 59.8125C26.7164 59.8125 24.9272 59.6024 23.2057 59.2118L23.8971 58.5204C24.2443 58.1731 24.4357 57.7112 24.4357 57.2201C24.4357 56.7289 24.2444 56.2671 23.8971 55.9199L22.7129 54.7357L27.7356 49.7131C27.9651 49.4835 28.2111 49.2736 28.4697 49.0825L34.2594 54.8722L33.2118 55.9199C32.4952 56.6367 32.4952 57.8032 33.2119 58.5202L33.9033 59.2116C32.1817 59.6024 30.3924 59.8125 28.5544 59.8125ZM52.7419 35.625C52.7419 38.3783 52.2787 41.0251 51.4273 43.4929L49.8334 41.899C49.4862 41.5516 49.0243 41.3604 48.5332 41.3604C48.0421 41.3604 47.5802 41.5516 47.2329 41.899L46.8602 42.2718L45.3258 40.7374L49.0861 36.9771C50.4852 35.5779 50.5463 33.2876 49.2221 31.872C48.5417 31.1445 47.6193 30.7347 46.6251 30.7181C46.5421 30.7166 46.4592 30.7181 46.3768 30.7222C46.4269 29.73 46.0739 28.7209 45.3178 27.9646C44.6308 27.2776 43.7173 26.8993 42.7458 26.8993C42.6831 26.8993 42.6206 26.9009 42.5584 26.904C42.6086 25.9117 42.2557 24.9025 41.4994 24.1464C40.7427 23.3896 39.7337 23.0373 38.7401 23.0875C38.7908 22.0946 38.4378 21.0847 37.6811 20.3281C36.4738 19.1209 34.6224 18.942 33.2233 19.7903C32.5521 18.8883 31.4826 18.3211 30.3064 18.3211H25.4856C24.9682 18.3211 24.4894 18.4861 24.0959 18.7642C22.9518 18.546 21.7231 18.8755 20.8389 19.7594C20.0827 20.5156 19.7301 21.5247 19.7803 22.5171C19.7181 22.514 19.6556 22.5123 19.5928 22.5123C18.6212 22.5123 17.7077 22.8906 17.0208 23.5776C16.3337 24.2646 15.9553 25.1781 15.9553 26.1497C15.9553 26.2125 15.9571 26.275 15.9602 26.3372C14.9679 26.287 13.9588 26.6397 13.2026 27.396C12.5154 28.083 12.1372 28.9965 12.1372 29.9681C12.1372 30.4637 12.2362 30.944 12.4238 31.387C11.7378 31.5208 11.0831 31.8526 10.5527 32.3829C9.13457 33.8011 9.13457 36.1087 10.5527 37.527L12.9454 39.9198L10.4212 42.444L9.87619 41.899C9.52894 41.5516 9.06707 41.3604 8.57594 41.3604C8.08482 41.3604 7.62307 41.5516 7.27582 41.899L5.68194 43.4929C4.83069 41.0251 4.36744 38.3783 4.36744 35.625C4.36744 22.288 15.2179 11.4375 28.5549 11.4375C32.1303 11.4375 35.5256 12.2199 38.5823 13.6185C39.5656 19.6408 43.3717 24.6009 49.5488 27.7909C49.7729 27.9066 50.0188 27.9646 50.2647 27.9646C50.5104 27.9646 50.7563 27.9067 50.9802 27.791C51.1108 27.7235 51.2381 27.6536 51.3664 27.5846C52.2558 30.1014 52.7419 32.8073 52.7419 35.625ZM50.2642 26.0495C47.1617 24.4221 44.7207 22.324 43.0072 19.8113C41.1446 17.0795 40.2001 13.9226 40.2001 10.4281C40.2001 8.32525 40.5427 6.2605 41.2192 4.28587C42.9447 4.70212 44.6602 3.89887 46.3219 3.12063C47.6298 2.50825 48.9821 1.875 50.2642 1.875C51.5462 1.875 52.8984 2.50825 54.2062 3.12063C55.8681 3.899 57.5837 4.70225 59.3091 4.28587C59.9854 6.26038 60.3281 8.32538 60.3281 10.4281C60.3281 13.9226 59.3836 17.0795 57.5209 19.8113C55.8076 22.3239 53.3666 24.4221 50.2642 26.0495Z" fill="#0A3D5E"/>
<path d="M62.2031 10.4281C62.2031 8.01175 61.7909 5.64038 60.9779 3.3795C60.6944 2.5915 59.8209 2.15938 59.0308 2.41738C57.9082 2.78375 56.4959 2.12262 55.0012 1.42262C53.5774 0.75575 51.9634 0 50.2642 0C48.5649 0 46.9508 0.75575 45.5269 1.4225C44.0323 2.12238 42.6206 2.7835 41.4973 2.41725C40.7069 2.15975 39.8334 2.5915 39.5503 3.37963C38.7374 5.64013 38.3252 8.01163 38.3252 10.4281C38.3252 10.7812 38.3371 11.1306 38.3548 11.4777C35.3276 10.2446 32.0194 9.5625 28.5544 9.5625C14.1836 9.5625 2.49194 21.2541 2.49194 35.625C2.49194 38.911 3.10594 42.0554 4.22094 44.9534L2.33432 46.84C1.61757 47.5569 1.61757 48.7234 2.33432 49.4404L16.3554 63.4614C16.7027 63.8088 17.1646 64 17.6557 64C18.1468 64 18.6086 63.8088 18.9559 63.4614L21.6581 60.7593C23.8556 61.3633 26.1677 61.6875 28.5543 61.6875C30.9409 61.6875 33.2531 61.3633 35.4506 60.7593L38.1527 63.4613C38.4999 63.8086 38.9618 63.9999 39.4529 63.9999C39.9441 63.9999 40.4058 63.8086 40.7532 63.4613L46.1227 58.0918C46.4888 57.7256 46.4888 57.132 46.1227 56.766C45.7564 56.3999 45.1629 56.3999 44.7968 56.766L39.4529 62.1099L34.5631 57.22L48.5331 43.2501L53.4228 48.14L47.8903 53.6724C47.5242 54.0385 47.5242 54.6321 47.8903 54.9981C48.2566 55.3642 48.8501 55.3642 49.2162 54.9981L54.7742 49.4401C55.1214 49.0928 55.3128 48.631 55.3128 48.1399C55.3128 47.6486 55.1216 47.1869 54.7742 46.8396L52.8877 44.9531C54.0027 42.0551 54.6167 38.9107 54.6167 35.6247C54.6167 32.4617 54.0473 29.4301 53.0104 26.623C58.9586 22.8325 62.2031 17.1566 62.2031 10.4281ZM17.6558 62.11L3.68582 48.1401L8.57557 43.2504L22.5456 57.2202L17.6558 62.11ZM27.3174 25.5959H29.1678L30.9143 27.3424C31.2576 27.6857 31.4408 28.1423 31.4301 28.6279C31.4194 29.113 31.2154 29.5616 30.8558 29.8909C30.1711 30.5175 29.0523 30.4656 28.3619 29.775L22.1647 23.5777C21.4776 22.8905 21.4776 21.7725 22.1646 21.0853C22.4232 20.8268 22.7428 20.667 23.0773 20.6035C23.0749 20.6476 23.0706 20.6912 23.0706 20.7359V21.349C23.0706 23.6908 24.9757 25.5959 27.3174 25.5959ZM24.9456 21.349V20.7359C24.9456 20.4382 25.1878 20.1961 25.4853 20.1961H30.3062C30.9356 20.1961 31.5032 20.5303 31.8157 21.0492L29.1438 23.7211H27.3174C26.0096 23.7209 24.9456 22.6569 24.9456 21.349ZM27.8033 31.868C28.1398 32.2045 28.3231 32.652 28.3194 33.128C28.3157 33.604 28.1253 34.0486 27.7836 34.3799C27.0966 35.0456 25.9872 35.037 25.3109 34.3605L18.3464 27.396C18.0136 27.0631 17.8301 26.6205 17.8301 26.1497C17.8301 25.679 18.0134 25.2364 18.3464 24.9035C18.6792 24.5706 19.1218 24.3874 19.5927 24.3874C20.0634 24.3874 20.5061 24.5706 20.8388 24.9035L27.8033 31.868ZM22.7384 34.4398C23.0751 34.7764 23.2583 35.2239 23.2546 35.6999C23.2509 36.1759 23.0606 36.6204 22.7187 36.9518C22.0317 37.6176 20.9224 37.6088 20.2461 36.9324L15.6967 32.383L14.5281 31.2144C14.1952 30.8815 14.0119 30.4389 14.0119 29.9681C14.0119 29.4974 14.1952 29.0547 14.5281 28.7219C14.8717 28.3783 15.3231 28.2065 15.7744 28.2065C16.2256 28.2065 16.6768 28.3781 17.0203 28.7215L22.7384 34.4398ZM14.3696 33.7075L17.4164 36.7544C17.7526 37.0909 17.9357 37.5381 17.9319 38.0136C17.9282 38.4896 17.7378 38.9342 17.3961 39.2655C16.7089 39.9312 15.5998 39.9226 14.9234 39.2461L11.8783 36.201C11.1912 35.5138 11.1912 34.3957 11.8782 33.7085C12.2218 33.3649 12.6732 33.1931 13.1246 33.1931C13.5753 33.1934 14.0261 33.3647 14.3696 33.7075ZM16.1702 41.631C17.0846 41.631 17.9996 41.2919 18.7011 40.612C19.2044 40.1241 19.5476 39.5169 19.7063 38.8522C20.2578 39.1612 20.8751 39.317 21.4928 39.317C22.4072 39.317 23.3221 38.9779 24.0236 38.298C24.5558 37.7822 24.9098 37.1332 25.0549 36.4239C25.5304 36.6376 26.0438 36.7453 26.5576 36.7453C27.4719 36.7453 28.3869 36.4061 29.0884 35.7262C29.7939 35.0425 30.1867 34.125 30.1943 33.1426C30.1968 32.8174 30.1562 32.4987 30.0766 32.1926C30.8176 32.1149 31.5358 31.8104 32.1218 31.2739C32.8624 30.5959 33.2824 29.6709 33.3046 28.6694C33.3266 27.6674 32.9484 26.7253 32.2399 26.0168L30.8698 24.6466L33.8624 21.654C34.5499 20.967 35.6679 20.9669 36.3549 21.654C37.0413 22.3404 37.0421 23.4568 36.3574 24.1441L36.3551 24.1465C35.9889 24.5126 35.9889 25.1063 36.3552 25.4722C36.7212 25.8384 37.3148 25.8382 37.6809 25.4722C38.3679 24.7851 39.4862 24.7851 40.1732 25.4722C40.8596 26.1586 40.8603 27.275 40.1756 27.9624L40.1733 27.9648C39.8072 28.3309 39.8071 28.9245 40.1732 29.2905C40.5393 29.6566 41.1329 29.6566 41.4989 29.2905C41.8319 28.9575 42.2744 28.7743 42.7453 28.7743C43.2161 28.7743 43.6587 28.9575 43.9914 29.2904C44.6787 29.9776 44.6787 31.0958 43.9914 31.7829C43.6253 32.149 43.6253 32.7426 43.9914 33.1086C44.3576 33.4747 44.9512 33.4747 45.3172 33.1086C45.6582 32.7677 46.1079 32.584 46.5933 32.5928C47.0749 32.6007 47.5221 32.7996 47.8522 33.1526C48.4934 33.838 48.4519 34.9589 47.7597 35.6511L41.0332 42.3776C40.6671 42.7437 40.6671 43.3374 41.0332 43.7034C41.3994 44.0695 41.9929 44.0695 42.3591 43.7034L43.9999 42.0631L45.5343 43.5975L35.5852 53.5466L30.2047 48.1661C30.9699 47.8981 31.7847 47.7695 32.6071 47.8001L34.3912 47.866C35.9628 47.9251 37.5137 47.542 38.8807 46.7609C39.3303 46.504 39.4866 45.9313 39.2296 45.4818C38.9727 45.0321 38.3998 44.876 37.9506 45.1328C36.8876 45.7401 35.6794 46.0376 34.4606 45.9921L32.6764 45.9263C30.3443 45.8387 28.0598 46.737 26.4096 48.3872L21.3871 53.4098L11.7467 43.7695L14.3622 41.154C14.9191 41.4714 15.5443 41.631 16.1702 41.631ZM28.5544 59.8125C26.7164 59.8125 24.9272 59.6024 23.2057 59.2118L23.8971 58.5204C24.2443 58.1731 24.4357 57.7112 24.4357 57.2201C24.4357 56.7289 24.2444 56.2671 23.8971 55.9199L22.7129 54.7357L27.7356 49.7131C27.9651 49.4835 28.2111 49.2736 28.4697 49.0825L34.2594 54.8722L33.2118 55.9199C32.4952 56.6367 32.4952 57.8032 33.2119 58.5202L33.9033 59.2116C32.1817 59.6024 30.3924 59.8125 28.5544 59.8125ZM52.7419 35.625C52.7419 38.3783 52.2787 41.0251 51.4273 43.4929L49.8334 41.899C49.4862 41.5516 49.0243 41.3604 48.5332 41.3604C48.0421 41.3604 47.5802 41.5516 47.2329 41.899L46.8602 42.2718L45.3258 40.7374L49.0861 36.9771C50.4852 35.5779 50.5463 33.2876 49.2221 31.872C48.5417 31.1445 47.6193 30.7347 46.6251 30.7181C46.5421 30.7166 46.4592 30.7181 46.3768 30.7222C46.4269 29.73 46.0739 28.7209 45.3178 27.9646C44.6308 27.2776 43.7173 26.8993 42.7458 26.8993C42.6831 26.8993 42.6206 26.9009 42.5584 26.904C42.6086 25.9117 42.2557 24.9025 41.4994 24.1464C40.7427 23.3896 39.7337 23.0373 38.7401 23.0875C38.7908 22.0946 38.4378 21.0847 37.6811 20.3281C36.4738 19.1209 34.6224 18.942 33.2233 19.7903C32.5521 18.8883 31.4826 18.3211 30.3064 18.3211H25.4856C24.9682 18.3211 24.4894 18.4861 24.0959 18.7642C22.9518 18.546 21.7231 18.8755 20.8389 19.7594C20.0827 20.5156 19.7301 21.5247 19.7803 22.5171C19.7181 22.514 19.6556 22.5123 19.5928 22.5123C18.6212 22.5123 17.7077 22.8906 17.0208 23.5776C16.3337 24.2646 15.9553 25.1781 15.9553 26.1497C15.9553 26.2125 15.9571 26.275 15.9602 26.3372C14.9679 26.287 13.9588 26.6397 13.2026 27.396C12.5154 28.083 12.1372 28.9965 12.1372 29.9681C12.1372 30.4637 12.2362 30.944 12.4238 31.387C11.7378 31.5208 11.0831 31.8526 10.5527 32.3829C9.13457 33.8011 9.13457 36.1087 10.5527 37.527L12.9454 39.9198L10.4212 42.444L9.87619 41.899C9.52894 41.5516 9.06707 41.3604 8.57594 41.3604C8.08482 41.3604 7.62307 41.5516 7.27582 41.899L5.68194 43.4929C4.83069 41.0251 4.36744 38.3783 4.36744 35.625C4.36744 22.288 15.2179 11.4375 28.5549 11.4375C32.1303 11.4375 35.5256 12.2199 38.5823 13.6185C39.5656 19.6408 43.3717 24.6009 49.5488 27.7909C49.7729 27.9066 50.0188 27.9646 50.2647 27.9646C50.5104 27.9646 50.7563 27.9067 50.9802 27.791C51.1108 27.7235 51.2381 27.6536 51.3664 27.5846C52.2558 30.1014 52.7419 32.8073 52.7419 35.625ZM50.2642 26.0495C47.1617 24.4221 44.7207 22.324 43.0072 19.8113C41.1446 17.0795 40.2001 13.9226 40.2001 10.4281C40.2001 8.32525 40.5427 6.2605 41.2192 4.28587C42.9447 4.70212 44.6602 3.89887 46.3219 3.12063C47.6298 2.50825 48.9821 1.875 50.2642 1.875C51.5462 1.875 52.8984 2.50825 54.2062 3.12063C55.8681 3.899 57.5837 4.70225 59.3091 4.28587C59.9854 6.26038 60.3281 8.32538 60.3281 10.4281C60.3281 13.9226 59.3836 17.0795 57.5209 19.8113C55.8076 22.3239 53.3666 24.4221 50.2642 26.0495Z" fill="#0A3D5E"/>
<path d="M56.7337 11.6452C57.2278 11.4906 57.5029 10.9646 57.3483 10.4705C56.3743 7.35845 53.5274 5.26758 50.2642 5.26758C46.1716 5.26758 42.8418 8.5972 42.8418 12.6898C42.8418 16.7825 46.1716 20.1121 50.2642 20.1121C53.3008 20.1121 56.0009 18.2931 57.1429 15.4778C57.3376 14.9981 57.1064 14.4513 56.6265 14.2567C56.1465 14.0618 55.5999 14.2932 55.4053 14.773C54.5517 16.8772 52.5335 18.237 50.264 18.237C47.2052 18.237 44.7167 15.7485 44.7167 12.6897C44.7167 9.63095 47.2052 7.14245 50.264 7.14245C52.7032 7.14245 54.8309 8.70495 55.5588 11.0305C55.7135 11.5247 56.24 11.7998 56.7337 11.6452Z" fill="#2FBC7A"/>
<path d="M52.7207 10.4094L49.8257 13.3045L47.8075 11.2862C47.4412 10.9201 46.8477 10.9201 46.4816 11.2862C46.1155 11.6524 46.1155 12.246 46.4816 12.612L49.1628 15.2931C49.3459 15.4761 49.5859 15.5677 49.8257 15.5677C50.0656 15.5677 50.3056 15.4762 50.4888 15.2931L54.0467 11.7351C54.4129 11.369 54.4129 10.7754 54.0467 10.4094C53.6805 10.0432 53.087 10.0432 52.7207 10.4094Z" fill="#2FBC7A"/>
</g>
<defs>
<clipPath id="clip0_1564_9277">
<rect width="64" height="64" fill="white"/>
</clipPath>
</defs>
</svg>
