<svg width="64" height="64" viewBox="0 0 64 64" fill="none" xmlns="http://www.w3.org/2000/svg">
<path d="M32.0226 0C5.74243 0.24675 -4.65757 33.7008 16.7776 48.8354C16.4717 49.0633 16.2727 49.4266 16.2727 49.8374V62.75C16.2727 63.4403 16.8323 64 17.5227 64H23.8464C24.5368 64 25.0964 63.4403 25.0964 62.75V62.0296H26.7771C27.1671 62.0296 27.5421 62.1561 27.8277 62.3817C28.6976 63.0761 30.1623 63.9039 32.2001 63.9039H37.8053C40.3247 63.9039 42.3913 62.0196 42.6257 59.5154L43.5168 52.9465C43.5194 52.9265 43.5218 52.9064 43.5236 52.8864C43.5768 52.2711 43.5152 51.6667 43.3448 51.0925C69.1031 38.6271 60.6731 0.446875 32.0226 0ZM18.7727 61.5V51.0872H22.5962L22.5964 61.5H18.7727ZM41.0351 52.6434L40.1447 59.2066C40.1421 59.2264 40.1398 59.2463 40.1381 59.2663C40.0317 60.4849 39.0289 61.404 37.8053 61.404H32.2001C30.8858 61.404 29.9451 60.8732 29.3823 60.4241C28.0653 59.3614 26.6708 59.5331 25.0963 59.5298V50.931C26.0418 50.6669 26.7389 49.9645 27.2472 49.1535C27.5329 48.7024 31.9267 41.7369 31.9267 41.7369L32.8028 42.1881C33.8318 42.7331 34.2053 43.9567 33.6793 44.9875L32.4601 47.1645C31.7451 48.4581 32.7047 50.1241 34.2043 50.1241H38.7006C40.0444 50.1241 41.1362 51.3035 41.0351 52.6434ZM52.0884 40.5031C49.5536 44.207 46.0876 47.1123 42.0263 48.948C41.1346 48.1035 39.9284 47.624 38.7003 47.624H35.0687L35.2276 47.3401C50.5263 45.2163 58.1628 26.3401 48.5502 14.1861C45.8521 10.6559 42.0266 8.03888 37.7782 6.81738C37.1142 6.6265 36.4222 7.00963 36.2314 7.67325C36.0407 8.33675 36.4238 9.02925 37.0873 9.22C40.8238 10.2945 44.1892 12.5972 46.5639 15.7043C54.6248 25.8645 48.9071 41.7276 36.4036 44.5599C36.6301 42.7116 35.6454 40.8609 33.9966 39.9911L32.0552 38.988C31.4534 38.6769 30.7209 38.919 30.3843 39.4953L27.2524 44.4584C9.47793 39.3904 9.22906 14.6501 26.9037 9.236C27.5664 9.04313 27.9474 8.3495 27.7546 7.6865C27.5617 7.02362 26.8679 6.64237 26.2051 6.8355C6.47731 12.8527 6.26968 40.3139 25.8644 46.6579L24.9941 48.0371C24.6638 48.4674 24.4057 48.5795 23.8362 48.5872H21.2594C-1.57382 36.9109 6.34218 2.8795 32.0228 2.5C51.2589 2.24875 63.1512 24.7919 52.0884 40.5031Z" fill="#0A3D5E"/>
<path d="M32.0226 13.3242C31.6039 13.3242 31.2132 13.5337 30.9816 13.8823L27.1248 19.6851L20.4142 21.56C19.5697 21.7957 19.2247 22.8511 19.7708 23.5401L24.0977 29.0012L23.8072 35.9626C23.7707 36.8385 24.6672 37.4933 25.4916 37.1863L32.0226 34.7588L38.5534 37.1863C39.3772 37.4931 40.2744 36.8388 40.2379 35.9626L39.9474 29.0012L44.2743 23.5401C44.8203 22.851 44.4753 21.7957 43.6309 21.56L36.9204 19.6851L33.0637 13.8823C32.8318 13.5337 32.4412 13.3242 32.0226 13.3242ZM35.8003 21.9677L41.1468 23.4616L37.6993 27.8128C37.5132 28.0477 37.4177 28.3417 37.4302 28.6412L37.6617 34.1878L32.4582 32.2537C32.1771 32.1492 31.8679 32.1492 31.5872 32.2537L26.3836 34.1878L26.6151 28.6412C26.6276 28.3417 26.5321 28.0477 26.3459 27.8128L22.8984 23.4616L28.2451 21.9677C28.5338 21.8871 28.7838 21.7053 28.9497 21.4557L32.0227 16.8323L35.0957 21.4557C35.2614 21.7055 35.5116 21.8872 35.8003 21.9677Z" fill="#2FBC7A"/>
<path d="M30.8688 7.73784C31.2923 8.75534 32.7859 8.74059 33.1864 7.71197C33.603 6.64172 32.4065 5.60672 31.4068 6.17284C30.8656 6.47922 30.6289 7.16272 30.8688 7.73784Z" fill="#2FBC7A"/>
</svg>
