<svg width="31" height="22" viewBox="0 0 31 22" fill="none" xmlns="http://www.w3.org/2000/svg">
<path d="M18.0488 21.4793L10.9641 9.20898H9.39551L16.4793 21.4793H18.0488Z" fill="white"/>
<path d="M30.1403 0.519531H28.576L18.0518 18.7484L18.8339 20.1029L30.1403 0.519531Z" fill="white"/>
<path d="M17.2646 17.4014L27.0109 0.519531H25.4465L16.4824 16.0468L17.2646 17.4014Z" fill="white"/>
<path d="M15.7002 14.6922L23.8821 0.519531H22.3185L14.918 13.3376L15.7002 14.6922Z" fill="white"/>
<path d="M14.1357 11.983L20.7541 0.519531H19.1897L13.3535 10.6284L14.1357 11.983Z" fill="white"/>
<path d="M14.9306 21.4793L7.84595 9.20898H6.27734L13.3611 21.4793H14.9306Z" fill="white"/>
<path d="M11.791 21.4793L4.70715 9.20898H3.1377L10.2223 21.4793H11.791Z" fill="white"/>
<path d="M8.65326 21.4793L1.56861 9.20898H0L7.0838 21.4793H8.65326Z" fill="white"/>
</svg>
