<svg width="49" height="49" viewBox="0 0 49 49" fill="none" xmlns="http://www.w3.org/2000/svg">
<path d="M44 14V35C44 37.4853 41.9853 39.5 39.5 39.5H9.5C7.01472 39.5 5 37.4853 5 35V14M44 14C44 11.5147 41.9853 9.5 39.5 9.5H9.5C7.01472 9.5 5 11.5147 5 14M44 14V14.4854C44 16.0481 43.1893 17.4989 41.8584 18.3179L26.8584 27.5487C25.4121 28.4387 23.5879 28.4387 22.1416 27.5487L7.14156 18.3179C5.8107 17.4989 5 16.0481 5 14.4854V14" stroke="#0A3D5E" stroke-width="2" stroke-linecap="round" stroke-linejoin="round"/>
<path d="M39.5 9.5H9.5C7.01472 9.5 5 11.5147 5 14V14.4854C5 16.0481 5.8107 17.4989 7.14156 18.3179L22.1416 27.5487C23.5879 28.4387 25.4121 28.4387 26.8584 27.5487L41.8584 18.3179C43.1893 17.4989 44 16.0481 44 14.4854V14C44 11.5147 41.9853 9.5 39.5 9.5Z" stroke="#2FBC7A" stroke-width="2" stroke-linecap="round" stroke-linejoin="round"/>
</svg>
