<svg width="70" height="70" viewBox="0 0 70 70" fill="none" xmlns="http://www.w3.org/2000/svg">
<rect width="70" height="70" fill="white"/>
<path d="M39.5463 52L28.7336 32.0959H26.3396L37.151 52H39.5463Z" fill="#0A3D5E"/>
<path d="M57.9998 18H55.6123L39.55 47.5696L40.7438 49.7669L57.9998 18Z" fill="#0A3D5E"/>
<path d="M38.35 45.3846L53.2249 18H50.8374L37.1562 43.1873L38.35 45.3846Z" fill="#2FBC7A"/>
<path d="M35.9623 40.99L48.4497 18H46.0634L34.7686 38.7926L35.9623 40.99Z" fill="#2FBC7A"/>
<path d="M33.5749 36.5953L43.676 18H41.2884L32.3811 34.398L33.5749 36.5953Z" fill="#0A3D5E"/>
<path d="M34.7868 52L23.9741 32.0959H21.5801L32.3915 52H34.7868Z" fill="#2FBC7A"/>
<path d="M29.9963 52L19.1849 32.0959H16.7896L27.6023 52H29.9963Z" fill="#2FBC7A"/>
<path d="M25.2067 52L14.394 32.0959H12L22.8114 52H25.2067Z" fill="#0A3D5E"/>
</svg>
