<svg width="18" height="18" viewBox="0 0 18 18" fill="none" xmlns="http://www.w3.org/2000/svg">
<g clip-path="url(#clip0_3_1944)">
<path d="M16.4999 8.25048V9.00048C16.4923 10.5142 16.0269 11.9902 15.1647 13.2345C14.3025 14.4787 13.0841 15.433 11.6694 15.9718C10.2548 16.5105 8.71024 16.6086 7.23881 16.2532C5.76738 15.8977 4.43795 15.1053 3.4253 13.9801C2.41265 12.855 1.76417 11.4497 1.56513 9.94908C1.36608 8.44847 1.62578 6.92274 2.31008 5.57248C2.99438 4.22222 4.07126 3.11064 5.39914 2.38386C6.72702 1.65708 8.24374 1.34912 9.74991 1.50048" stroke="#0A3D5E" stroke-width="1.5" stroke-linecap="round" stroke-linejoin="round"/>
<path d="M6 10.5C6 10.5 7.125 12 9 12C10.875 12 12 10.5 12 10.5" stroke="#0A3D5E" stroke-width="1.5" stroke-linecap="round" stroke-linejoin="round"/>
<path d="M6.75 6.75H6.75833" stroke="#0A3D5E" stroke-width="1.5" stroke-linecap="round" stroke-linejoin="round"/>
<path d="M11.25 6.75H11.2583" stroke="#0A3D5E" stroke-width="1.5" stroke-linecap="round" stroke-linejoin="round"/>
<path d="M12 3.75H16.5" stroke="#0A3D5E" stroke-width="1.5" stroke-linecap="round" stroke-linejoin="round"/>
<path d="M14.25 1.5V6" stroke="#0A3D5E" stroke-width="1.5" stroke-linecap="round" stroke-linejoin="round"/>
</g>
<defs>
<clipPath id="clip0_3_1944">
<rect width="18" height="18" fill="white"/>
</clipPath>
</defs>
</svg>
