<svg width="18" height="18" viewBox="0 0 18 18" fill="none" xmlns="http://www.w3.org/2000/svg">
<path d="M14.8655 3.13452H3.13451C1.90044 3.13452 0.900024 4.13493 0.900024 5.369V12.6311C0.900024 13.8652 1.90044 14.8656 3.13451 14.8656H14.8655C16.0996 14.8656 17.1 13.8652 17.1 12.6311V5.369C17.1 4.13493 16.0996 3.13452 14.8655 3.13452Z" stroke="white" stroke-width="1.5" stroke-linecap="round" stroke-linejoin="round"/>
<path d="M11.5136 9.00005C11.5136 11.0054 10.3881 12.6311 8.99982 12.6311C7.61153 12.6311 6.48602 11.0054 6.48602 9.00005C6.48602 6.99472 7.61153 5.36902 8.99982 5.36902C10.3881 5.36902 11.5136 6.99472 11.5136 9.00005Z" stroke="white" stroke-width="1.5" stroke-linecap="round" stroke-linejoin="round"/>
<path d="M1.4585 11.5138C3.00108 11.5138 4.2516 12.7643 4.2516 14.3069" stroke="white" stroke-width="1.5" stroke-linecap="round" stroke-linejoin="round"/>
<path d="M16.5415 11.5138C14.9989 11.5138 13.7484 12.7643 13.7484 14.3069" stroke="white" stroke-width="1.5" stroke-linecap="round" stroke-linejoin="round"/>
<path d="M1.4585 6.48622C3.00108 6.48622 4.2516 5.2357 4.2516 3.69312" stroke="white" stroke-width="1.5" stroke-linecap="round" stroke-linejoin="round"/>
<path d="M16.5415 6.48622C14.9989 6.48622 13.7484 5.2357 13.7484 3.69312" stroke="white" stroke-width="1.5" stroke-linecap="round" stroke-linejoin="round"/>
</svg>
