<svg width="18" height="19" viewBox="0 0 18 19" fill="none" xmlns="http://www.w3.org/2000/svg">
<path d="M14.0121 1.8501H15.5948C15.8747 1.8501 16.1431 1.96127 16.341 2.15915C16.5388 2.35703 16.65 2.62542 16.65 2.90527V5.5432M14.0121 1.8501H4.51552C3.67598 1.8501 2.87081 2.18361 2.27716 2.77726C1.68352 3.37091 1.35001 4.17607 1.35001 5.01561V13.9846C1.35001 14.8241 1.68352 15.6293 2.27716 16.2229C2.87081 16.8166 3.67598 17.1501 4.51552 17.1501H14.0121M14.0121 1.8501V5.5432M16.65 5.5432H14.0121M16.65 5.5432V9.5001M14.0121 17.1501H15.5948C15.8747 17.1501 16.1431 17.0389 16.341 16.841C16.5388 16.6432 16.65 16.3748 16.65 16.0949V13.457M14.0121 17.1501V13.457M14.0121 5.5432V9.5001M16.65 13.457H14.0121M16.65 13.457V9.5001M14.0121 13.457V9.5001M14.0121 9.5001H16.65M5.5707 12.9294C5.5707 12.9294 6.28294 11.3466 7.94483 11.3466C9.60673 11.3466 10.319 12.9294 10.319 12.9294M9.2638 7.38975C9.2638 7.73956 9.12484 8.07505 8.87748 8.3224C8.63013 8.56976 8.29464 8.70872 7.94483 8.70872C7.59502 8.70872 7.25954 8.56976 7.01218 8.3224C6.76483 8.07505 6.62587 7.73956 6.62587 7.38975C6.62587 7.03994 6.76483 6.70446 7.01218 6.4571C7.25954 6.20975 7.59502 6.07079 7.94483 6.07079C8.29464 6.07079 8.63013 6.20975 8.87748 6.4571C9.12484 6.70446 9.2638 7.03994 9.2638 7.38975Z" stroke="#0A3D5E" stroke-width="1.5" stroke-linecap="round" stroke-linejoin="round"/>
</svg>
