<svg width="18" height="19" viewBox="0 0 18 19" fill="none" xmlns="http://www.w3.org/2000/svg">
<path d="M1.35011 8.70848L7.15356 2.90503" stroke="#0A3D5E" stroke-width="1.5" stroke-linecap="round" stroke-linejoin="round"/>
<path d="M2.40529 17.1501H2.93287C3.51563 17.1501 3.98804 16.6777 3.98804 16.0949V13.4568C3.98804 12.874 3.51563 12.4016 2.93287 12.4016H2.40529C1.82253 12.4016 1.35011 12.874 1.35011 13.4568V16.0949C1.35011 16.6777 1.82253 17.1501 2.40529 17.1501Z" stroke="#0A3D5E" stroke-width="1.5" stroke-linecap="round" stroke-linejoin="round"/>
<path d="M8.73623 17.1501H9.26382C9.84659 17.1501 10.319 16.6777 10.319 16.0949V10.2913C10.319 9.70848 9.84659 9.23608 9.26382 9.23608H8.73623C8.15346 9.23608 7.68106 9.70848 7.68106 10.2913V16.0949C7.68106 16.6777 8.15346 17.1501 8.73623 17.1501Z" stroke="#0A3D5E" stroke-width="1.5" stroke-linecap="round" stroke-linejoin="round"/>
<path d="M15.0672 17.1501H15.5948C16.1776 17.1501 16.65 16.6777 16.65 16.0949V2.90503C16.65 2.32228 16.1776 1.84985 15.5948 1.84985H15.0672C14.4844 1.84985 14.012 2.32228 14.012 2.90503V16.0949C14.012 16.6777 14.4844 17.1501 15.0672 17.1501Z" stroke="#0A3D5E" stroke-width="1.5" stroke-linecap="round" stroke-linejoin="round"/>
<path d="M8.2087 5.54296V1.84985H4.51559" stroke="#0A3D5E" stroke-width="1.5" stroke-linecap="round" stroke-linejoin="round"/>
</svg>
