<svg width="18" height="18" viewBox="0 0 18 18" fill="none" xmlns="http://www.w3.org/2000/svg">
<g clip-path="url(#clip0_3_1441)">
<path d="M1.34998 2.40537C1.34998 1.82263 1.82239 1.35022 2.40513 1.35022H6.09815C6.68089 1.35022 7.15331 1.82263 7.15331 2.40537V6.0984C7.15331 6.68114 6.68089 7.15355 6.09815 7.15355H2.40513C1.82239 7.15355 1.34998 6.68114 1.34998 6.0984V2.40537Z" stroke="white" stroke-width="1.5" stroke-linecap="round" stroke-linejoin="round"/>
<path d="M1.34998 11.9017C1.34998 11.3189 1.82239 10.8466 2.40513 10.8466H6.09815C6.68089 10.8466 7.15331 11.3189 7.15331 11.9017V15.5947C7.15331 16.1775 6.68089 16.6499 6.09815 16.6499H2.40513C1.82239 16.6499 1.34998 16.1775 1.34998 15.5947V11.9017Z" stroke="white" stroke-width="1.5" stroke-linecap="round" stroke-linejoin="round"/>
<path d="M10.8466 2.40537C10.8466 1.82263 11.319 1.35022 11.9018 1.35022H15.5948C16.1776 1.35022 16.6499 1.82263 16.6499 2.40537V6.0984C16.6499 6.68114 16.1776 7.15355 15.5948 7.15355H11.9018C11.319 7.15355 10.8466 6.68114 10.8466 6.0984V2.40537Z" stroke="white" stroke-width="1.5" stroke-linecap="round" stroke-linejoin="round"/>
<path d="M10.8466 11.9017C10.8466 11.3189 11.319 10.8466 11.9018 10.8466H15.5948C16.1776 10.8466 16.6499 11.3189 16.6499 11.9017V15.5947C16.6499 16.1775 16.1776 16.6499 15.5948 16.6499H11.9018C11.319 16.6499 10.8466 16.1775 10.8466 15.5947V11.9017Z" stroke="white" stroke-width="1.5" stroke-linecap="round" stroke-linejoin="round"/>
</g>
<defs>
<clipPath id="clip0_3_1441">
<rect width="18" height="18" fill="white"/>
</clipPath>
</defs>
</svg>
