<svg width="18" height="18" viewBox="0 0 18 18" fill="none" xmlns="http://www.w3.org/2000/svg">
<g clip-path="url(#clip0_3_1850)">
<path d="M2.40515 1.3501H15.5948M2.40515 1.3501V10.3191C2.40515 10.8788 2.62749 11.4155 3.02325 11.8113C3.41902 12.2071 3.95579 12.4294 4.51549 12.4294H6.88963M2.40515 1.3501H1.34998M15.5948 1.3501V10.3191C15.5948 10.8788 15.3725 11.4155 14.9767 11.8113C14.5809 12.2071 14.0442 12.4294 13.4845 12.4294H11.1103M15.5948 1.3501H16.65M6.88963 12.4294L5.57066 16.6501M6.88963 12.4294H11.1103M11.1103 12.4294L12.4293 16.6501" stroke="#0A3D5E" stroke-width="1.5" stroke-linecap="round" stroke-linejoin="round"/>
<path d="M5.57092 9.2639L7.94506 6.62597L10.0554 9.2639L12.4295 4.51562" stroke="#0A3D5E" stroke-width="1.5" stroke-linecap="round" stroke-linejoin="round"/>
</g>
<defs>
<clipPath id="clip0_3_1850">
<rect width="18" height="18" fill="white"/>
</clipPath>
</defs>
</svg>
