<svg width="18" height="19" viewBox="0 0 18 19" fill="none" xmlns="http://www.w3.org/2000/svg">
<path d="M1.875 13.1601C1.78593 13.1081 1.70853 13.0382 1.64766 12.955C1.58678 12.8717 1.54374 12.7768 1.52121 12.6761C1.49869 12.5755 1.49717 12.4712 1.51675 12.37C1.53633 12.2687 1.57659 12.1726 1.635 12.0876L8.38501 2.32256C8.45412 2.22354 8.54613 2.14267 8.6532 2.08683C8.76027 2.03099 8.87925 2.00183 9.00001 2.00183C9.12076 2.00183 9.23974 2.03099 9.34681 2.08683C9.45388 2.14267 9.54589 2.22354 9.615 2.32256L16.365 12.0801C16.4247 12.1653 16.466 12.262 16.4862 12.3641C16.5065 12.4662 16.5053 12.5713 16.4827 12.6729C16.4602 12.7745 16.4167 12.8702 16.3551 12.9541C16.2935 13.038 16.2152 13.1081 16.125 13.1601L9.7425 16.8051C9.51627 16.9339 9.26038 17.0017 9.00001 17.0017C8.73963 17.0017 8.48374 16.9339 8.25751 16.8051L1.875 13.1601Z" stroke="#0A3D5E" stroke-width="1.5" stroke-linecap="round" stroke-linejoin="round"/>
<path d="M9 2V17" stroke="#0A3D5E" stroke-width="1.5" stroke-linecap="round" stroke-linejoin="round"/>
</svg>
