<svg width="18" height="18" viewBox="0 0 18 18" fill="none" xmlns="http://www.w3.org/2000/svg">
<g clip-path="url(#clip0_3_1522)">
<path d="M8.99997 16.65C13.225 16.65 16.65 13.225 16.65 8.99997C16.65 4.775 13.225 1.34998 8.99997 1.34998C4.775 1.34998 1.34998 4.775 1.34998 8.99997C1.34998 13.225 4.775 16.65 8.99997 16.65Z" stroke="white" stroke-width="1.5" stroke-linecap="round" stroke-linejoin="round"/>
<path d="M11.3739 5.57068H8.34033C7.39331 5.57068 6.62567 6.33836 6.62567 7.28533C6.62567 8.23235 7.39331 8.99999 8.34033 8.99999H9.65929C10.6063 8.99999 11.3739 9.76763 11.3739 10.7146C11.3739 11.6617 10.6063 12.4293 9.65929 12.4293H6.62567" stroke="white" stroke-width="1.5" stroke-linecap="round" stroke-linejoin="round"/>
<path d="M9 4.5155V5.04309" stroke="white" stroke-width="1.5" stroke-linecap="round" stroke-linejoin="round"/>
<path d="M9 12.9569V13.4845" stroke="white" stroke-width="1.5" stroke-linecap="round" stroke-linejoin="round"/>
</g>
<defs>
<clipPath id="clip0_3_1522">
<rect width="18" height="18" fill="white"/>
</clipPath>
</defs>
</svg>
