<svg width="18" height="18" viewBox="0 0 18 18" fill="none" xmlns="http://www.w3.org/2000/svg">
<g clip-path="url(#clip0_3_1568)">
<path d="M8.25 11.25H9.75C10.1478 11.25 10.5294 11.092 10.8107 10.8107C11.092 10.5294 11.25 10.1478 11.25 9.75C11.25 9.35218 11.092 8.97064 10.8107 8.68934C10.5294 8.40804 10.1478 8.25 9.75 8.25H7.5C7.05 8.25 6.675 8.4 6.45 8.7L2.25 12.75" stroke="white" stroke-width="1.5" stroke-linecap="round" stroke-linejoin="round"/>
<path d="M5.25 15.7497L6.45 14.6997C6.675 14.3997 7.05 14.2497 7.5 14.2497H10.5C11.325 14.2497 12.075 13.9497 12.6 13.3497L16.05 10.0497C16.3394 9.77621 16.5083 9.39894 16.5196 9.00089C16.5308 8.60285 16.3835 8.21663 16.11 7.92722C15.8365 7.6378 15.4592 7.46888 15.0612 7.45763C14.6631 7.44638 14.2769 7.59371 13.9875 7.86722L10.8375 10.7922" stroke="white" stroke-width="1.5" stroke-linecap="round" stroke-linejoin="round"/>
<path d="M1.5 12L6 16.5" stroke="white" stroke-width="1.5" stroke-linecap="round" stroke-linejoin="round"/>
<path d="M12.0002 8.92422C13.2014 8.92422 14.1752 7.95044 14.1752 6.74922C14.1752 5.548 13.2014 4.57422 12.0002 4.57422C10.799 4.57422 9.8252 5.548 9.8252 6.74922C9.8252 7.95044 10.799 8.92422 12.0002 8.92422Z" stroke="white" stroke-width="1.5" stroke-linecap="round" stroke-linejoin="round"/>
<path d="M4.5 6C5.74264 6 6.75 4.99264 6.75 3.75C6.75 2.50736 5.74264 1.5 4.5 1.5C3.25736 1.5 2.25 2.50736 2.25 3.75C2.25 4.99264 3.25736 6 4.5 6Z" stroke="white" stroke-width="1.5" stroke-linecap="round" stroke-linejoin="round"/>
</g>
<defs>
<clipPath id="clip0_3_1568">
<rect width="18" height="18" fill="white"/>
</clipPath>
</defs>
</svg>
