<svg width="18" height="19" viewBox="0 0 18 19" fill="none" xmlns="http://www.w3.org/2000/svg">
<path d="M4.5 8V4.25C4.5 2.975 5.475 2 6.75 2H7.5" stroke="#0A3D5E" stroke-width="1.5" stroke-linecap="round" stroke-linejoin="round"/>
<path d="M2.25 5.75L4.5 8L6.75 5.75" stroke="#0A3D5E" stroke-width="1.5" stroke-linecap="round" stroke-linejoin="round"/>
<path d="M13.5 8C15.1569 8 16.5 6.65685 16.5 5C16.5 3.34315 15.1569 2 13.5 2C11.8431 2 10.5 3.34315 10.5 5C10.5 6.65685 11.8431 8 13.5 8Z" stroke="#0A3D5E" stroke-width="1.5" stroke-linecap="round" stroke-linejoin="round"/>
<path d="M13.5 11V14.75C13.5 16.025 12.525 17 11.25 17H10.5" stroke="#0A3D5E" stroke-width="1.5" stroke-linecap="round" stroke-linejoin="round"/>
<path d="M15.75 13.25L13.5 11L11.25 13.25" stroke="#0A3D5E" stroke-width="1.5" stroke-linecap="round" stroke-linejoin="round"/>
<path d="M4.5 17C6.15685 17 7.5 15.6569 7.5 14C7.5 12.3431 6.15685 11 4.5 11C2.84315 11 1.5 12.3431 1.5 14C1.5 15.6569 2.84315 17 4.5 17Z" stroke="#0A3D5E" stroke-width="1.5" stroke-linecap="round" stroke-linejoin="round"/>
</svg>
