<svg width="18" height="19" viewBox="0 0 18 19" fill="none" xmlns="http://www.w3.org/2000/svg">
<path d="M2.40527 1.84961H15.5949M2.40527 1.84961V10.8186C2.40527 11.3783 2.62761 11.915 3.02338 12.3108C3.41914 12.7066 3.95592 12.9289 4.51561 12.9289H6.88975M2.40527 1.84961H1.3501M15.5949 1.84961V10.8186C15.5949 11.3783 15.3726 11.915 14.9768 12.3108C14.5811 12.7066 14.0443 12.9289 13.4846 12.9289H11.1104M15.5949 1.84961H16.6501M6.88975 12.9289L5.57079 17.1496M6.88975 12.9289H11.1104M11.1104 12.9289L12.4294 17.1496" stroke="#0A3D5E" stroke-width="1.5" stroke-linecap="round" stroke-linejoin="round"/>
<path d="M5.57104 9.76292L7.94518 7.12499L10.0555 9.76292L12.4297 5.01465" stroke="#0A3D5E" stroke-width="1.5" stroke-linecap="round" stroke-linejoin="round"/>
</svg>
