<svg width="18" height="18" viewBox="0 0 18 18" fill="none" xmlns="http://www.w3.org/2000/svg">
<g clip-path="url(#clip0_3_1795)">
<path d="M14.012 1.3501H15.5948C15.8747 1.3501 16.143 1.46127 16.3409 1.65915C16.5388 1.85703 16.65 2.12542 16.65 2.40527V5.0432M14.012 1.3501H4.51549C3.67595 1.3501 2.87078 1.68361 2.27713 2.27726C1.68348 2.87091 1.34998 3.67607 1.34998 4.51561V13.4846C1.34998 14.3241 1.68348 15.1293 2.27713 15.7229C2.87078 16.3166 3.67595 16.6501 4.51549 16.6501H14.012M14.012 1.3501V5.0432M16.65 5.0432H14.012M16.65 5.0432V9.0001M14.012 16.6501H15.5948C15.8747 16.6501 16.143 16.5389 16.3409 16.341C16.5388 16.1432 16.65 15.8748 16.65 15.5949V12.957M14.012 16.6501V12.957M14.012 5.0432V9.0001M16.65 12.957H14.012M16.65 12.957V9.0001M14.012 12.957V9.0001M14.012 9.0001H16.65M5.57066 12.4294C5.57066 12.4294 6.28291 10.8466 7.9448 10.8466C9.6067 10.8466 10.3189 12.4294 10.3189 12.4294M9.26377 6.88975C9.26377 7.23956 9.12481 7.57505 8.87745 7.8224C8.6301 8.06976 8.29461 8.20872 7.9448 8.20872C7.59499 8.20872 7.25951 8.06976 7.01215 7.8224C6.7648 7.57505 6.62584 7.23956 6.62584 6.88975C6.62584 6.53994 6.7648 6.20446 7.01215 5.9571C7.25951 5.70975 7.59499 5.57079 7.9448 5.57079C8.29461 5.57079 8.6301 5.70975 8.87745 5.9571C9.12481 6.20446 9.26377 6.53994 9.26377 6.88975Z" stroke="white" stroke-width="1.5" stroke-linecap="round" stroke-linejoin="round"/>
</g>
<defs>
<clipPath id="clip0_3_1795">
<rect width="18" height="18" fill="white"/>
</clipPath>
</defs>
</svg>
