<svg width="18" height="19" viewBox="0 0 18 19" fill="none" xmlns="http://www.w3.org/2000/svg">
<path d="M7.5 2.75H3C2.58579 2.75 2.25 3.08579 2.25 3.5V15.5C2.25 15.9142 2.58579 16.25 3 16.25H7.5C7.91421 16.25 8.25 15.9142 8.25 15.5V3.5C8.25 3.08579 7.91421 2.75 7.5 2.75Z" stroke="#0A3D5E" stroke-width="1.5" stroke-linecap="round" stroke-linejoin="round"/>
<path d="M5.25 2.75V16.25" stroke="#0A3D5E" stroke-width="1.5" stroke-linecap="round" stroke-linejoin="round"/>
<path d="M15.2998 14.6743C15.4498 15.0493 15.2248 15.4993 14.8498 15.6493L13.4248 16.1743C13.0498 16.3243 12.5998 16.0993 12.4498 15.7243L8.32482 4.32433C8.17482 3.94933 8.39982 3.49933 8.77482 3.34933L10.1998 2.82433C10.5748 2.67433 11.0248 2.89933 11.1748 3.27433L15.2998 14.6743Z" stroke="#0A3D5E" stroke-width="1.5" stroke-linecap="round" stroke-linejoin="round"/>
</svg>
