<svg width="18" height="19" viewBox="0 0 18 19" fill="none" xmlns="http://www.w3.org/2000/svg">
<path d="M14.8655 3.63452H3.13448C1.90041 3.63452 0.899994 4.63493 0.899994 5.869V13.1311C0.899994 14.3652 1.90041 15.3656 3.13448 15.3656H14.8655C16.0996 15.3656 17.1 14.3652 17.1 13.1311V5.869C17.1 4.63493 16.0996 3.63452 14.8655 3.63452Z" stroke="#0A3D5E" stroke-width="1.5" stroke-linecap="round" stroke-linejoin="round"/>
<path d="M11.5136 9.50005C11.5136 11.5054 10.3881 13.1311 8.99977 13.1311C7.61149 13.1311 6.48598 11.5054 6.48598 9.50005C6.48598 7.49472 7.61149 5.86902 8.99977 5.86902C10.3881 5.86902 11.5136 7.49472 11.5136 9.50005Z" stroke="#0A3D5E" stroke-width="1.5" stroke-linecap="round" stroke-linejoin="round"/>
<path d="M1.45845 12.0138C3.00104 12.0138 4.25155 13.2643 4.25155 14.8069" stroke="#0A3D5E" stroke-width="1.5" stroke-linecap="round" stroke-linejoin="round"/>
<path d="M16.5414 12.0138C14.9988 12.0138 13.7483 13.2643 13.7483 14.8069" stroke="#0A3D5E" stroke-width="1.5" stroke-linecap="round" stroke-linejoin="round"/>
<path d="M1.45845 6.98622C3.00104 6.98622 4.25155 5.7357 4.25155 4.19312" stroke="#0A3D5E" stroke-width="1.5" stroke-linecap="round" stroke-linejoin="round"/>
<path d="M16.5414 6.98622C14.9988 6.98622 13.7483 5.7357 13.7483 4.19312" stroke="#0A3D5E" stroke-width="1.5" stroke-linecap="round" stroke-linejoin="round"/>
</svg>
