<svg width="18" height="18" viewBox="0 0 18 18" fill="none" xmlns="http://www.w3.org/2000/svg">
<g clip-path="url(#clip0_3_1626)">
<path d="M16.65 3.72424C16.65 4.88975 13.0793 6.09837 8.99997 6.09837C4.92069 6.09837 1.34998 4.88975 1.34998 3.72424C1.34998 2.55872 4.92069 1.3501 8.99997 1.3501C13.0793 1.3501 16.65 2.55872 16.65 3.72424Z" stroke="white" stroke-width="1.5" stroke-linecap="round" stroke-linejoin="round"/>
<path d="M16.65 9C16.65 10.1655 13.0793 11.3741 8.99997 11.3741C4.92069 11.3741 1.34998 10.1655 1.34998 9" stroke="white" stroke-width="1.5" stroke-linecap="round" stroke-linejoin="round"/>
<path d="M16.65 3.72412V14.2758C16.65 15.4414 13.0793 16.65 8.99997 16.65C4.92069 16.65 1.34998 15.4414 1.34998 14.2758V3.72412" stroke="white" stroke-width="1.5" stroke-linecap="round" stroke-linejoin="round"/>
</g>
<defs>
<clipPath id="clip0_3_1626">
<rect width="18" height="18" fill="white"/>
</clipPath>
</defs>
</svg>
