<svg width="18" height="19" viewBox="0 0 18 19" fill="none" xmlns="http://www.w3.org/2000/svg">
<path fill-rule="evenodd" clip-rule="evenodd" d="M0 9.39307C0 5.79793 0 4.00036 0.856692 2.70562C1.23925 2.12746 1.73439 1.63231 2.31255 1.24976C3.60729 0.393066 5.40486 0.393066 9 0.393066C12.5951 0.393066 14.3927 0.393066 15.6874 1.24976C16.2656 1.63231 16.7608 2.12746 17.1433 2.70562C18 4.00036 18 5.79793 18 9.39307C18 12.9882 18 14.7858 17.1433 16.0805C16.7608 16.6587 16.2656 17.1538 15.6874 17.5364C14.3927 18.3931 12.5951 18.3931 9 18.3931C5.40486 18.3931 3.60729 18.3931 2.31255 17.5364C1.73439 17.1538 1.23925 16.6587 0.856692 16.0805C0 14.7858 0 12.9882 0 9.39307ZM13.6593 9.39329C13.6593 11.9666 11.5732 14.0527 8.99984 14.0527C6.42652 14.0527 4.34043 11.9666 4.34043 9.39329C4.34043 6.81997 6.42652 4.73388 8.99984 4.73388C11.5732 4.73388 13.6593 6.81997 13.6593 9.39329ZM8.99984 12.4763C10.7025 12.4763 12.0828 11.096 12.0828 9.39329C12.0828 7.6906 10.7025 6.31029 8.99984 6.31029C7.29714 6.31029 5.91684 7.6906 5.91684 9.39329C5.91684 11.096 7.29714 12.4763 8.99984 12.4763ZM13.8433 5.59461C14.4479 5.59461 14.9381 5.10445 14.9381 4.49979C14.9381 3.89514 14.4479 3.40497 13.8433 3.40497C13.2386 3.40497 12.7485 3.89514 12.7485 4.49979C12.7485 5.10445 13.2386 5.59461 13.8433 5.59461Z" fill="#8D8BA7"/>
</svg>
