<svg width="64" height="64" viewBox="0 0 64 64" fill="none" xmlns="http://www.w3.org/2000/svg">
<path d="M32 2C19.8497 2 10 11.8497 10 24C10 32.1354 14.4168 39.2368 20.9738 43.0412C22.8016 44.1018 23.9463 45.7291 23.9981 47.3668C24.0266 48.2702 24.6575 49.0421 25.5371 49.25C26.4741 49.4714 27.4289 49.6457 28.3989 49.7704C29.2618 49.8812 30.0005 49.19 30.0005 48.3199V35.8905C29.1491 35.7963 28.3147 35.6427 27.502 35.4335C26.4323 35.1581 25.7883 34.0678 26.0636 32.9981C26.3389 31.9284 27.4293 31.2844 28.499 31.5597C29.6158 31.8472 30.7887 32.0005 32.0005 32.0005C33.2123 32.0005 34.3851 31.8472 35.502 31.5597C36.5717 31.2844 37.662 31.9284 37.9374 32.9981C38.2127 34.0678 37.5687 35.1581 36.499 35.4335C35.6862 35.6427 34.8519 35.7963 34.0005 35.8905V48.3198C34.0005 49.1899 34.7392 49.8811 35.6021 49.7702C36.5717 49.6456 37.5262 49.4713 38.4629 49.25C39.3425 49.0421 39.9734 48.2702 40.0019 47.3668C40.0537 45.7291 41.1984 44.1018 43.0262 43.0412C49.5832 39.2368 54 32.1354 54 24C54 11.8497 44.1503 2 32 2Z" stroke="#0A3D5E" stroke-width="3" stroke-linecap="round" stroke-linejoin="round"/>
<path fill-rule="evenodd" clip-rule="evenodd" d="M24.0354 53.6276C24.2413 52.5424 25.2879 51.8295 26.3731 52.0354C28.1943 52.3809 30.0753 52.5619 32.0004 52.5619C33.9255 52.5619 35.8064 52.3809 37.6276 52.0354C38.7128 51.8295 39.7595 52.5424 39.9653 53.6276C40.1712 54.7128 39.4583 55.7595 38.3731 55.9653C36.3073 56.3572 34.1768 56.562 32.0004 56.562C29.8239 56.562 27.6934 56.3572 25.6276 55.9653C24.5424 55.7595 23.8295 54.7128 24.0354 53.6276Z" fill="#2FBC7A"/>
<path fill-rule="evenodd" clip-rule="evenodd" d="M26.0112 60.1458C26.1261 59.0472 27.1099 58.2498 28.2085 58.3647C29.454 58.495 30.719 58.5619 32.0004 58.5619C33.2817 58.5619 34.5467 58.495 35.7923 58.3647C36.8908 58.2498 37.8746 59.0472 37.9895 60.1458C38.1044 61.2444 37.307 62.2281 36.2085 62.343C34.8249 62.4878 33.4209 62.5619 32.0004 62.5619C30.5798 62.5619 29.1758 62.4878 27.7923 62.343C26.6937 62.2281 25.8963 61.2444 26.0112 60.1458Z" fill="#2FBC7A"/>
</svg>
