<svg width="49" height="49" viewBox="0 0 49 49" fill="none" xmlns="http://www.w3.org/2000/svg">
<path d="M30.5 21.5C30.5 24.8137 27.8137 27.5 24.5 27.5C21.1863 27.5 18.5 24.8137 18.5 21.5C18.5 18.1863 21.1863 15.5 24.5 15.5C27.8137 15.5 30.5 18.1863 30.5 21.5Z" stroke="#0A3D5E" stroke-width="2" stroke-linecap="round" stroke-linejoin="round"/>
<path d="M39.5 21.5C39.5 35.7843 24.5 44 24.5 44C24.5 44 9.5 35.7843 9.5 21.5C9.5 13.2157 16.2157 6.5 24.5 6.5C32.7843 6.5 39.5 13.2157 39.5 21.5Z" stroke="#0A3D5E" stroke-width="2" stroke-linecap="round" stroke-linejoin="round"/>
<path d="M30.5 21.5C30.5 24.8137 27.8137 27.5 24.5 27.5C21.1863 27.5 18.5 24.8137 18.5 21.5C18.5 18.1863 21.1863 15.5 24.5 15.5C27.8137 15.5 30.5 18.1863 30.5 21.5Z" stroke="#2FBC7A" stroke-width="2" stroke-linecap="round" stroke-linejoin="round"/>
</svg>
