<svg width="49" height="49" viewBox="0 0 49 49" fill="none" xmlns="http://www.w3.org/2000/svg">
<path d="M29 20V11M29 20L38 20M29 20L41 8M35 44C18.4315 44 5 30.5685 5 14V9.5C5 7.01472 7.01472 5 9.5 5H12.2433C13.2757 5 14.1757 5.70267 14.4261 6.70429L16.6377 15.5507C16.8572 16.4289 16.5291 17.3532 15.8048 17.8964L13.2176 19.8368C12.4667 20.4 12.1347 21.374 12.4575 22.2553C14.8803 28.8692 20.1308 34.1197 26.7447 36.5425C27.626 36.8653 28.6 36.5333 29.1632 35.7824L31.1036 33.1952C31.6468 32.4709 32.5711 32.1428 33.4493 32.3623L42.2957 34.5739C43.2973 34.8243 44 35.7243 44 36.7567V39.5C44 41.9853 41.9853 44 39.5 44H35Z" stroke="#0A3D5E" stroke-width="2" stroke-linecap="round" stroke-linejoin="round"/>
<path d="M29 20V11M29 20L38 20M29 20L41 8" stroke="#2FBC7A" stroke-width="2" stroke-linecap="round" stroke-linejoin="round"/>
</svg>
