<svg width="164" height="124" viewBox="0 0 164 124" fill="none" xmlns="http://www.w3.org/2000/svg">
<path d="M128.184 124C119.073 124 110.59 120.7 102.736 114.099C94.8812 107.184 90.954 95.0824 90.954 77.7947C90.954 64.9075 93.4674 52.9632 98.4942 41.962C103.521 30.9607 110.747 21.6882 120.172 14.1445C129.598 6.28644 141.065 1.57161 154.575 0L156.46 14.616C152.69 15.2446 148.134 16.6591 142.793 18.8593C137.452 21.0596 132.739 24.0456 128.655 27.8175C124.885 31.5894 123 35.9899 123 41.019C123 44.7909 123.943 47.3055 125.828 48.5628C128.027 49.82 130.697 50.9201 133.839 51.8631C139.18 53.1204 144.05 55.1635 148.448 57.9924C153.161 60.8213 156.931 64.5932 159.759 69.308C162.586 74.0228 164 79.9949 164 87.2243C164 96.9683 160.858 105.612 154.575 113.156C148.291 120.385 139.494 124 128.184 124ZM37.2299 124C28.1188 124 19.636 120.7 11.7816 114.099C3.9272 107.498 0 95.5539 0 78.2662C0 65.379 2.51341 53.4347 7.54023 42.4335C12.567 31.1179 19.7931 21.6882 29.2184 14.1445C38.6437 6.60078 50.1111 1.88594 63.6207 0L65.5057 15.0875C61.7356 15.4018 57.1801 16.8162 51.8391 19.3308C46.4981 21.5311 41.7854 24.5171 37.7012 28.289C33.931 31.7465 32.046 36.147 32.046 41.4905C32.046 44.948 32.9885 47.4626 34.8736 49.0342C37.0728 50.2915 39.7433 51.3916 42.8851 52.3346C48.2261 53.5919 53.0958 55.635 57.4943 58.4639C62.2069 61.2928 65.977 65.0646 68.8046 69.7795C71.6322 74.18 73.046 79.9949 73.046 87.2243C73.046 96.9683 69.9042 105.612 63.6207 113.156C57.3372 120.385 48.5402 124 37.2299 124Z" fill="#F2F1FA"/>
</svg>
