<svg width="64" height="64" viewBox="0 0 64 64" fill="none" xmlns="http://www.w3.org/2000/svg">
<path fill-rule="evenodd" clip-rule="evenodd" d="M24.84 20.2231C32.5216 10.3546 44.5189 4.00057 58 4C58.5304 3.99998 59.0391 4.21068 59.4142 4.58576C59.7893 4.96083 60 5.46955 60 6C60 19.4817 53.6461 31.48 43.7773 39.1623C43.924 40.0876 44 41.0355 44 42C44 51.9411 35.9411 60 26 60C24.8954 60 24 59.1046 24 58V46.9826C23.9753 46.9648 23.951 46.9464 23.927 46.9274C21.3883 44.9144 19.088 42.614 17.075 40.0753C17.0554 40.0506 17.0364 40.0255 17.0181 40H6C4.89543 40 4 39.1046 4 38C4 28.0589 12.0589 20 22 20C22.9653 20 23.9139 20.0762 24.84 20.2231ZM40 18C36.6863 18 34 20.6863 34 24C34 27.3137 36.6863 30 40 30C43.3137 30 46 27.3137 46 24C46 20.6863 43.3137 18 40 18Z" stroke="#0B3A58" stroke-width="3" stroke-linecap="round" stroke-linejoin="round"/>
<path d="M14.0276 45.6032C14.913 44.9427 15.0953 43.6896 14.4348 42.8042C13.7744 41.9189 12.5212 41.7366 11.6359 42.397C8.2189 44.9461 6 49.0266 6 53.6248C6 54.3596 6.05678 55.0825 6.16655 55.789C6.30024 56.6495 6.97532 57.3246 7.8358 57.4582C8.5423 57.568 9.26519 57.6248 10 57.6248C14.5982 57.6248 18.6787 55.4059 21.2277 51.9889C21.8882 51.1035 21.7059 49.8504 20.8205 49.1899C19.9352 48.5295 18.682 48.7118 18.0216 49.5971C16.195 52.0456 13.2822 53.6248 10 53.6248C10 50.3426 11.5791 47.4298 14.0276 45.6032Z" fill="#2FBC7A"/>
</svg>
