<svg width="32" height="32" viewBox="0 0 32 32" fill="none" xmlns="http://www.w3.org/2000/svg">
<g clip-path="url(#clip0_8630_32424)">
<path d="M30.963 29.0353C30.5515 27.1237 29.3092 25.531 27.5864 24.6631C28.0356 24.0613 28.3019 23.315 28.3019 22.5075C28.3019 20.518 26.6854 18.8994 24.6984 18.8994C22.7115 18.8994 21.0949 20.518 21.0949 22.5075C21.0949 23.3149 21.3612 24.0612 21.8104 24.6631C21.7167 24.7103 21.6245 24.7597 21.5337 24.8111C21.5256 24.8108 21.5177 24.8099 21.5096 24.8099H14.6234C14.6685 24.5908 14.669 24.362 14.6203 24.1359C14.2089 22.2243 12.9665 20.6316 11.2437 19.7637C11.693 19.1619 11.9593 18.4156 11.9593 17.6081C11.9593 15.6186 10.3428 14 8.35578 14C6.36882 14 4.75228 15.6186 4.75228 17.6081C4.75228 18.4155 5.01858 19.1619 5.46776 19.7637C3.74523 20.6319 2.5024 22.2258 2.09125 24.1359C2.03236 24.4094 2.04455 24.6874 2.12218 24.9467C1.4643 25.2189 1 25.868 1 26.6239V29.186C1 30.1863 1.81269 31 2.8116 31H29.3859C29.8754 31 30.3324 30.7814 30.6398 30.4002C30.9493 30.0164 31.0671 29.5189 30.963 29.0353ZM24.6984 20.19C25.9747 20.19 27.0129 21.2296 27.0129 22.5075C27.0129 23.7853 25.9746 24.8249 24.6984 24.8249C23.4223 24.8249 22.384 23.7853 22.384 22.5075C22.384 21.2296 23.4222 20.19 24.6984 20.19ZM8.35573 15.2907C9.63195 15.2907 10.6702 16.3303 10.6702 17.6081C10.6702 18.8859 9.63189 19.9255 8.35573 19.9255C7.07956 19.9255 6.04128 18.8859 6.04128 17.6081C6.04128 16.3303 7.07956 15.2907 8.35573 15.2907ZM3.3513 24.4079C3.7157 22.715 4.89829 21.3325 6.5153 20.7085C7.05436 21.0306 7.68372 21.2163 8.35573 21.2163C9.02768 21.2163 9.65691 21.0306 10.1959 20.7087C11.8133 21.3327 12.9955 22.7136 13.3602 24.4079C13.3898 24.5454 13.3316 24.6437 13.2942 24.69C13.2581 24.7348 13.1775 24.81 13.0433 24.81H3.66829C3.53406 24.81 3.45343 24.7348 3.41734 24.69C3.37996 24.6436 3.32171 24.5454 3.3513 24.4079ZM2.28906 29.186V26.6239C2.28906 26.3354 2.52349 26.1006 2.8116 26.1006H19.9292C19.1951 26.9178 18.6733 27.9228 18.4338 29.0353C18.3852 29.2613 18.3856 29.4902 18.4308 29.7093H2.8116C2.52349 29.7092 2.28906 29.4745 2.28906 29.186ZM29.6369 29.5893C29.6008 29.6341 29.5201 29.7092 29.3859 29.7092H20.0109C19.8767 29.7092 19.7961 29.6341 19.76 29.5893C19.7226 29.543 19.6644 29.4447 19.694 29.3072C20.0584 27.6143 21.241 26.2319 22.858 25.6079C23.3971 25.9299 24.0264 26.1156 24.6984 26.1156C25.3704 26.1156 25.9996 25.93 26.5386 25.608C28.1561 26.232 29.3382 27.6129 29.7029 29.3072C29.7324 29.4447 29.6743 29.543 29.6369 29.5893Z" fill="#0A3D5E" stroke="#0A3D5E" stroke-width="0.5"/>
<path d="M26.8841 0.801392H15.5338C13.9563 0.801392 12.6729 2.01145 12.6729 3.49882V12.1612C12.6729 13.6486 13.9563 14.8586 15.5338 14.8586H19.1967C19.2504 14.8586 19.2935 14.8825 19.3082 14.9061L19.852 15.7772C20.1234 16.2119 20.601 16.4714 21.1297 16.4714H21.1298C21.6584 16.4714 22.1361 16.2119 22.4076 15.7772L22.9514 14.9061C22.9661 14.8826 23.0091 14.8587 23.0628 14.8587H26.8841C28.4617 14.8587 29.7451 13.6486 29.7451 12.1612V3.49882C29.7451 2.01145 28.4617 0.801392 26.8841 0.801392ZM28.3701 12.1612C28.3701 12.8904 27.7035 13.4836 26.8841 13.4836H23.0629C22.5421 13.4836 22.0525 13.7497 21.7851 14.1779L21.2413 15.0489C21.2131 15.0941 21.1435 15.0964 21.1298 15.0964C21.1162 15.0964 21.0466 15.0941 21.0184 15.049L20.4746 14.1779C20.2072 13.7497 19.7176 13.4836 19.1968 13.4836H15.5339C14.7145 13.4836 14.0479 12.8904 14.0479 12.1612V3.49882C14.0479 2.76964 14.7145 2.17639 15.5339 2.17639H26.8841C27.7035 2.17639 28.3701 2.76964 28.3701 3.49882V12.1612Z" fill="#2FBC7A" stroke="#2FBC7A" stroke-width="0.5"/>
<path d="M25.0248 4.96747H17.3936C17.0139 4.96747 16.7061 5.27528 16.7061 5.65497C16.7061 6.03465 17.0139 6.34247 17.3936 6.34247H25.0248C25.4045 6.34247 25.7123 6.03465 25.7123 5.65497C25.7123 5.27528 25.4045 4.96747 25.0248 4.96747Z" fill="#2FBC7A" stroke="#2FBC7A" stroke-width="0.5"/>
<path d="M25.0248 8.68793H17.3936C17.0139 8.68793 16.7061 8.99574 16.7061 9.37543C16.7061 9.75511 17.0139 10.0629 17.3936 10.0629H25.0248C25.4045 10.0629 25.7123 9.75511 25.7123 9.37543C25.7123 8.99574 25.4045 8.68793 25.0248 8.68793Z" fill="#2FBC7A" stroke="#2FBC7A" stroke-width="0.5"/>
</g>
<defs>
<clipPath id="clip0_8630_32424">
<rect width="32" height="32" fill="white"/>
</clipPath>
</defs>
</svg>
