<svg width="33" height="32" viewBox="0 0 33 32" fill="none" xmlns="http://www.w3.org/2000/svg">
<path d="M29.666 13.333V21.333" stroke="#0A3D5E" stroke-width="2" stroke-linecap="round" stroke-linejoin="round"/>
<path d="M8.33301 16.667V21.3337C8.33301 22.3945 9.17586 23.4119 10.6762 24.1621C12.1764 24.9122 14.2113 25.3337 16.333 25.3337C18.4547 25.3337 20.4896 24.9122 21.9899 24.1621C23.4902 23.4119 24.333 22.3945 24.333 21.3337V16.667" stroke="#0A3D5E" stroke-width="2" stroke-linecap="round" stroke-linejoin="round"/>
<path d="M28.8927 14.5625C29.1314 14.4572 29.334 14.2842 29.4753 14.0649C29.6166 13.8456 29.6905 13.5897 29.6878 13.3288C29.6851 13.0679 29.606 12.8136 29.4601 12.5973C29.3143 12.381 29.1082 12.2122 28.8674 12.1118L17.4394 6.90649C17.092 6.74802 16.7146 6.66602 16.3327 6.66602C15.9509 6.66602 15.5735 6.74802 15.2261 6.90649L3.79941 12.1065C3.56203 12.2105 3.36009 12.3813 3.21829 12.5982C3.07649 12.8152 3.00098 13.0687 3.00098 13.3278C3.00098 13.587 3.07649 13.8405 3.21829 14.0574C3.36009 14.2743 3.56203 14.4452 3.79941 14.5492L15.2261 19.7598C15.5735 19.9183 15.9509 20.0003 16.3327 20.0003C16.7146 20.0003 17.092 19.9183 17.4394 19.7598L28.8927 14.5625Z" stroke="#0A3D5E" stroke-width="2" stroke-linecap="round" stroke-linejoin="round"/>
</svg>
