<svg width="32" height="32" viewBox="0 0 32 32" fill="none" xmlns="http://www.w3.org/2000/svg">
<path d="M29.333 13.3333V21.3333" stroke="#0A3D5E" stroke-width="2" stroke-linecap="round" stroke-linejoin="round"/>
<path d="M8 16.6667V21.3334C8 22.3942 8.84285 23.4116 10.3431 24.1618C11.8434 24.9119 13.8783 25.3334 16 25.3334C18.1217 25.3334 20.1566 24.9119 21.6569 24.1618C23.1571 23.4116 24 22.3942 24 21.3334V16.6667" stroke="#0A3D5E" stroke-width="2" stroke-linecap="round" stroke-linejoin="round"/>
<path d="M28.5597 14.5627C28.7984 14.4574 29.001 14.2844 29.1423 14.0651C29.2836 13.8458 29.3575 13.5899 29.3548 13.329C29.3521 13.0681 29.273 12.8138 29.1271 12.5975C28.9813 12.3811 28.7752 12.2123 28.5344 12.112L17.1064 6.90667C16.759 6.74821 16.3816 6.6662 15.9997 6.6662C15.6179 6.6662 15.2405 6.74821 14.8931 6.90667L3.4664 12.1067C3.22902 12.2106 3.02709 12.3815 2.88529 12.5984C2.74349 12.8153 2.66797 13.0689 2.66797 13.328C2.66797 13.5872 2.74349 13.8407 2.88529 14.0576C3.02709 14.2745 3.22902 14.4454 3.4664 14.5493L14.8931 19.76C15.2405 19.9185 15.6179 20.0005 15.9997 20.0005C16.3816 20.0005 16.759 19.9185 17.1064 19.76L28.5597 14.5627Z" stroke="#2FBC7A" stroke-width="2" stroke-linecap="round" stroke-linejoin="round"/>
</svg>
