<svg width="165" height="70" viewBox="0 0 165 70" fill="none" xmlns="http://www.w3.org/2000/svg">
<path d="M2.29259 48.0594C3.7016 51.5746 5.59151 54.7866 8.0152 57.6662C9.5252 59.4654 11.1121 61.1814 13.1223 62.4476C14.5313 63.3325 16.0605 63.8996 17.6811 64.0708C21.7783 64.5059 25.3129 63.2005 28.2463 60.2427C29.5592 58.9227 30.2564 57.2947 30.5209 55.4613C31.1653 50.9244 29.8188 46.7883 28.0395 42.7403C27.8808 42.3785 27.6164 42.134 27.2268 42.002C23.875 40.8825 20.4511 40.2225 16.9069 40.5011C13.5887 40.7602 10.9198 42.178 9.16934 45.1554C9.04912 45.3559 9.02508 45.7274 8.72211 45.6883C8.48648 45.659 8.48648 45.3265 8.40953 45.1261C7.17364 42.0265 6.63024 38.7851 6.53406 35.4606C6.50039 34.3117 6.65428 34.2677 7.7411 34.3899C9.78008 34.6246 11.7277 34.1259 13.5599 33.3095C17.2147 31.6766 19.7297 28.8948 21.1484 25.1058C21.4946 24.1769 21.4946 23.2187 21.1387 22.2751C20.4366 20.4271 19.6768 18.5986 19.2536 16.6528C18.7439 14.2964 18.1957 11.935 18.3928 9.50519C18.5419 7.65228 18.9603 5.84826 19.7297 4.14202C19.8403 3.89757 20.0952 3.62868 19.8499 3.37934C19.5999 3.12022 19.3354 3.3989 19.1046 3.51623C14.5794 5.75537 10.7515 8.94785 7.56317 12.8443C4.91826 16.0759 2.89371 19.7378 1.63377 23.7956C0.801828 26.5627 -0.121484 30.7623 0.0131656 35.9104C0.147815 41.1318 1.30676 45.3216 2.2974 48.0594H2.29259ZM14.0408 51.3008C14.1802 48.5972 15.2863 47.3065 18.1428 47.2039C19.4845 47.155 20.7733 47.4288 22.0813 47.6537C22.6728 47.7563 23.0238 48.0888 23.1729 48.6559C23.548 50.0981 23.9952 51.5306 23.9327 52.6991C23.8846 53.9017 24.0193 54.7573 23.4326 55.5298C22.442 56.8498 21.0137 57.2409 19.5807 57.1822C16.2096 57.0453 13.8725 54.7329 14.0456 51.3008H14.0408ZM7.73629 26.8952C8.68364 23.4778 10.3187 20.4271 12.4394 17.6257C12.5933 17.4253 12.7616 17.2395 12.9107 17.0342C13.5743 16.1346 13.8388 16.1493 14.3437 17.1711C14.8775 18.2466 15.3055 19.3515 15.1853 20.3782C15.1949 24.4556 12.0787 27.6041 8.27008 27.5943C7.77957 27.5943 7.58721 27.4232 7.73148 26.8952H7.73629Z" fill="#215087"/>
<path d="M67.7412 25.1939C66.414 20.4712 64.1394 16.2618 61.0809 12.5119C57.8493 8.55189 53.9252 5.42297 49.3231 3.2425C45.1586 1.26247 40.8113 0.0109007 36.1755 0.0157897C35.1753 0.0157897 34.175 0.0597902 33.1747 0.0109007C31.7946 -0.0575446 30.4721 0.196681 29.2314 0.763799C24.6293 2.87094 22.6721 5.58919 22.5807 10.5564C22.5182 13.9982 23.5136 17.2689 24.7399 20.4614C25.0332 21.2192 25.567 21.6396 26.3076 21.8498C27.1973 22.1041 28.0773 22.3778 28.9717 22.6174C31.8427 23.3899 34.7328 23.7908 37.7144 23.253C40.5757 22.7396 42.7108 21.1703 44.1343 18.6916C45.6298 16.0858 46.3464 13.26 45.7404 10.2044C45.6827 9.91591 45.5769 9.5688 45.8751 9.35368C46.1492 9.15324 46.3993 9.39768 46.6397 9.51013C49.0971 10.6444 51.213 12.2919 53.2808 14.0324C56.4259 16.6871 56.4739 21.7667 54.0118 24.6805C51.9439 27.1299 47.9429 28.181 44.721 26.2939C43.562 25.6143 42.4031 25.5948 41.1768 25.8881C39.888 26.1961 38.6088 26.5286 37.32 26.8366C36.3342 27.0712 36.2428 27.3059 36.8295 28.1712C36.9401 28.3375 37.0652 28.4988 37.195 28.6553C39.6283 31.6228 42.6627 33.4318 46.4762 33.9989C49.5154 34.4535 52.3046 33.818 54.9543 32.4589C57.3636 31.222 59.2006 29.2761 60.6385 26.949C60.7298 26.8023 60.7731 26.5628 60.9655 26.5726C61.2107 26.5823 61.2396 26.861 61.2829 27.037C61.4752 27.7997 61.6291 28.5721 61.8022 29.3397C62.7544 33.4855 62.5765 37.6265 61.6099 41.7283C60.7972 45.1897 59.3016 48.3822 57.3299 51.3204C56.6759 52.2982 55.9642 53.2516 55.0024 54.0533C54.7908 53.7258 54.9303 53.5205 55.012 53.3151C55.4737 52.1515 55.7238 50.9097 55.8103 49.6875C56.0796 45.967 55.9786 42.2661 54.5408 38.7363C54.2234 37.954 53.6703 37.4603 52.848 37.4505C51.2226 37.426 49.5972 37.4309 47.9718 37.5091C46.7744 37.5678 46.6397 37.8709 47.2168 38.922C49.2125 42.5692 49.7415 46.4559 48.8518 50.4942C48.1016 53.892 46.5916 56.9232 44.0766 59.3921C40.8305 62.5748 36.9305 63.7188 32.54 63.3032C31.28 63.1859 30.2317 63.5232 29.217 64.1833C28.9669 64.3495 28.7265 64.5353 28.4716 64.6917C26.4952 65.9042 24.336 66.5739 22.0661 66.9308C21.8305 66.9699 21.4891 66.9553 21.441 67.2437C21.3833 67.586 21.7391 67.6837 21.9796 67.7766C24.6533 68.8131 27.4089 69.7126 30.2413 69.8642C35.3772 70.1429 40.5035 70.1478 45.4952 68.334C50.5782 66.4859 55.0649 63.7579 58.8976 59.9152C61.8022 57.0014 64.149 53.6818 65.8513 49.888C67.1161 47.0719 68.0827 44.1728 68.5924 41.127C69.4917 35.7638 69.2272 30.4544 67.7557 25.2085L67.7412 25.1939ZM38.9839 13.8222C38.4405 15.8609 37.4883 16.516 35.3917 16.5307C35.0935 16.5307 34.7905 16.5307 34.2664 16.5307C33.2757 16.6578 32.1072 16.3302 30.9338 16.1053C30.602 16.0418 30.3134 15.9342 30.1932 15.5626C29.5921 13.7391 29.4094 11.8715 29.3709 9.95013C29.3324 8.20967 31.3714 6.90432 32.665 6.75765C34.8338 6.5132 36.6756 7.09499 38.0702 8.85501C39.2436 10.3315 39.46 12.0524 38.9839 13.8222Z" fill="#215087"/>
<path d="M82.5339 18.5162C82.2117 18.8096 82.2934 19.1078 82.2934 19.3718C82.2934 23.3905 82.2886 27.4044 82.3079 31.4231C82.3079 31.9902 82.2069 32.3617 81.5577 32.3911C80.9229 32.4204 80.6392 32.1466 80.6392 31.5013C80.644 26.0354 80.644 20.5696 80.6392 15.1038C80.6392 14.5562 80.8508 14.2384 81.4278 14.2237C81.8029 14.214 82.1732 14.1357 82.5483 14.1357C83.4668 14.1357 84.1016 14.4584 84.5632 15.3824C86.4772 19.2349 88.4344 23.0727 90.3003 26.9497C90.4061 27.1648 90.4926 27.4679 90.7956 27.4532C91.0649 27.4386 91.1082 27.155 91.2044 26.9546C93.0943 23.0923 94.989 19.2251 96.8741 15.358C97.3021 14.4731 97.8695 14.1211 98.8553 14.1749C100.106 14.2433 100.731 14.9147 100.731 16.1891C100.731 21.1221 100.731 26.055 100.731 30.9831C100.731 32.2591 100.591 32.3911 99.3603 32.396C98.0715 32.4025 97.4255 31.7571 97.4223 30.4599C97.4223 26.9008 97.4223 23.3416 97.4223 19.7825C97.4223 19.6065 97.4319 19.4256 97.4175 19.2496C97.3982 19.0589 97.4752 18.79 97.2155 18.7411C97.0087 18.702 96.9606 18.9562 96.8837 19.1029C96.4557 19.9634 96.0421 20.8336 95.6141 21.6941C93.9502 25.0772 92.2815 28.4604 90.6177 31.8484C90.4734 32.1417 90.281 32.3569 89.9348 32.3569C89.5357 32.3569 89.3866 32.0635 89.2327 31.7653C88.0112 29.3453 86.7898 26.9301 85.5683 24.515C84.568 22.535 83.563 20.5549 82.5291 18.5114L82.5339 18.5162Z" fill="#7E8795"/>
<path d="M80.6392 46.4263C80.6392 43.7814 80.6392 41.1414 80.6392 38.4965C80.6392 37.4209 80.8027 37.2596 81.8654 37.2547C84.4382 37.2498 87.0062 37.1129 89.5741 37.4258C93.7723 37.9342 96.7875 40.1783 97.6098 44.681C98.1148 47.4384 97.4752 50.0344 95.4843 52.2246C93.4309 54.4833 90.8677 55.3291 87.9824 55.422C85.9338 55.4856 83.8804 55.4416 81.8318 55.4367C80.7401 55.4367 80.644 55.334 80.644 54.2047C80.644 51.6135 80.644 49.0175 80.644 46.4263H80.6392ZM83.9429 46.2699C83.9429 48.4308 83.9573 50.5917 83.9333 52.7526C83.9285 53.4127 84.1641 53.7647 84.8373 53.7647C85.0345 53.7647 85.2317 53.8233 85.4337 53.8331C88.2805 53.9847 90.8822 53.5104 92.6615 50.9242C93.7338 49.3646 93.83 47.5948 93.8733 45.7566C93.9695 41.8014 90.358 38.7605 87.1456 38.9463C86.3954 38.9903 85.6452 38.9805 84.895 38.9463C84.1737 38.912 83.9236 39.2151 83.9333 39.9387C83.9621 42.0507 83.9429 44.1579 83.9429 46.2699Z" fill="#7E8795"/>
<path d="M112.301 51.007C111.825 51.007 111.348 51.007 110.877 51.007C110.281 51.007 109.925 51.3296 109.862 51.9114C109.79 52.5666 110.315 52.7279 110.781 52.7963C111.522 52.9039 112.272 52.9479 113.022 52.9626C114.397 52.9919 115.773 52.9626 117.138 53.163C118.418 53.3488 119.692 53.5492 120.351 54.9132C121.111 56.4973 120.476 58.7413 118.971 59.9586C117.792 60.9071 116.436 61.4107 114.984 61.5867C112.825 61.8507 110.651 61.8604 108.502 61.4009C107.881 61.2689 107.323 60.9902 106.78 60.6675C105.655 59.9978 105.308 58.7413 105.972 57.5875C106.443 56.7662 107.126 56.1257 107.819 55.4999C108.093 55.2506 108.309 55.0012 107.857 54.7324C106.318 53.8035 106.934 52.2097 107.91 51.183C108.247 50.831 108.978 50.7528 108.925 50.1954C108.881 49.7407 108.213 49.6087 107.9 49.2567C106.525 47.7118 106.184 45.3749 107.67 43.4584C109.199 41.4833 111.329 40.926 113.7 41.1313C114.623 41.2095 115.527 41.4051 116.374 41.8255C117.057 42.1629 117.802 41.9722 118.519 42.0211C118.783 42.0406 119.12 41.9478 119.24 42.2802C119.365 42.6273 119.047 42.7838 118.836 42.9304C118.345 43.2727 118.336 43.654 118.562 44.1771C119.24 45.7367 119.12 47.2474 118.148 48.6603C117.566 49.5061 116.734 50.0096 115.826 50.3959C114.705 50.8701 113.541 51.139 112.315 51.0119L112.301 51.007ZM113.714 59.6898C114.897 59.7484 116.133 59.46 117.345 59.0395C118.211 58.7413 119.076 57.7391 119.014 57.1719C118.947 56.5364 118.139 55.8617 117.124 55.8079C114.787 55.6857 112.435 55.7835 110.108 55.4559C109.781 55.4119 109.478 55.5293 109.232 55.7933C108.093 57.0497 108.42 58.536 109.997 59.1129C111.161 59.5382 112.368 59.7093 113.71 59.6898H113.714ZM115.729 46.2696C115.672 45.0816 115.119 43.7713 114.056 42.73C113.022 41.7131 111.146 42.0749 110.541 43.3851C109.737 45.1158 109.867 46.8514 110.728 48.5136C111.31 49.6381 112.305 50.0683 113.493 49.8385C114.71 49.599 115.734 48.1225 115.734 46.2745L115.729 46.2696Z" fill="#7E8795"/>
<path d="M147.555 49.672C147.555 51.2217 147.57 52.7715 147.55 54.3213C147.536 55.348 147.276 55.5142 146.362 55.0596C145.92 54.8396 145.478 54.5609 145.127 54.2089C144.718 53.7982 144.468 53.808 144.006 54.1698C142.804 55.1036 141.505 55.8467 139.895 55.7489C138.519 55.6658 137.428 55.1818 136.826 53.8324C136.22 52.4733 136.259 51.168 137.101 49.9311C138.158 48.3764 139.803 47.7359 141.457 47.1248C142.208 46.851 142.982 46.631 143.756 46.4355C144.227 46.3181 144.425 46.0541 144.434 45.5799C144.449 44.9395 144.42 44.3186 144.184 43.7074C143.828 42.7932 143.165 42.3581 141.991 42.3434C141.02 42.3288 140.236 42.8274 139.928 43.683C139.726 44.2354 139.611 44.8026 139.616 45.399C139.62 45.9026 139.375 46.0884 138.885 45.8977C138.466 45.7363 138.033 45.6092 137.615 45.443C136.889 45.1546 136.745 44.0008 137.336 43.1941C137.995 42.2994 138.923 41.8154 139.933 41.4683C141.621 40.8865 143.352 40.9305 145.03 41.3901C146.752 41.8594 147.497 43.1012 147.56 45.1643C147.56 45.2132 147.56 45.267 147.56 45.3159C147.56 46.763 147.56 48.215 147.56 49.6622L147.555 49.672ZM144.439 49.804C144.53 49.2417 144.487 48.6599 144.468 48.0782C144.453 47.6968 144.299 47.555 143.948 47.7017C142.539 48.2884 141.106 48.8262 140.044 50.0191C138.913 51.2902 139.524 53.2702 141.174 53.6564C142.828 54.0427 144.598 52.5858 144.521 50.8893C144.506 50.5324 144.468 50.1804 144.434 49.804H144.439Z" fill="#7E8795"/>
<path d="M114.557 26.3728C114.557 28.0009 114.566 29.624 114.557 31.252C114.547 32.1711 114.196 32.4156 113.379 32.0245C112.936 31.8094 112.523 31.4916 112.152 31.1591C111.705 30.7582 111.335 30.8022 110.902 31.1738C109.825 32.0978 108.623 32.7187 107.165 32.704C105.574 32.6845 104.107 31.7751 103.679 30.5138C103.121 28.8564 103.597 27.0915 104.862 26.0208C106.362 24.7546 108.137 24.0946 109.983 23.591C111.556 23.1657 111.772 22.8186 111.421 21.1563C111.041 19.3474 108.926 18.6141 107.541 19.807C106.906 20.3546 106.838 21.1221 106.757 21.8848C106.646 22.9213 106.415 23.0728 105.463 22.6964C103.689 21.9875 103.496 20.7359 105.001 19.4648C106.333 18.3354 107.959 17.9736 109.623 17.9736C110.671 17.9736 111.739 18.1252 112.749 18.6288C114.023 19.2692 114.494 20.3301 114.538 21.6403C114.59 23.2146 114.552 24.7888 114.552 26.368H114.557V26.3728ZM111.546 27.0475C111.546 27.0475 111.532 27.0475 111.527 27.0475C111.527 26.4657 111.542 25.8791 111.522 25.2973C111.508 24.8377 111.287 24.559 110.791 24.7253C109.402 25.1995 108.098 25.8644 107.093 26.9595C106.079 28.0693 106.425 29.8782 107.69 30.4453C109.344 31.1836 111.542 29.7707 111.546 27.9618C111.546 27.6586 111.546 27.3506 111.546 27.0475Z" fill="#7E8795"/>
<path d="M135.364 24.1621C134.013 24.1621 132.667 24.1524 131.315 24.1621C130.498 24.1719 130.334 24.3577 130.402 25.1693C130.57 27.1884 131.349 28.8555 133.186 29.8236C134.864 30.7085 136.446 30.1462 137.98 29.364C138.697 28.9973 139.317 28.4742 139.909 27.9266C140.029 27.8142 140.183 27.6284 140.361 27.7458C140.572 27.8875 140.467 28.1173 140.394 28.2982C139.264 31.0018 136.009 33.1872 133.022 32.6005C129.733 31.9502 126.968 28.8849 127.333 25.0568C127.588 22.3679 128.574 20.0065 131.08 18.7696C134.513 17.0781 138.755 18.1927 140.077 22.2212C140.62 23.8835 140.418 24.1524 138.745 24.1573C138.168 24.1573 137.596 24.1621 137.019 24.1621C136.47 24.1621 135.917 24.1621 135.369 24.1621H135.364ZM135.658 22.7395C136.605 22.7688 136.692 22.6612 136.48 21.7812C136.143 20.383 134.763 19.3808 133.215 19.415C132.051 19.4394 130.68 20.7106 130.416 21.9866C130.315 22.4657 130.392 22.7004 130.95 22.6808C132.517 22.6172 134.09 22.5879 135.658 22.7395Z" fill="#7E8795"/>
<path d="M143.492 23.8205C143.492 21.4347 143.54 19.044 143.477 16.6582C143.41 14.1502 145.608 11.0359 148.801 11.2999C149.835 11.3879 150.835 11.4221 151.691 12.131C152.119 12.4879 152.277 12.879 152.075 13.3973C151.864 13.9399 151.652 14.4875 151.388 15.0008C151.119 15.5288 150.84 15.5142 150.561 14.9617C150.229 14.2968 149.815 13.6955 149.291 13.1821C148.459 12.3608 147.723 12.4341 147.021 13.3777C146.675 13.8422 146.545 14.3799 146.521 14.9471C146.483 15.8368 146.468 16.7217 146.425 17.6115C146.401 18.1444 146.651 18.3449 147.146 18.34C147.844 18.3351 148.546 18.34 149.243 18.3498C149.628 18.3547 149.96 18.4671 149.95 18.9413C149.945 19.4058 149.729 19.7333 149.243 19.7578C148.647 19.792 148.046 19.8067 147.449 19.7969C146.805 19.7822 146.478 20.0169 146.483 20.7258C146.497 24.2556 146.483 27.7854 146.483 31.3153C146.483 32.1024 146.237 32.3664 145.473 32.4006C144.146 32.4625 143.484 31.8384 143.487 30.5281C143.487 28.2939 143.487 26.0548 143.487 23.8205H143.492Z" fill="#7E8795"/>
<path d="M39.4939 54.8269C37.2385 54.9051 35.7045 53.7855 34.9206 51.7224C34.2473 49.9428 34.4253 48.2073 35.6996 46.6526C36.7143 45.4108 38.0801 45.2397 39.4891 45.2592C40.3787 45.269 41.2732 45.4401 42.1436 45.6992C42.7399 45.8752 43.1198 46.2272 43.3651 46.8188C43.9902 48.3295 44.173 49.8939 44.0191 51.5122C43.87 53.0962 42.158 54.6753 40.3931 54.822C40.095 54.8464 39.7968 54.822 39.4939 54.822V54.8269ZM39.3592 48.2513C37.7771 48.1193 37.5415 48.8135 37.4837 49.9624C37.4309 51.0428 38.3734 51.918 39.5179 51.9277C40.6384 51.9375 41.2299 51.5122 41.2347 50.6908C41.2539 48.7108 40.9125 48.2659 39.3592 48.2513Z" fill="#7E8795"/>
<path d="M129.271 46.3585C129.271 44.4763 129.315 42.5989 129.257 40.7216C129.223 39.646 129.574 38.7904 130.281 38.0424C130.628 37.6758 130.969 37.3042 131.334 36.9571C131.546 36.7566 131.767 36.4535 132.104 36.6246C132.46 36.8055 132.402 37.1869 132.359 37.5095C132.234 38.4189 132.282 39.338 132.282 40.2473C132.282 41.2789 132.301 41.2887 133.33 41.2936C133.729 41.2936 134.128 41.2594 134.528 41.274C135.013 41.2936 135.244 41.582 135.239 42.0709C135.239 42.5452 134.98 42.7603 134.532 42.77C134.407 42.77 134.282 42.7798 134.157 42.7798C132.517 42.8043 132.402 42.9216 132.397 44.5545C132.397 47.1212 132.392 49.6879 132.397 52.2497C132.397 53.5746 132.82 54.0733 134.1 54.3275C134.311 54.3715 134.595 54.3275 134.662 54.6062C134.734 54.9093 134.475 55.056 134.263 55.1831C133.191 55.8431 132.046 55.9849 130.897 55.4764C129.719 54.9582 129.319 53.8728 129.291 52.6751C129.238 50.5679 129.276 48.4608 129.276 46.3488L129.271 46.3585Z" fill="#7E8795"/>
<path d="M38.5751 38.1982C38.6184 38.692 38.3779 38.8924 38.0605 39.0342C36.1658 39.8898 34.2759 40.7453 32.3764 41.5911C31.9244 41.7916 31.5974 41.5911 31.405 41.1609C30.5442 39.2151 29.693 37.2644 28.837 35.3186C28.6447 34.8786 28.7986 34.5706 29.1977 34.3848C31.1068 33.5048 33.0208 32.6248 34.9396 31.7594C35.4301 31.5345 35.7811 31.6617 36.0119 32.2092C36.8054 34.0719 37.6277 35.9248 38.4308 37.7826C38.503 37.944 38.5462 38.1151 38.5703 38.1982H38.5751Z" fill="#215087"/>
<path d="M153.739 44.94C153.739 48.064 153.739 51.1881 153.739 54.3121C153.739 55.3583 153.643 55.4414 152.624 55.4414C151.447 55.4414 150.859 54.845 150.859 53.6521C150.859 47.9662 150.859 42.2755 150.859 36.5897C150.859 35.3136 152.022 34.2821 153.263 34.4483C153.571 34.4874 153.691 34.6879 153.72 34.9616C153.749 35.2648 153.754 35.5679 153.754 35.8759C153.754 38.8972 153.754 41.9186 153.754 44.94H153.744H153.739Z" fill="#7E8795"/>
<path d="M117.841 25.917C117.841 24.1374 117.841 22.3578 117.841 20.5783C117.841 19.444 118.278 18.9111 119.365 18.6716C119.485 18.6471 119.61 18.6325 119.735 18.6129C120.418 18.4858 120.789 18.7873 120.846 19.5174C120.861 19.7129 120.803 19.972 121.019 20.06C121.25 20.1578 121.366 19.9085 121.491 19.7667C122.149 19.0089 122.885 18.4125 123.876 18.1289C124.674 17.8991 125.371 18.0898 126.021 18.4858C126.804 18.9698 126.881 19.6885 126.309 20.4169C126.184 20.5783 126.059 20.7347 125.934 20.8912C125.495 21.455 124.982 21.5479 124.395 21.1698C122.515 19.9525 120.923 21.7614 120.875 23.3112C120.798 25.8534 120.851 28.3957 120.841 30.9379C120.841 32.3264 120.769 32.39 119.394 32.3949C119.168 32.3949 118.942 32.39 118.721 32.3949C118.052 32.4095 117.802 32.1015 117.817 31.4122C117.85 29.5837 117.831 27.7503 117.831 25.9219C117.831 25.9219 117.841 25.9219 117.845 25.9219L117.841 25.917Z" fill="#7E8795"/>
<path d="M125.366 48.2605C125.366 50.2894 125.371 52.3183 125.366 54.3522C125.366 55.2908 125.236 55.4082 124.337 55.4326C123.013 55.4717 122.351 54.8231 122.351 53.4868C122.351 50.3139 122.351 47.1458 122.356 43.9729C122.356 42.3156 123.212 41.3818 124.818 41.2449C125.361 41.196 125.357 41.5871 125.357 41.944C125.366 43.3667 125.361 44.7845 125.361 46.2072C125.361 46.8916 125.361 47.5761 125.361 48.2605H125.366Z" fill="#7E8795"/>
<path d="M100.595 48.8428C100.595 47.0632 100.595 45.2836 100.595 43.5089C100.595 42.3698 100.773 42.1156 101.817 41.6854C103.264 41.0889 103.635 40.9031 103.543 42.9956C103.38 46.7552 103.471 50.5148 103.495 54.2744C103.5 55.3011 103.423 55.4233 102.423 55.4429C101.198 55.4624 100.586 54.8643 100.586 53.6486C100.586 52.0499 100.586 50.4464 100.586 48.8477L100.595 48.8428Z" fill="#7E8795"/>
<path d="M26.4666 33.4998C26.4666 35.4651 25.3028 36.8781 23.5331 37.2154C22.5329 37.4061 21.8067 36.8878 21.1046 36.2963C21.0085 36.218 20.9267 36.1154 20.8546 36.0176C20.2679 35.2256 19.2965 34.5118 19.6716 33.3873C20.1717 31.8815 20.9123 30.498 22.6675 30.0824C24.0862 29.7451 26.2213 31.29 26.4281 32.874C26.4618 33.1233 26.4618 33.3825 26.4714 33.5096L26.4666 33.4998ZM24.4276 33.6856C24.4372 32.9913 23.8505 32.346 23.1773 32.3069C22.6868 32.2824 21.8596 33.1478 21.8741 33.6807C21.8885 34.1891 22.7349 35.0496 23.2254 35.0496C23.7736 35.0496 24.418 34.3162 24.4276 33.6856Z" fill="#7E8795"/>
<path d="M52.7711 20.423C52.7326 20.9314 52.7471 21.2932 52.6749 21.6354C52.1508 24.119 49.1837 25.0919 47.2937 23.4101C47.1639 23.2928 47.0004 23.1803 47.0533 22.975C47.0966 22.799 47.2649 22.7648 47.414 22.7697C48.3854 22.8039 49.2702 22.6083 49.8377 21.7136C50.5109 20.6479 50.4003 19.4696 50.1454 18.3207C49.8809 17.1034 49.4049 15.9545 48.7172 14.9082C48.6018 14.7322 48.3517 14.5122 48.5344 14.3118C48.7172 14.1064 48.9721 14.3264 49.1356 14.4438C51.2226 15.9447 52.6365 17.8611 52.7759 20.423H52.7711Z" fill="#7E8795"/>
<path d="M103.414 38.3408C103.405 38.8297 102.072 39.7342 101.366 39.7293C101 39.7293 100.187 38.2968 100.192 37.6662C100.197 37.1675 101.38 36.395 102.14 36.3901C102.597 36.3901 103.424 37.6515 103.414 38.3408Z" fill="#7E8795"/>
<path d="M125.261 38.3605C125.28 38.7516 123.919 39.6512 123.304 39.661C122.818 39.661 121.981 38.3947 121.971 37.6418C121.967 37.2214 123.265 36.3463 123.919 36.3267C124.309 36.3169 125.227 37.7103 125.266 38.3605H125.261Z" fill="#7E8795"/>
<path d="M15.772 52.0428C15.7527 50.0285 16.9406 48.6596 18.8834 48.7721C21.8264 48.9383 22.1534 49.1974 22.3794 52.4632C22.5045 54.2819 21.0906 55.5726 19.1767 55.5726C17.5417 55.5726 15.6325 54.3308 15.772 52.0428ZM20.2779 52.2628C20.2779 51.2459 19.9798 50.9281 19.018 50.9085C18.2774 50.8939 17.7821 51.3485 17.7869 52.0281C17.7869 52.7615 18.4409 53.3775 19.2104 53.3872C19.9557 53.397 20.2779 53.0548 20.2779 52.2579V52.2628Z" fill="#7E8795"/>
<path d="M37.5948 11.7554C37.6141 13.7697 36.4262 15.1386 34.4834 15.0261C31.5404 14.8599 31.2134 14.6008 30.9874 11.335C30.8623 9.51627 32.2762 8.22559 34.1901 8.22559C35.8251 8.22559 37.7343 9.46738 37.5948 11.7554ZM33.0889 11.5354C33.0889 12.5523 33.387 12.8701 34.3488 12.8896C35.0894 12.9043 35.5847 12.4496 35.5799 11.7701C35.5799 11.0367 34.9259 10.4207 34.1564 10.4109C33.4111 10.4012 33.0889 10.7434 33.0889 11.5403V11.5354Z" fill="#7E8795"/>
<path d="M164.246 30.4595C163.919 30.8604 163.592 31.1244 163.097 31.1244C162.424 31.1244 162.02 30.6502 162.02 29.3301V22.8816C162.02 19.0487 160.529 17.6113 157.413 17.6113C154.297 17.6113 152.138 19.0536 151.594 21.3709C151.662 22.1434 152.152 22.6029 152.974 22.6029C153.845 19.4691 156.273 18.99 156.725 18.99C158.687 18.99 159.505 19.7234 159.505 22.6763V23.4292C158.312 23.7176 157.057 24.099 156.143 24.4265C152.114 25.903 151.205 27.2768 151.205 29.0026C151.205 31.5155 153.013 32.7964 155.196 32.7964C156.951 32.7964 157.952 32.0142 159.577 30.3764C159.837 31.8186 160.832 32.7084 162.26 32.7084C163.318 32.7084 164.141 32.3026 164.857 31.1195L164.251 30.4595H164.246ZM153.845 28.5528C153.845 27.6435 154.177 26.4994 156.783 25.463C157.413 25.2039 158.466 24.847 159.505 24.5585V29.1884C157.798 30.4253 157.211 30.7919 156.22 30.7919C154.869 30.7919 153.84 30.1515 153.84 28.5479L153.845 28.5528Z" fill="#7E8795"/>
</svg>
