<svg width="218" height="70" viewBox="0 0 218 70" fill="none" xmlns="http://www.w3.org/2000/svg">
<path fill-rule="evenodd" clip-rule="evenodd" d="M14.9524 4.56033C23.2193 3.36974 31.6508 5.21547 37.7959 10.2623C48.7923 19.2803 48.3222 35.1014 36.7534 45.6015C26.8597 54.5748 12.0668 56.7653 1.11469 51.5836C10.3718 53.342 20.933 50.6489 28.478 43.8023C39.4818 33.8132 39.9249 18.7776 29.4772 10.1998C25.4177 6.883 20.3149 5.02029 14.9524 4.56033Z" fill="#54C5CF"/>
<path fill-rule="evenodd" clip-rule="evenodd" d="M1.66227 24.3005C6.86058 7.85284 22.9232 -1.97671 39.2126 0.335055C25.4872 1.2258 13.0494 10.4646 8.59007 24.5654C2.76648 42.9622 12.7441 62.6675 30.8679 68.5805C32.7896 69.2063 34.7361 69.6561 36.6743 69.9282C32.4849 70.2033 28.1733 69.6927 23.9317 68.3161C5.80767 62.4029 -4.16203 42.6996 1.66227 24.3005Z" fill="#EC1951"/>
<path fill-rule="evenodd" clip-rule="evenodd" d="M15.9616 50.4374C11.4059 47.1117 8.15514 42.0722 7.45923 36.4084C6.22536 26.2863 13.6581 18.0093 24.0535 17.9207C32.9441 17.8408 41.1258 23.7717 44.0895 31.8197C40.3867 26.4273 34.0404 22.8003 27.2516 22.8539C17.369 22.9418 10.3021 30.8132 11.4757 40.4401C11.9365 44.172 13.5616 47.6224 15.9616 50.4374Z" fill="#6D6D70"/>
<path fill-rule="evenodd" clip-rule="evenodd" d="M140.391 19.0414H141.296V20.3406C141.658 19.851 142.059 19.4728 142.498 19.2302C142.941 18.9877 143.418 18.8618 143.931 18.8618C144.464 18.8618 144.933 19.0014 145.337 19.2774C145.745 19.5518 146.049 19.927 146.246 20.3904C146.432 20.8601 146.531 21.5797 146.531 22.5659V26.2935H145.632V22.8402C145.632 22.0087 145.599 21.447 145.532 21.1727C145.417 20.6959 145.215 20.3367 144.918 20.0912C144.622 19.8507 144.236 19.7228 143.759 19.7228C143.207 19.7228 142.713 19.9137 142.281 20.2865C141.847 20.6552 141.56 21.116 141.421 21.6738C141.341 22.0336 141.296 22.6832 141.296 23.6385V26.2932H140.391V19.0414H140.391ZM156.368 21.9386C156.249 21.4375 156.073 21.0465 155.837 20.7493C155.609 20.4442 155.299 20.2102 154.921 20.0303C154.541 19.8415 154.138 19.756 153.712 19.756C153.024 19.756 152.423 19.9804 151.93 20.4347C151.562 20.7722 151.286 21.2713 151.106 21.9383L156.368 21.9386ZM156.362 23.8879L157.126 24.3017C156.874 24.8124 156.579 25.2188 156.255 25.5246C155.928 25.8303 155.556 26.0732 155.147 26.2285C154.738 26.3968 154.274 26.4731 153.751 26.4731C152.605 26.4731 151.703 26.091 151.06 25.3135C150.409 24.5381 150.09 23.6611 150.09 22.6921C150.09 21.7751 150.363 20.9524 150.908 20.2328C151.605 19.3247 152.538 18.8618 153.707 18.8618C154.904 18.8618 155.87 19.3315 156.579 20.2735C157.096 20.9296 157.351 21.7528 157.362 22.7461H151.015C151.028 23.5821 151.294 24.2747 151.798 24.8058C152.304 25.3447 152.931 25.6104 153.678 25.6104C154.031 25.6104 154.383 25.5474 154.723 25.4236C155.062 25.2978 155.353 25.1244 155.587 24.9157C155.83 24.7016 156.086 24.3647 156.362 23.8879ZM161.774 16.339H162.677V19.0414H164.101V19.851H162.677V26.2935H161.774V19.851H160.544V19.0414H161.774V16.339ZM166.488 19.0414H167.424L169.567 24.3017L171.812 19.0414H171.979L174.225 24.3017L176.406 19.0414H177.337L174.299 26.2935H174.132L171.896 21.1095L169.659 26.2935H169.479L166.488 19.0414ZM183.731 19.7786C182.982 19.7786 182.337 20.0662 181.797 20.6395C181.253 21.2107 180.988 21.9006 180.988 22.7052C180.988 23.2312 181.107 23.7172 181.357 24.1711C181.6 24.625 181.934 24.967 182.351 25.2182C182.77 25.4634 183.23 25.5872 183.731 25.5872C184.23 25.5872 184.695 25.4634 185.109 25.2182C185.528 24.9667 185.86 24.625 186.103 24.1711C186.357 23.7172 186.477 23.2312 186.477 22.7052C186.477 21.9006 186.203 21.2107 185.667 20.6395C185.12 20.0662 184.48 19.7786 183.731 19.7786ZM183.74 18.8615C184.814 18.8615 185.717 19.2706 186.431 20.0757C187.076 20.8126 187.401 21.6803 187.401 22.6921C187.401 23.6994 187.06 24.5853 186.377 25.3378C185.695 26.0958 184.81 26.4731 183.74 26.4731C182.653 26.4731 181.776 26.0958 181.086 25.3378C180.402 24.5853 180.061 23.6991 180.061 22.6921C180.061 21.6896 180.387 20.8194 181.034 20.0846C181.747 19.2706 182.644 18.8615 183.74 18.8615ZM190.691 19.0414H191.616V20.1069C191.889 19.6845 192.189 19.3787 192.488 19.1676C192.798 18.9648 193.12 18.8618 193.443 18.8618C193.695 18.8618 193.966 18.9473 194.246 19.1139L193.78 19.8961C193.586 19.8106 193.428 19.7703 193.302 19.7703C192.997 19.7703 192.71 19.8961 192.428 20.1455C192.15 20.4041 191.935 20.8046 191.785 21.3348C191.672 21.7531 191.616 22.5894 191.616 23.8437V26.2938H190.691V19.0414ZM196.985 16.2407H197.879V21.9796L201.161 19.0414H202.476L198.61 22.4947L202.693 26.2935H201.415L197.879 23.0133V26.2935H196.985V16.2407Z" fill="#6D6D70"/>
<path fill-rule="evenodd" clip-rule="evenodd" d="M64.6905 24.9034H67.3281V28.7884C68.3835 27.3133 69.5819 26.2091 70.9561 25.4795C72.3203 24.7475 73.8366 24.3815 75.5225 24.3815C78.4566 24.3815 80.9598 25.4706 83.0439 27.6215C85.1325 29.7768 86.1724 32.3788 86.1724 35.4113C86.1724 38.5193 85.1392 41.1455 83.0734 43.3126C81.0043 45.4747 78.5171 46.5547 75.5987 46.5547C73.9585 46.5547 72.4499 46.2064 71.0691 45.5059C69.6892 44.8072 68.4443 43.7632 67.3284 42.3729V53.7596H64.6907V24.9034H64.6905ZM75.333 27.0103C73.035 27.0103 71.1006 27.8269 69.5361 29.4647C67.9592 31.1067 67.1785 33.1417 67.1785 35.5737C67.1785 37.1762 67.5268 38.6127 68.2247 39.8896C68.9217 41.1703 69.9303 42.179 71.2276 42.9239C72.5407 43.6783 73.9215 44.0534 75.3616 44.0534C76.788 44.0534 78.1212 43.6715 79.3827 42.9174C80.6407 42.1654 81.6347 41.1081 82.3785 39.7558C83.1227 38.4035 83.4923 36.9796 83.4923 35.5024C83.4923 34.0028 83.1227 32.5883 82.3871 31.2449C81.6491 29.9088 80.6559 28.8668 79.4033 28.1277C78.1604 27.3846 76.7952 27.0103 75.333 27.0103ZM90.5375 31.7402H93.1784V52.8823H90.5375V31.7402ZM91.8486 23.0625C92.4499 23.0625 92.9665 23.2879 93.3911 23.73C93.8143 24.1655 94.035 24.703 94.035 25.323C94.035 25.9277 93.8143 26.4658 93.3911 26.9031C92.9668 27.3445 92.4499 27.5611 91.8486 27.5611C91.2514 27.5611 90.7514 27.3445 90.3182 26.9031C89.8939 26.4658 89.68 25.9274 89.68 25.323C89.68 24.703 89.8939 24.1652 90.3182 23.73C90.7511 23.2879 91.2514 23.0625 91.8486 23.0625ZM108.472 33.8961C106.264 33.8961 104.375 34.7171 102.79 36.3906C101.204 38.0511 100.406 40.0655 100.406 42.4289C100.406 43.9529 100.771 45.3653 101.49 46.6861C102.219 48.0024 103.19 49.0202 104.427 49.734C105.647 50.4483 107 50.8054 108.472 50.8054C109.942 50.8054 111.29 50.4483 112.521 49.734C113.747 49.0202 114.729 48.0024 115.447 46.6861C116.168 45.3653 116.53 43.9529 116.53 42.4289C116.53 40.0652 115.736 38.0511 114.14 36.3906C112.555 34.7171 110.669 33.8961 108.472 33.8961ZM108.484 31.2231C111.663 31.2231 114.303 32.4012 116.393 34.7575C118.297 36.8948 119.246 39.4367 119.246 42.3729C119.246 45.3208 118.245 47.891 116.235 50.0911C114.225 52.3 111.639 53.3933 108.484 53.3933C105.313 53.3933 102.712 52.3 100.713 50.0911C98.6911 47.8907 97.6903 45.3208 97.6903 42.3729C97.6903 39.4523 98.639 36.9175 100.543 34.7754C102.638 32.4012 105.285 31.2231 108.484 31.2231ZM121.135 31.7402H123.777V35.5272C124.843 34.0832 126.02 32.9991 127.309 32.2936C128.605 31.5885 130.009 31.2228 131.534 31.2228C133.079 31.2228 134.454 31.6244 135.652 32.4251C136.85 33.2263 137.732 34.3063 138.307 35.6674C138.874 37.0262 139.156 39.1396 139.156 42.0092V52.882H136.518V42.8096C136.518 40.3776 136.41 38.751 136.214 37.9362C135.886 36.5465 135.296 35.4953 134.414 34.7881C133.544 34.0823 132.405 33.7302 131.006 33.7302C129.388 33.7302 127.945 34.2745 126.679 35.3633C125.399 36.4433 124.556 37.7956 124.156 39.3978C123.907 40.4465 123.776 42.3564 123.776 45.1325V52.8817H121.135V31.7402H121.135ZM162.266 40.184C161.91 38.7291 161.394 37.5711 160.71 36.7074C160.023 35.8375 159.127 35.1388 158.002 34.6101C156.885 34.0832 155.707 33.8112 154.477 33.8112C152.436 33.8112 150.693 34.4805 149.229 35.808C148.152 36.7854 147.347 38.2382 146.802 40.184H162.266ZM162.238 45.8698L164.482 47.0836C163.738 48.5449 162.895 49.734 161.925 50.6357C160.962 51.5303 159.887 52.2199 158.68 52.6952C157.466 53.1593 156.109 53.3933 154.583 53.3933C151.209 53.3933 148.569 52.2694 146.664 50.0127C144.77 47.7596 143.815 45.2109 143.815 42.3726C143.815 39.7019 144.625 37.3053 146.233 35.2166C148.274 32.5588 151.009 31.2228 154.442 31.2228C157.965 31.2228 160.788 32.5883 162.895 35.317C164.389 37.2431 165.153 39.6459 165.179 42.529H146.535C146.585 44.9769 147.358 46.9831 148.834 48.5381C150.328 50.107 152.163 50.8944 154.349 50.8944C155.402 50.8944 156.433 50.7049 157.427 50.3325C158.428 49.9576 159.271 49.4711 159.976 48.8552C160.675 48.2343 161.433 47.2486 162.238 45.8698ZM187.506 40.184C187.152 38.7291 186.635 37.5711 185.953 36.7074C185.27 35.8375 184.366 35.1388 183.247 34.6101C182.133 34.0832 180.947 33.8112 179.721 33.8112C177.68 33.8112 175.932 34.4805 174.471 35.808C173.395 36.7854 172.587 38.2382 172.046 40.184H187.506ZM187.484 45.8698L189.722 47.0836C188.989 48.5449 188.14 49.734 187.176 50.6357C186.212 51.5303 185.127 52.2199 183.921 52.6952C182.717 53.1593 181.351 53.3933 179.834 53.3933C176.449 53.3933 173.816 52.2694 171.916 50.0127C170.012 47.7596 169.055 45.2109 169.055 42.3726C169.055 39.7019 169.867 37.3053 171.484 35.2166C173.514 32.5588 176.262 31.2228 179.682 31.2228C183.208 31.2228 186.03 32.5883 188.14 35.317C189.634 37.2431 190.398 39.6459 190.422 42.529H171.78C171.83 44.9769 172.598 46.9831 174.085 48.5381C175.568 50.107 177.407 50.8944 179.593 50.8944C180.644 50.8944 181.677 50.7049 182.672 50.3325C183.672 49.9576 184.519 49.4711 185.216 48.8552C185.914 48.2343 186.672 47.2486 187.484 45.8698ZM194.321 31.7402H197.043V34.8355C197.855 33.6147 198.703 32.7136 199.605 32.113C200.508 31.5266 201.439 31.2228 202.414 31.2228C203.159 31.2228 203.936 31.4615 204.77 31.9456L203.385 34.2214C202.829 33.981 202.364 33.8469 201.982 33.8469C201.092 33.8469 200.241 34.2214 199.416 34.967C198.598 35.7054 197.968 36.8724 197.536 38.4342C197.202 39.6374 197.043 42.0717 197.043 45.7313V52.8826H194.321V31.7402ZM217.43 34.0346L215.726 35.846C214.307 34.4401 212.909 33.7308 211.558 33.7308C210.696 33.7308 209.96 34.0255 209.344 34.6098C208.729 35.1856 208.418 35.8684 208.418 36.6449C208.418 37.3318 208.668 37.9813 209.178 38.6036C209.68 39.2416 210.748 39.9807 212.361 40.8352C214.335 41.8746 215.676 42.8944 216.386 43.8648C217.081 44.847 217.43 45.9491 217.43 47.1764C217.43 48.9165 216.829 50.3873 215.642 51.5899C214.45 52.7951 212.962 53.3927 211.174 53.3927C209.98 53.3927 208.853 53.1299 207.759 52.6009C206.684 52.072 205.787 51.3423 205.073 50.4005L206.743 48.4592C208.104 50.0278 209.544 50.8045 211.065 50.8045C212.129 50.8045 213.03 50.4559 213.781 49.7558C214.524 49.0636 214.903 48.2402 214.903 47.3011C214.903 46.5219 214.661 45.8327 214.17 45.226C213.666 44.6283 212.552 43.8737 210.816 42.9725C208.957 41.9954 207.685 41.0223 207.016 40.0646C206.35 39.1078 206.009 38.0207 206.009 36.7919C206.009 35.1989 206.547 33.8708 207.616 32.8067C208.69 31.7579 210.041 31.2225 211.682 31.2225C213.584 31.2231 215.505 32.1625 217.43 34.0346Z" fill="#6D6D70"/>
</svg>
